  0
SECTION
  2
HEADER
  9
$ACADVER
  1
AC1027
  9
$ACADMAINTVER
 70
105
  9
$DWGCODEPAGE
  3
ANSI_1252
  9
$LASTSAVEDBY
  1
ezdxf
  9
$REQUIREDVERSIONS
160
0
  9
$INSBASE
 10
0.0
 20
0.0
 30
0.0
  9
$EXTMIN
 10
1e+20
 20
1e+20
 30
1e+20
  9
$EXTMAX
 10
-1e+20
 20
-1e+20
 30
-1e+20
  9
$LIMMIN
 10
0.0
 20
0.0
  9
$LIMMAX
 10
420.0
 20
297.0
  9
$ORTHOMODE
 70
0
  9
$REGENMODE
 70
1
  9
$FILLMODE
 70
1
  9
$QTEXTMODE
 70
0
  9
$MIRRTEXT
 70
1
  9
$LTSCALE
 40
1.0
  9
$ATTMODE
 70
1
  9
$TEXTSIZE
 40
2.5
  9
$TRACEWID
 40
1.0
  9
$TEXTSTYLE
  7
Standard
  9
$CLAYER
  8
0
  9
$CELTYPE
  6
ByLayer
  9
$CECOLOR
 62
256
  9
$CELTSCALE
 40
1.0
  9
$DISPSILH
 70
0
  9
$DIMSCALE
 40
1.0
  9
$DIMASZ
 40
2.5
  9
$DIMEXO
 40
0.625
  9
$DIMDLI
 40
3.75
  9
$DIMRND
 40
0.0
  9
$DIMDLE
 40
0.0
  9
$DIMEXE
 40
1.25
  9
$DIMTP
 40
0.0
  9
$DIMTM
 40
0.0
  9
$DIMTXT
 40
2.5
  9
$DIMCEN
 40
2.5
  9
$DIMTSZ
 40
0.0
  9
$DIMTOL
 70
0
  9
$DIMLIM
 70
0
  9
$DIMTIH
 70
0
  9
$DIMTOH
 70
0
  9
$DIMSE1
 70
0
  9
$DIMSE2
 70
0
  9
$DIMTAD
 70
1
  9
$DIMZIN
 70
8
  9
$DIMBLK
  1

  9
$DIMASO
 70
1
  9
$DIMSHO
 70
1
  9
$DIMPOST
  1

  9
$DIMAPOST
  1

  9
$DIMALT
 70
0
  9
$DIMALTD
 70
3
  9
$DIMALTF
 40
0.03937007874
  9
$DIMLFAC
 40
1.0
  9
$DIMTOFL
 70
1
  9
$DIMTVP
 40
0.0
  9
$DIMTIX
 70
0
  9
$DIMSOXD
 70
0
  9
$DIMSAH
 70
0
  9
$DIMBLK1
  1

  9
$DIMBLK2
  1

  9
$DIMSTYLE
  2
ISO-25
  9
$DIMCLRD
 70
0
  9
$DIMCLRE
 70
0
  9
$DIMCLRT
 70
0
  9
$DIMTFAC
 40
1.0
  9
$DIMGAP
 40
0.625
  9
$DIMJUST
 70
0
  9
$DIMSD1
 70
0
  9
$DIMSD2
 70
0
  9
$DIMTOLJ
 70
0
  9
$DIMTZIN
 70
8
  9
$DIMALTZ
 70
0
  9
$DIMALTTZ
 70
0
  9
$DIMUPT
 70
0
  9
$DIMDEC
 70
2
  9
$DIMTDEC
 70
2
  9
$DIMALTU
 70
2
  9
$DIMALTTD
 70
3
  9
$DIMTXSTY
  7
Standard
  9
$DIMAUNIT
 70
0
  9
$DIMADEC
 70
0
  9
$DIMALTRND
 40
0.0
  9
$DIMAZIN
 70
0
  9
$DIMDSEP
 70
44
  9
$DIMATFIT
 70
3
  9
$DIMFRAC
 70
0
  9
$DIMLDRBLK
  1

  9
$DIMLUNIT
 70
2
  9
$DIMLWD
 70
-2
  9
$DIMLWE
 70
-2
  9
$DIMTMOVE
 70
0
  9
$DIMFXL
 40
1.0
  9
$DIMFXLON
 70
0
  9
$DIMJOGANG
 40
0.785398163397
  9
$DIMTFILL
 70
0
  9
$DIMTFILLCLR
 70
0
  9
$DIMARCSYM
 70
0
  9
$DIMLTYPE
  6

  9
$DIMLTEX1
  6

  9
$DIMLTEX2
  6

  9
$DIMTXTDIRECTION
 70
0
  9
$LUNITS
 70
2
  9
$LUPREC
 70
4
  9
$SKETCHINC
 40
1.0
  9
$FILLETRAD
 40
10.0
  9
$AUNITS
 70
0
  9
$AUPREC
 70
2
  9
$MENU
  1
.
  9
$ELEVATION
 40
0.0
  9
$PELEVATION
 40
0.0
  9
$THICKNESS
 40
0.0
  9
$LIMCHECK
 70
0
  9
$CHAMFERA
 40
0.0
  9
$CHAMFERB
 40
0.0
  9
$CHAMFERC
 40
0.0
  9
$CHAMFERD
 40
0.0
  9
$SKPOLY
 70
0
  9
$TDCREATE
 40
2461325.0254050926
  9
$TDUCREATE
 40
2458532.153996898
  9
$TDUPDATE
 40
2461325.0254050926
  9
$TDUUPDATE
 40
2458532.1544311
  9
$TDINDWG
 40
0.0
  9
$TDUSRTIMER
 40
0.0
  9
$USRTIMER
 70
1
  9
$ANGBASE
 50
0.0
  9
$ANGDIR
 70
0
  9
$PDMODE
 70
0
  9
$PDSIZE
 40
0.0
  9
$PLINEWID
 40
0.0
  9
$SPLFRAME
 70
0
  9
$SPLINETYPE
 70
6
  9
$SPLINESEGS
 70
8
  9
$HANDSEED
  5
2FC
  9
$SURFTAB1
 70
6
  9
$SURFTAB2
 70
6
  9
$SURFTYPE
 70
6
  9
$SURFU
 70
6
  9
$SURFV
 70
6
  9
$UCSBASE
  2

  9
$UCSNAME
  2

  9
$UCSORG
 10
0.0
 20
0.0
 30
0.0
  9
$UCSXDIR
 10
1.0
 20
0.0
 30
0.0
  9
$UCSYDIR
 10
0.0
 20
1.0
 30
0.0
  9
$UCSORTHOREF
  2

  9
$UCSORTHOVIEW
 70
0
  9
$UCSORGTOP
 10
0.0
 20
0.0
 30
0.0
  9
$UCSORGBOTTOM
 10
0.0
 20
0.0
 30
0.0
  9
$UCSORGLEFT
 10
0.0
 20
0.0
 30
0.0
  9
$UCSORGRIGHT
 10
0.0
 20
0.0
 30
0.0
  9
$UCSORGFRONT
 10
0.0
 20
0.0
 30
0.0
  9
$UCSORGBACK
 10
0.0
 20
0.0
 30
0.0
  9
$PUCSBASE
  2

  9
$PUCSNAME
  2

  9
$PUCSORG
 10
0.0
 20
0.0
 30
0.0
  9
$PUCSXDIR
 10
1.0
 20
0.0
 30
0.0
  9
$PUCSYDIR
 10
0.0
 20
1.0
 30
0.0
  9
$PUCSORTHOREF
  2

  9
$PUCSORTHOVIEW
 70
0
  9
$PUCSORGTOP
 10
0.0
 20
0.0
 30
0.0
  9
$PUCSORGBOTTOM
 10
0.0
 20
0.0
 30
0.0
  9
$PUCSORGLEFT
 10
0.0
 20
0.0
 30
0.0
  9
$PUCSORGRIGHT
 10
0.0
 20
0.0
 30
0.0
  9
$PUCSORGFRONT
 10
0.0
 20
0.0
 30
0.0
  9
$PUCSORGBACK
 10
0.0
 20
0.0
 30
0.0
  9
$USERI1
 70
0
  9
$USERI2
 70
0
  9
$USERI3
 70
0
  9
$USERI4
 70
0
  9
$USERI5
 70
0
  9
$USERR1
 40
0.0
  9
$USERR2
 40
0.0
  9
$USERR3
 40
0.0
  9
$USERR4
 40
0.0
  9
$USERR5
 40
0.0
  9
$WORLDVIEW
 70
1
  9
$SHADEDGE
 70
3
  9
$SHADEDIF
 70
70
  9
$TILEMODE
 70
1
  9
$MAXACTVP
 70
64
  9
$PINSBASE
 10
0.0
 20
0.0
 30
0.0
  9
$PLIMCHECK
 70
0
  9
$PEXTMIN
 10
1e+20
 20
1e+20
 30
1e+20
  9
$PEXTMAX
 10
-1e+20
 20
-1e+20
 30
-1e+20
  9
$PLIMMIN
 10
0.0
 20
0.0
  9
$PLIMMAX
 10
420.0
 20
297.0
  9
$UNITMODE
 70
0
  9
$VISRETAIN
 70
1
  9
$PLINEGEN
 70
0
  9
$PSLTSCALE
 70
1
  9
$TREEDEPTH
 70
3020
  9
$CMLSTYLE
  2
Standard
  9
$CMLJUST
 70
0
  9
$CMLSCALE
 40
20.0
  9
$PROXYGRAPHICS
 70
1
  9
$MEASUREMENT
 70
1
  9
$CELWEIGHT
370
-1
  9
$ENDCAPS
280
0
  9
$JOINSTYLE
280
0
  9
$LWDISPLAY
290
0
  9
$INSUNITS
 70
4
  9
$HYPERLINKBASE
  1

  9
$STYLESHEET
  1

  9
$XEDIT
290
1
  9
$CEPSNTYPE
380
0
  9
$PSTYLEMODE
290
1
  9
$FINGERPRINTGUID
  2
{DD038A3F-AD89-4457-8927-05F0A2FD1B5C}
  9
$VERSIONGUID
  2
{D6B3DDFB-716B-4258-BF01-7FB8CB54CE59}
  9
$EXTNAMES
290
1
  9
$PSVPSCALE
 40
0.0
  9
$OLESTARTUP
290
0
  9
$SORTENTS
280
127
  9
$INDEXCTL
280
0
  9
$HIDETEXT
280
1
  9
$XCLIPFRAME
280
1
  9
$HALOGAP
280
0
  9
$OBSCOLOR
 70
257
  9
$OBSLTYPE
280
0
  9
$INTERSECTIONDISPLAY
280
0
  9
$INTERSECTIONCOLOR
 70
257
  9
$DIMASSOC
280
2
  9
$PROJECTNAME
  1

  9
$CAMERADISPLAY
290
0
  9
$LENSLENGTH
 40
50.0
  9
$CAMERAHEIGHT
 40
0.0
  9
$STEPSPERSEC
 40
24.0
  9
$STEPSIZE
 40
100.0
  9
$3DDWFPREC
 40
2.0
  9
$PSOLWIDTH
 40
0.005
  9
$PSOLHEIGHT
 40
0.08
  9
$LOFTANG1
 40
1.570796326795
  9
$LOFTANG2
 40
1.570796326795
  9
$LOFTMAG1
 40
0.0
  9
$LOFTMAG2
 40
0.0
  9
$LOFTPARAM
 70
7
  9
$LOFTNORMALS
280
1
  9
$LATITUDE
 40
37.795
  9
$LONGITUDE
 40
-122.394
  9
$NORTHDIRECTION
 40
0.0
  9
$TIMEZONE
 70
-8000
  9
$LIGHTGLYPHDISPLAY
280
1
  9
$TILEMODELIGHTSYNCH
280
1
  9
$CMATERIAL
347
20
  9
$SOLIDHIST
280
0
  9
$SHOWHIST
280
1
  9
$DWFFRAME
280
2
  9
$DGNFRAME
280
2
  9
$REALWORLDSCALE
290
1
  9
$INTERFERECOLOR
 62
256
  9
$CSHADOW
280
0
  9
$SHADOWPLANELOCATION
 40
0.0
  0
ENDSEC
  0
SECTION
  2
CLASSES
  0
CLASS
  1
ACDBDICTIONARYWDFLT
  2
AcDbDictionaryWithDefault
  3
ObjectDBX Classes
 90
0
 91
0
280
0
281
0
  0
CLASS
  1
SUN
  2
AcDbSun
  3
SCENEOE
 90
1153
 91
0
280
0
281
0
  0
CLASS
  1
VISUALSTYLE
  2
AcDbVisualStyle
  3
ObjectDBX Classes
 90
4095
 91
0
280
0
281
0
  0
CLASS
  1
MATERIAL
  2
AcDbMaterial
  3
ObjectDBX Classes
 90
1153
 91
0
280
0
281
0
  0
CLASS
  1
SCALE
  2
AcDbScale
  3
ObjectDBX Classes
 90
1153
 91
0
280
0
281
0
  0
CLASS
  1
TABLESTYLE
  2
AcDbTableStyle
  3
ObjectDBX Classes
 90
4095
 91
0
280
0
281
0
  0
CLASS
  1
MLEADERSTYLE
  2
AcDbMLeaderStyle
  3
ACDB_MLEADERSTYLE_CLASS
 90
4095
 91
0
280
0
281
0
  0
CLASS
  1
DICTIONARYVAR
  2
AcDbDictionaryVar
  3
ObjectDBX Classes
 90
0
 91
0
280
0
281
0
  0
CLASS
  1
CELLSTYLEMAP
  2
AcDbCellStyleMap
  3
ObjectDBX Classes
 90
1152
 91
0
280
0
281
0
  0
CLASS
  1
MENTALRAYRENDERSETTINGS
  2
AcDbMentalRayRenderSettings
  3
SCENEOE
 90
1024
 91
0
280
0
281
0
  0
CLASS
  1
ACDBDETAILVIEWSTYLE
  2
AcDbDetailViewStyle
  3
ObjectDBX Classes
 90
1025
 91
0
280
0
281
0
  0
CLASS
  1
ACDBSECTIONVIEWSTYLE
  2
AcDbSectionViewStyle
  3
ObjectDBX Classes
 90
1025
 91
0
280
0
281
0
  0
CLASS
  1
RASTERVARIABLES
  2
AcDbRasterVariables
  3
ISM
 90
0
 91
0
280
0
281
0
  0
CLASS
  1
LAYOUT
  2
AcDbLayout
  3
ObjectDBX Classes
 90
0
 91
0
280
0
281
0
  0
CLASS
  1
ACDBPLACEHOLDER
  2
AcDbPlaceHolder
  3
ObjectDBX Classes
 90
0
 91
0
280
0
281
0
  0
ENDSEC
  0
SECTION
  2
TABLES
  0
TABLE
  2
VPORT
  5
8
330
0
100
AcDbSymbolTable
 70
1
  0
VPORT
  5
2B8
330
8
100
AcDbSymbolTableRecord
100
AcDbViewportTableRecord
  2
*Active
 70
0
 10
0.0
 20
0.0
 11
1.0
 21
1.0
 12
0.0
 22
781.5
 13
0.0
 23
0.0
 14
0.5
 24
0.5
 15
0.5
 25
0.5
 16
0.0
 26
0.0
 36
1.0
 17
0.0
 27
0.0
 37
0.0
 40
1563.0
 41
1.34
 42
50.0
 43
0.0
 44
0.0
 50
0.0
 51
0.0
 71
0
 72
1000
 73
1
 74
3
 75
0
 76
0
 77
0
 78
0
281
0
 65
1
110
0.0
120
0.0
130
0.0
111
1.0
121
0.0
131
0.0
112
0.0
122
1.0
132
0.0
 79
0
146
0.0
  0
ENDTAB
  0
TABLE
  2
LTYPE
  5
2
330
0
100
AcDbSymbolTable
 70
3
  0
LTYPE
  5
24
330
2
100
AcDbSymbolTableRecord
100
AcDbLinetypeTableRecord
  2
ByBlock
 70
0
  3

 72
65
 73
0
 40
0.0
  0
LTYPE
  5
25
330
2
100
AcDbSymbolTableRecord
100
AcDbLinetypeTableRecord
  2
ByLayer
 70
0
  3

 72
65
 73
0
 40
0.0
  0
LTYPE
  5
26
330
2
100
AcDbSymbolTableRecord
100
AcDbLinetypeTableRecord
  2
Continuous
 70
0
  3

 72
65
 73
0
 40
0.0
  0
ENDTAB
  0
TABLE
  2
LAYER
  5
1
330
0
100
AcDbSymbolTable
 70
2
  0
LAYER
  5
27
330
1
100
AcDbSymbolTableRecord
100
AcDbLayerTableRecord
  2
0
 70
0
 62
7
  6
Continuous
370
-3
390
13
347
21
  0
LAYER
  5
28
330
1
100
AcDbSymbolTableRecord
100
AcDbLayerTableRecord
  2
Defpoints
 70
0
 62
7
  6
Continuous
290
0
370
-3
390
13
347
21
  0
ENDTAB
  0
TABLE
  2
STYLE
  5
5
330
0
100
AcDbSymbolTable
 70
1
  0
STYLE
  5
29
330
5
100
AcDbSymbolTableRecord
100
AcDbTextStyleTableRecord
  2
Standard
 70
0
 40
0.0
 41
1.0
 50
0.0
 71
0
 42
2.5
  3
txt
  4

  0
ENDTAB
  0
TABLE
  2
VIEW
  5
7
330
0
100
AcDbSymbolTable
 70
0
  0
ENDTAB
  0
TABLE
  2
UCS
  5
6
330
0
100
AcDbSymbolTable
 70
0
  0
ENDTAB
  0
TABLE
  2
APPID
  5
3
330
0
100
AcDbSymbolTable
 70
3
  0
APPID
  5
2A
330
3
100
AcDbSymbolTableRecord
100
AcDbRegAppTableRecord
  2
ACAD
 70
0
  0
APPID
  5
2B9
330
3
100
AcDbSymbolTableRecord
100
AcDbRegAppTableRecord
  2
HATCHBACKGROUNDCOLOR
 70
0
  0
APPID
  5
2BA
330
3
100
AcDbSymbolTableRecord
100
AcDbRegAppTableRecord
  2
EZDXF
 70
0
  0
ENDTAB
  0
TABLE
  2
DIMSTYLE
  5
4
330
0
100
AcDbSymbolTable
 70
1
100
AcDbDimStyleTable
  0
DIMSTYLE
105
2B
330
4
100
AcDbSymbolTableRecord
100
AcDbDimStyleTableRecord
  2
Standard
 70
0
 40
1.0
 41
12.0
 42
0.625
 43
3.75
 44
1.25
 45
0.0
 46
0.0
 47
0.0
 48
0.0
 49
2.5
140
20.0
141
2.5
142
0.0
143
0.03937007874
144
1.0
145
0.0
146
1.0
147
0.625
148
0.0
 69
0
 70
0
 71
0
 72
0
 73
0
 74
0
 75
0
 76
0
 77
1
 78
8
 79
3
170
0
171
3
172
1
173
0
174
0
175
0
176
0
177
0
178
0
179
2
271
2
272
2
273
2
274
3
275
0
276
0
277
2
278
44
279
0
280
0
281
0
282
0
283
0
284
8
285
0
286
0
288
0
289
3
290
0
371
-2
372
-2
  0
ENDTAB
  0
TABLE
  2
BLOCK_RECORD
  5
9
330
0
100
AcDbSymbolTable
 70
7
  0
BLOCK_RECORD
  5
17
330
9
100
AcDbSymbolTableRecord
100
AcDbBlockTableRecord
  2
*Model_Space
340
1A
 70
0
280
1
281
0
  0
BLOCK_RECORD
  5
1B
330
9
100
AcDbSymbolTableRecord
100
AcDbBlockTableRecord
  2
*Paper_Space
340
1E
 70
0
280
1
281
0
  0
BLOCK_RECORD
  5
2BD
330
9
100
AcDbSymbolTableRecord
100
AcDbBlockTableRecord
  2
*D1
340
0
 70
0
280
1
281
0
  0
BLOCK_RECORD
  5
2C2
330
9
100
AcDbSymbolTableRecord
100
AcDbBlockTableRecord
  2
_CLOSEDFILLED
340
0
 70
0
280
1
281
0
  0
BLOCK_RECORD
  5
2D0
330
9
100
AcDbSymbolTableRecord
100
AcDbBlockTableRecord
  2
*D2
340
0
 70
0
280
1
281
0
  0
BLOCK_RECORD
  5
2DF
330
9
100
AcDbSymbolTableRecord
100
AcDbBlockTableRecord
  2
*D3
340
0
 70
0
280
1
281
0
  0
BLOCK_RECORD
  5
2EE
330
9
100
AcDbSymbolTableRecord
100
AcDbBlockTableRecord
  2
*D4
340
0
 70
0
280
1
281
0
  0
ENDTAB
  0
ENDSEC
  0
SECTION
  2
BLOCKS
  0
BLOCK
  5
18
330
17
100
AcDbEntity
  8
0
100
AcDbBlockBegin
  2
*Model_Space
 70
0
 10
0.0
 20
0.0
 30
0.0
  3
*Model_Space
  1

  0
ENDBLK
  5
19
330
17
100
AcDbEntity
  8
0
100
AcDbBlockEnd
  0
BLOCK
  5
1C
330
1B
100
AcDbEntity
  8
0
100
AcDbBlockBegin
  2
*Paper_Space
 70
0
 10
0.0
 20
0.0
 30
0.0
  3
*Paper_Space
  1

  0
ENDBLK
  5
1D
330
1B
100
AcDbEntity
  8
0
100
AcDbBlockEnd
  0
BLOCK
  5
2BE
330
2BD
100
AcDbEntity
  8
0
100
AcDbBlockBegin
  2
*D1
 70
1
 10
0.0
 20
0.0
 30
0.0
  3
*D1
  1

  0
LINE
  5
2C0
330
2BD
100
AcDbEntity
  8
0
 62
0
100
AcDbLine
 10
-0.625
 20
0.0
 30
0.0
 11
-161.25
 21
0.0
 31
0.0
  0
LINE
  5
2C1
330
2BD
100
AcDbEntity
  8
0
 62
0
100
AcDbLine
 10
-0.625
 20
1563.0
 30
0.0
 11
-161.25
 21
1563.0
 31
0.0
  0
INSERT
  5
2C6
330
2BD
100
AcDbEntity
  8
0
 62
0
100
AcDbBlockReference
  2
_CLOSEDFILLED
 10
-160.0
 20
0.0
 30
0.0
 41
12.0
 42
12.0
 50
270.0
  0
INSERT
  5
2C8
330
2BD
100
AcDbEntity
  8
0
 62
0
100
AcDbBlockReference
  2
_CLOSEDFILLED
 10
-160.0
 20
1563.0
 30
0.0
 41
12.0
 42
12.0
 50
90.0
  0
LINE
  5
2CA
330
2BD
100
AcDbEntity
  8
0
 62
0
100
AcDbLine
 10
-160.0
 20
12.0
 30
0.0
 11
-160.0
 21
1551.0
 31
0.0
  0
MTEXT
  5
2CB
330
2BD
100
AcDbEntity
  8
0
 62
0
100
AcDbMText
 10
-170.625
 20
781.5
 30
0.0
 40
20.0
 71
5
  1
1563
 50
90.0
  0
POINT
  5
2CC
330
2BD
100
AcDbEntity
  8
Defpoints
100
AcDbPoint
 10
-160.0
 20
0.0
 30
0.0
  0
POINT
  5
2CD
330
2BD
100
AcDbEntity
  8
Defpoints
100
AcDbPoint
 10
0.0
 20
0.0
 30
0.0
  0
POINT
  5
2CE
330
2BD
100
AcDbEntity
  8
Defpoints
100
AcDbPoint
 10
0.0
 20
1563.0
 30
0.0
  0
ENDBLK
  5
2BF
330
2BD
100
AcDbEntity
  8
0
100
AcDbBlockEnd
  0
BLOCK
  5
2C3
330
2C2
100
AcDbEntity
  8
0
100
AcDbBlockBegin
  2
_CLOSEDFILLED
 70
0
 10
0.0
 20
0.0
 30
0.0
  3
_CLOSEDFILLED
  1

  0
SOLID
  5
2C5
330
2C2
100
AcDbEntity
  8
0
  6
BYBLOCK
 62
0
100
AcDbTrace
 10
-1.0
 20
0.16439898372402537
 30
0.0
 11
0.0
 21
0.0
 31
0.0
 12
-1.0
 22
-0.16439898372402537
 32
0.0
 13
-1.0
 23
-0.16439898372402537
 33
0.0
  0
ENDBLK
  5
2C4
330
2C2
100
AcDbEntity
  8
0
100
AcDbBlockEnd
  0
BLOCK
  5
2D1
330
2D0
100
AcDbEntity
  8
0
100
AcDbBlockBegin
  2
*D2
 70
1
 10
0.0
 20
0.0
 30
0.0
  3
*D2
  1

  0
LINE
  5
2D3
330
2D0
100
AcDbEntity
  8
0
 62
0
100
AcDbLine
 10
-0.625
 20
0.0
 30
0.0
 11
-121.25
 21
0.0
 31
0.0
  0
LINE
  5
2D4
330
2D0
100
AcDbEntity
  8
0
 62
0
100
AcDbLine
 10
-0.625
 20
280.0
 30
0.0
 11
-121.25
 21
280.0
 31
0.0
  0
INSERT
  5
2D5
330
2D0
100
AcDbEntity
  8
0
 62
0
100
AcDbBlockReference
  2
_CLOSEDFILLED
 10
-120.0
 20
0.0
 30
0.0
 41
12.0
 42
12.0
 50
270.0
  0
INSERT
  5
2D7
330
2D0
100
AcDbEntity
  8
0
 62
0
100
AcDbBlockReference
  2
_CLOSEDFILLED
 10
-120.0
 20
280.0
 30
0.0
 41
12.0
 42
12.0
 50
90.0
  0
LINE
  5
2D9
330
2D0
100
AcDbEntity
  8
0
 62
0
100
AcDbLine
 10
-120.0
 20
12.0
 30
0.0
 11
-120.0
 21
268.0
 31
0.0
  0
MTEXT
  5
2DA
330
2D0
100
AcDbEntity
  8
0
 62
0
100
AcDbMText
 10
-130.625
 20
140.0
 30
0.0
 40
20.0
 71
5
  1
280
 50
90.0
  0
POINT
  5
2DB
330
2D0
100
AcDbEntity
  8
Defpoints
100
AcDbPoint
 10
-120.0
 20
0.0
 30
0.0
  0
POINT
  5
2DC
330
2D0
100
AcDbEntity
  8
Defpoints
100
AcDbPoint
 10
0.0
 20
0.0
 30
0.0
  0
POINT
  5
2DD
330
2D0
100
AcDbEntity
  8
Defpoints
100
AcDbPoint
 10
0.0
 20
280.0
 30
0.0
  0
ENDBLK
  5
2D2
330
2D0
100
AcDbEntity
  8
0
100
AcDbBlockEnd
  0
BLOCK
  5
2E0
330
2DF
100
AcDbEntity
  8
0
100
AcDbBlockBegin
  2
*D3
 70
1
 10
0.0
 20
0.0
 30
0.0
  3
*D3
  1

  0
LINE
  5
2E2
330
2DF
100
AcDbEntity
  8
0
 62
0
100
AcDbLine
 10
-105.0
 20
297.625
 30
0.0
 11
-105.0
 21
341.25
 31
0.0
  0
LINE
  5
2E3
330
2DF
100
AcDbEntity
  8
0
 62
0
100
AcDbLine
 10
105.0
 20
297.625
 30
0.0
 11
105.0
 21
341.25
 31
0.0
  0
INSERT
  5
2E4
330
2DF
100
AcDbEntity
  8
0
 62
0
100
AcDbBlockReference
  2
_CLOSEDFILLED
 10
-105.0
 20
340.0
 30
0.0
 41
12.0
 42
12.0
 50
180.0
  0
INSERT
  5
2E6
330
2DF
100
AcDbEntity
  8
0
 62
0
100
AcDbBlockReference
  2
_CLOSEDFILLED
 10
105.0
 20
340.0
 30
0.0
 41
12.0
 42
12.0
  0
LINE
  5
2E8
330
2DF
100
AcDbEntity
  8
0
 62
0
100
AcDbLine
 10
-93.0
 20
340.0
 30
0.0
 11
93.0
 21
340.0
 31
0.0
  0
MTEXT
  5
2E9
330
2DF
100
AcDbEntity
  8
0
 62
0
100
AcDbMText
 10
-160.0
 20
352.0
 30
0.0
 40
20.0
 71
5
  1
210
  0
POINT
  5
2EA
330
2DF
100
AcDbEntity
  8
Defpoints
100
AcDbPoint
 10
-105.0
 20
340.0
 30
0.0
  0
POINT
  5
2EB
330
2DF
100
AcDbEntity
  8
Defpoints
100
AcDbPoint
 10
-105.0
 20
297.0
 30
0.0
  0
POINT
  5
2EC
330
2DF
100
AcDbEntity
  8
Defpoints
100
AcDbPoint
 10
105.0
 20
297.0
 30
0.0
  0
ENDBLK
  5
2E1
330
2DF
100
AcDbEntity
  8
0
100
AcDbBlockEnd
  0
BLOCK
  5
2EF
330
2EE
100
AcDbEntity
  8
0
100
AcDbBlockBegin
  2
*D4
 70
1
 10
0.0
 20
0.0
 30
0.0
  3
*D4
  1

  0
LINE
  5
2F1
330
2EE
100
AcDbEntity
  8
0
 62
0
100
AcDbLine
 10
-95.0
 20
-0.625
 30
0.0
 11
-95.0
 21
-41.25
 31
0.0
  0
LINE
  5
2F2
330
2EE
100
AcDbEntity
  8
0
 62
0
100
AcDbLine
 10
95.0
 20
-0.625
 30
0.0
 11
95.0
 21
-41.25
 31
0.0
  0
INSERT
  5
2F3
330
2EE
100
AcDbEntity
  8
0
 62
0
100
AcDbBlockReference
  2
_CLOSEDFILLED
 10
-95.0
 20
-40.0
 30
0.0
 41
12.0
 42
12.0
 50
180.0
  0
INSERT
  5
2F5
330
2EE
100
AcDbEntity
  8
0
 62
0
100
AcDbBlockReference
  2
_CLOSEDFILLED
 10
95.0
 20
-40.0
 30
0.0
 41
12.0
 42
12.0
  0
LINE
  5
2F7
330
2EE
100
AcDbEntity
  8
0
 62
0
100
AcDbLine
 10
-83.0
 20
-40.0
 30
0.0
 11
83.0
 21
-40.0
 31
0.0
  0
MTEXT
  5
2F8
330
2EE
100
AcDbEntity
  8
0
 62
0
100
AcDbMText
 10
0.0
 20
-29.375
 30
0.0
 40
20.0
 71
5
  1
190
  0
POINT
  5
2F9
330
2EE
100
AcDbEntity
  8
Defpoints
100
AcDbPoint
 10
-95.0
 20
-40.0
 30
0.0
  0
POINT
  5
2FA
330
2EE
100
AcDbEntity
  8
Defpoints
100
AcDbPoint
 10
-95.0
 20
0.0
 30
0.0
  0
POINT
  5
2FB
330
2EE
100
AcDbEntity
  8
Defpoints
100
AcDbPoint
 10
95.0
 20
0.0
 30
0.0
  0
ENDBLK
  5
2F0
330
2EE
100
AcDbEntity
  8
0
100
AcDbBlockEnd
  0
ENDSEC
  0
SECTION
  2
ENTITIES
  0
LINE
  5
2F
330
17
100
AcDbEntity
  8
0
100
AcDbLine
 10
-94.85
 20
2.0
 30
-5.350092488312317e-17
 11
-90.35
 21
2.0
 31
7.731356645413395e-16
  0
LINE
  5
30
330
17
100
AcDbEntity
  8
0
100
AcDbLine
 10
-90.35
 20
2.0
 30
7.731356645413395e-16
 11
-90.35
 21
261.0
 31
2.9527912002332894e-14
  0
LINE
  5
31
330
17
100
AcDbEntity
  8
0
100
AcDbLine
 10
-90.35
 20
261.0
 30
2.9527912002332894e-14
 11
-94.84999999999998
 21
261.0
 31
1.3156812917257481e-14
  0
LINE
  5
32
330
17
100
AcDbEntity
  8
0
100
AcDbLine
 10
-94.84999999999998
 20
261.0
 30
1.3156812917257481e-14
 11
-94.85
 21
2.0
 31
-5.350092488312317e-17
  0
LINE
  5
33
330
17
100
AcDbEntity
  8
0
100
AcDbLine
 10
-94.84999999999998
 20
261.0
 30
1.3156812917257481e-14
 11
-90.35
 21
261.0
 31
2.9527912002332894e-14
  0
LINE
  5
34
330
17
100
AcDbEntity
  8
0
100
AcDbLine
 10
-90.35
 20
261.0
 30
2.9527912002332894e-14
 11
-90.35
 21
280.0
 31
3.163733574912069e-14
  0
LINE
  5
35
330
17
100
AcDbEntity
  8
0
100
AcDbLine
 10
-90.35
 20
280.0
 30
3.163733574912069e-14
 11
-94.85
 21
280.0
 31
-1.6452322734563843e-16
  0
LINE
  5
36
330
17
100
AcDbEntity
  8
0
100
AcDbLine
 10
-94.85
 20
280.0
 30
-1.6452322734563843e-16
 11
-94.84999999999998
 21
261.0
 31
1.3156812917257481e-14
  0
LINE
  5
37
330
17
100
AcDbEntity
  8
0
100
AcDbLine
 10
-90.35
 20
280.0
 30
3.163733574912069e-14
 11
-90.35
 21
261.0
 31
2.9527912002332894e-14
  0
LINE
  5
38
330
17
100
AcDbEntity
  8
0
100
AcDbLine
 10
-90.35
 20
261.0
 30
2.9527912002332894e-14
 11
-89.75456868234944
 21
261.0
 31
2.7348493839933024e-14
  0
LINE
  5
39
330
17
100
AcDbEntity
  8
0
100
AcDbLine
 10
-89.75456868234944
 20
261.0
 30
2.7348493839933024e-14
 11
-89.75456868234949
 21
280.0
 31
-6.661338147750939e-16
  0
LINE
  5
3A
330
17
100
AcDbEntity
  8
0
100
AcDbLine
 10
-89.75456868234949
 20
280.0
 30
-6.661338147750939e-16
 11
-85.9479954202146
 21
280.0
 31
2.220446049250313e-16
  0
LINE
  5
3B
330
17
100
AcDbEntity
  8
0
100
AcDbLine
 10
-85.9479954202146
 20
280.0
 30
2.220446049250313e-16
 11
-85.94799542021461
 21
261.0
 31
4.070817756958907e-15
  0
LINE
  5
3C
330
17
100
AcDbEntity
  8
0
100
AcDbLine
 10
-85.94799542021461
 20
261.0
 30
4.070817756958907e-15
 11
-85.3525641025641
 21
261.0
 31
1.3230827785565826e-14
  0
LINE
  5
3D
330
17
100
AcDbEntity
  8
0
100
AcDbLine
 10
-85.3525641025641
 20
261.0
 30
1.3230827785565826e-14
 11
-85.3525641025641
 21
280.0
 31
-1.6452322734563843e-16
  0
LINE
  5
3E
330
17
100
AcDbEntity
  8
0
100
AcDbLine
 10
-85.3525641025641
 20
280.0
 30
-1.6452322734563843e-16
 11
-80.8525641025641
 21
280.0
 31
3.163733574912069e-14
  0
LINE
  5
3F
330
17
100
AcDbEntity
  8
0
100
AcDbLine
 10
-80.8525641025641
 20
280.0
 30
3.163733574912069e-14
 11
-80.8525641025641
 21
261.0
 31
2.9527912002332894e-14
  0
LINE
  5
40
330
17
100
AcDbEntity
  8
0
100
AcDbLine
 10
-80.8525641025641
 20
261.0
 30
2.9527912002332894e-14
 11
-80.25713278491357
 21
261.0
 31
2.7533531010703882e-14
  0
LINE
  5
41
330
17
100
AcDbEntity
  8
0
100
AcDbLine
 10
-80.25713278491357
 20
261.0
 30
2.7533531010703882e-14
 11
-80.2571327849136
 21
280.0
 31
-6.661338147750939e-16
  0
LINE
  5
42
330
17
100
AcDbEntity
  8
0
100
AcDbLine
 10
-80.2571327849136
 20
280.0
 30
-6.661338147750939e-16
 11
-76.4505595227787
 21
280.0
 31
2.220446049250313e-16
  0
LINE
  5
43
330
17
100
AcDbEntity
  8
0
100
AcDbLine
 10
-76.4505595227787
 20
280.0
 30
2.220446049250313e-16
 11
-76.4505595227787
 21
261.0
 31
4.144832625267251e-15
  0
LINE
  5
44
330
17
100
AcDbEntity
  8
0
100
AcDbLine
 10
-76.4505595227787
 20
261.0
 30
4.144832625267251e-15
 11
-75.8551282051282
 21
261.0
 31
1.2768234858638676e-14
  0
LINE
  5
45
330
17
100
AcDbEntity
  8
0
100
AcDbLine
 10
-75.8551282051282
 20
261.0
 30
1.2768234858638676e-14
 11
-75.8551282051282
 21
280.0
 31
-1.6452322734563843e-16
  0
LINE
  5
46
330
17
100
AcDbEntity
  8
0
100
AcDbLine
 10
-75.8551282051282
 20
280.0
 30
-1.6452322734563843e-16
 11
-71.3551282051282
 21
280.0
 31
3.163733574912069e-14
  0
LINE
  5
47
330
17
100
AcDbEntity
  8
0
100
AcDbLine
 10
-71.3551282051282
 20
280.0
 30
3.163733574912069e-14
 11
-71.3551282051282
 21
261.0
 31
2.9527912002332894e-14
  0
LINE
  5
48
330
17
100
AcDbEntity
  8
0
100
AcDbLine
 10
-71.3551282051282
 20
261.0
 30
2.9527912002332894e-14
 11
-70.75969688747767
 21
261.0
 31
2.7607545879012225e-14
  0
LINE
  5
49
330
17
100
AcDbEntity
  8
0
100
AcDbLine
 10
-70.75969688747767
 20
261.0
 30
2.7607545879012225e-14
 11
-70.75969688747769
 21
280.0
 31
-6.661338147750939e-16
  0
LINE
  5
4A
330
17
100
AcDbEntity
  8
0
100
AcDbLine
 10
-70.75969688747769
 20
280.0
 30
-6.661338147750939e-16
 11
-66.9531236253428
 21
280.0
 31
2.220446049250313e-16
  0
LINE
  5
4B
330
17
100
AcDbEntity
  8
0
100
AcDbLine
 10
-66.9531236253428
 20
280.0
 30
2.220446049250313e-16
 11
-66.9531236253428
 21
261.0
 31
4.218847493575595e-15
  0
LINE
  5
4C
330
17
100
AcDbEntity
  8
0
100
AcDbLine
 10
-66.9531236253428
 20
261.0
 30
4.218847493575595e-15
 11
-66.3576923076923
 21
261.0
 31
1.3008783180640794e-14
  0
LINE
  5
4D
330
17
100
AcDbEntity
  8
0
100
AcDbLine
 10
-66.3576923076923
 20
261.0
 30
1.3008783180640794e-14
 11
-66.3576923076923
 21
280.0
 31
-1.6452322734563843e-16
  0
LINE
  5
4E
330
17
100
AcDbEntity
  8
0
100
AcDbLine
 10
-66.3576923076923
 20
280.0
 30
-1.6452322734563843e-16
 11
-61.857692307692304
 21
280.0
 31
3.163733574912069e-14
  0
LINE
  5
4F
330
17
100
AcDbEntity
  8
0
100
AcDbLine
 10
-61.857692307692304
 20
280.0
 30
3.163733574912069e-14
 11
-61.857692307692304
 21
261.0
 31
2.9527912002332894e-14
  0
LINE
  5
50
330
17
100
AcDbEntity
  8
0
100
AcDbLine
 10
-61.857692307692304
 20
261.0
 30
2.9527912002332894e-14
 11
-61.262260990041774
 21
261.0
 31
2.7274478971624678e-14
  0
LINE
  5
51
330
17
100
AcDbEntity
  8
0
100
AcDbLine
 10
-61.262260990041774
 20
261.0
 30
2.7274478971624678e-14
 11
-61.2622609900418
 21
280.0
 31
-6.661338147750939e-16
  0
LINE
  5
52
330
17
100
AcDbEntity
  8
0
100
AcDbLine
 10
-61.2622609900418
 20
280.0
 30
-6.661338147750939e-16
 11
-57.45568772790691
 21
280.0
 31
2.220446049250313e-16
  0
LINE
  5
53
330
17
100
AcDbEntity
  8
0
100
AcDbLine
 10
-57.45568772790691
 20
280.0
 30
2.220446049250313e-16
 11
-57.45568772790691
 21
261.0
 31
4.810966440042345e-15
  0
LINE
  5
54
330
17
100
AcDbEntity
  8
0
100
AcDbLine
 10
-57.45568772790691
 20
261.0
 30
4.810966440042345e-15
 11
-56.860256410256405
 21
261.0
 31
1.3082798048949137e-14
  0
LINE
  5
55
330
17
100
AcDbEntity
  8
0
100
AcDbLine
 10
-56.860256410256405
 20
261.0
 30
1.3082798048949137e-14
 11
-56.860256410256405
 21
280.0
 31
-1.6452322734563843e-16
  0
LINE
  5
56
330
17
100
AcDbEntity
  8
0
100
AcDbLine
 10
-56.860256410256405
 20
280.0
 30
-1.6452322734563843e-16
 11
-52.360256410256405
 21
280.0
 31
3.163733574912069e-14
  0
LINE
  5
57
330
17
100
AcDbEntity
  8
0
100
AcDbLine
 10
-52.360256410256405
 20
280.0
 30
3.163733574912069e-14
 11
-52.360256410256405
 21
261.0
 31
2.9527912002332894e-14
  0
LINE
  5
58
330
17
100
AcDbEntity
  8
0
100
AcDbLine
 10
-52.360256410256405
 20
261.0
 30
2.9527912002332894e-14
 11
-51.76482509260588
 21
261.0
 31
2.6867397195928788e-14
  0
LINE
  5
59
330
17
100
AcDbEntity
  8
0
100
AcDbLine
 10
-51.76482509260588
 20
261.0
 30
2.6867397195928788e-14
 11
-51.7648250926059
 21
280.0
 31
-6.661338147750939e-16
  0
LINE
  5
5A
330
17
100
AcDbEntity
  8
0
100
AcDbLine
 10
-51.7648250926059
 20
280.0
 30
-6.661338147750939e-16
 11
-47.95825183047101
 21
280.0
 31
2.220446049250313e-16
  0
LINE
  5
5B
330
17
100
AcDbEntity
  8
0
100
AcDbLine
 10
-47.95825183047101
 20
280.0
 30
2.220446049250313e-16
 11
-47.95825183047102
 21
261.0
 31
4.810966440042345e-15
  0
LINE
  5
5C
330
17
100
AcDbEntity
  8
0
100
AcDbLine
 10
-47.95825183047102
 20
261.0
 30
4.810966440042345e-15
 11
-47.3628205128205
 21
261.0
 31
-3.4965324521198657e-15
  0
LINE
  5
5D
330
17
100
AcDbEntity
  8
0
100
AcDbLine
 10
-47.3628205128205
 20
261.0
 30
-3.4965324521198657e-15
 11
-47.362820512820505
 21
280.0
 31
-1.6452322734563843e-16
  0
LINE
  5
5E
330
17
100
AcDbEntity
  8
0
100
AcDbLine
 10
-47.362820512820505
 20
280.0
 30
-1.6452322734563843e-16
 11
-42.862820512820505
 21
280.0
 31
3.163733574912069e-14
  0
LINE
  5
5F
330
17
100
AcDbEntity
  8
0
100
AcDbLine
 10
-42.862820512820505
 20
280.0
 30
3.163733574912069e-14
 11
-42.862820512820505
 21
261.0
 31
2.9527912002332894e-14
  0
LINE
  5
60
330
17
100
AcDbEntity
  8
0
100
AcDbLine
 10
-42.862820512820505
 20
261.0
 30
2.9527912002332894e-14
 11
-42.26738919516999
 21
261.0
 31
2.694141206423713e-14
  0
LINE
  5
61
330
17
100
AcDbEntity
  8
0
100
AcDbLine
 10
-42.26738919516999
 20
261.0
 30
2.694141206423713e-14
 11
-42.26738919517001
 21
280.0
 31
-6.661338147750939e-16
  0
LINE
  5
62
330
17
100
AcDbEntity
  8
0
100
AcDbLine
 10
-42.26738919517001
 20
280.0
 30
-6.661338147750939e-16
 11
-38.46081593303512
 21
280.0
 31
2.220446049250313e-16
  0
LINE
  5
63
330
17
100
AcDbEntity
  8
0
100
AcDbLine
 10
-38.46081593303512
 20
280.0
 30
2.220446049250313e-16
 11
-38.46081593303513
 21
261.0
 31
4.884981308350689e-15
  0
LINE
  5
64
330
17
100
AcDbEntity
  8
0
100
AcDbLine
 10
-38.46081593303513
 20
261.0
 30
4.884981308350689e-15
 11
-37.86538461538462
 21
261.0
 31
-3.422517583811522e-15
  0
LINE
  5
65
330
17
100
AcDbEntity
  8
0
100
AcDbLine
 10
-37.86538461538462
 20
261.0
 30
-3.422517583811522e-15
 11
-37.86538461538462
 21
280.0
 31
-1.6452322734563843e-16
  0
LINE
  5
66
330
17
100
AcDbEntity
  8
0
100
AcDbLine
 10
-37.86538461538462
 20
280.0
 30
-1.6452322734563843e-16
 11
-33.36538461538462
 21
280.0
 31
3.163733574912069e-14
  0
LINE
  5
67
330
17
100
AcDbEntity
  8
0
100
AcDbLine
 10
-33.36538461538462
 20
280.0
 30
3.163733574912069e-14
 11
-33.36538461538462
 21
261.0
 31
2.9527912002332894e-14
  0
LINE
  5
68
330
17
100
AcDbEntity
  8
0
100
AcDbLine
 10
-33.36538461538462
 20
261.0
 30
2.9527912002332894e-14
 11
-32.769953297734084
 21
261.0
 31
2.7015426932545477e-14
  0
LINE
  5
69
330
17
100
AcDbEntity
  8
0
100
AcDbLine
 10
-32.769953297734084
 20
261.0
 30
2.7015426932545477e-14
 11
-32.769953297734105
 21
280.0
 31
-6.661338147750939e-16
  0
LINE
  5
6A
330
17
100
AcDbEntity
  8
0
100
AcDbLine
 10
-32.769953297734105
 20
280.0
 30
-6.661338147750939e-16
 11
-28.96338003559921
 21
280.0
 31
2.220446049250313e-16
  0
LINE
  5
6B
330
17
100
AcDbEntity
  8
0
100
AcDbLine
 10
-28.96338003559921
 20
280.0
 30
2.220446049250313e-16
 11
-28.963380035599226
 21
261.0
 31
5.255055649892408e-15
  0
LINE
  5
6C
330
17
100
AcDbEntity
  8
0
100
AcDbLine
 10
-28.963380035599226
 20
261.0
 30
5.255055649892408e-15
 11
-28.36794871794872
 21
261.0
 31
-3.885110510738671e-15
  0
LINE
  5
6D
330
17
100
AcDbEntity
  8
0
100
AcDbLine
 10
-28.36794871794872
 20
261.0
 30
-3.885110510738671e-15
 11
-28.36794871794872
 21
280.0
 31
-1.6452322734563843e-16
  0
LINE
  5
6E
330
17
100
AcDbEntity
  8
0
100
AcDbLine
 10
-28.36794871794872
 20
280.0
 30
-1.6452322734563843e-16
 11
-23.86794871794872
 21
280.0
 31
3.163733574912069e-14
  0
LINE
  5
6F
330
17
100
AcDbEntity
  8
0
100
AcDbLine
 10
-23.86794871794872
 20
280.0
 30
3.163733574912069e-14
 11
-23.86794871794872
 21
261.0
 31
2.9527912002332894e-14
  0
LINE
  5
70
330
17
100
AcDbEntity
  8
0
100
AcDbLine
 10
-23.86794871794872
 20
261.0
 30
2.9527912002332894e-14
 11
-23.272517400298188
 21
261.0
 31
2.7200464103316335e-14
  0
LINE
  5
71
330
17
100
AcDbEntity
  8
0
100
AcDbLine
 10
-23.272517400298188
 20
261.0
 30
2.7200464103316335e-14
 11
-23.272517400298216
 21
280.0
 31
-6.661338147750939e-16
  0
LINE
  5
72
330
17
100
AcDbEntity
  8
0
100
AcDbLine
 10
-23.272517400298216
 20
280.0
 30
-6.661338147750939e-16
 11
-19.46594413816332
 21
280.0
 31
2.220446049250313e-16
  0
LINE
  5
73
330
17
100
AcDbEntity
  8
0
100
AcDbLine
 10
-19.46594413816332
 20
280.0
 30
2.220446049250313e-16
 11
-19.46594413816333
 21
261.0
 31
4.736951571734001e-15
  0
LINE
  5
74
330
17
100
AcDbEntity
  8
0
100
AcDbLine
 10
-19.46594413816333
 20
261.0
 30
4.736951571734001e-15
 11
-18.870512820512815
 21
261.0
 31
1.3008783180640794e-14
  0
LINE
  5
75
330
17
100
AcDbEntity
  8
0
100
AcDbLine
 10
-18.870512820512815
 20
261.0
 30
1.3008783180640794e-14
 11
-18.870512820512815
 21
280.0
 31
-1.6452322734563843e-16
  0
LINE
  5
76
330
17
100
AcDbEntity
  8
0
100
AcDbLine
 10
-18.870512820512815
 20
280.0
 30
-1.6452322734563843e-16
 11
-14.370512820512815
 21
280.0
 31
3.163733574912069e-14
  0
LINE
  5
77
330
17
100
AcDbEntity
  8
0
100
AcDbLine
 10
-14.370512820512815
 20
280.0
 30
3.163733574912069e-14
 11
-14.370512820512815
 21
261.0
 31
2.9527912002332894e-14
  0
LINE
  5
78
330
17
100
AcDbEntity
  8
0
100
AcDbLine
 10
-14.370512820512815
 20
261.0
 30
2.9527912002332894e-14
 11
-13.775081502862298
 21
261.0
 31
2.7570538444858055e-14
  0
LINE
  5
79
330
17
100
AcDbEntity
  8
0
100
AcDbLine
 10
-13.775081502862298
 20
261.0
 30
2.7570538444858055e-14
 11
-13.775081502862324
 21
280.0
 31
-6.661338147750939e-16
  0
LINE
  5
7A
330
17
100
AcDbEntity
  8
0
100
AcDbLine
 10
-13.775081502862324
 20
280.0
 30
-6.661338147750939e-16
 11
-9.968508240727427
 21
280.0
 31
2.220446049250313e-16
  0
LINE
  5
7B
330
17
100
AcDbEntity
  8
0
100
AcDbLine
 10
-9.968508240727427
 20
280.0
 30
2.220446049250313e-16
 11
-9.968508240727438
 21
261.0
 31
5.10702591327572e-15
  0
LINE
  5
7C
330
17
100
AcDbEntity
  8
0
100
AcDbLine
 10
-9.968508240727438
 20
261.0
 30
5.10702591327572e-15
 11
-9.373076923076923
 21
261.0
 31
1.3082798048949137e-14
  0
LINE
  5
7D
330
17
100
AcDbEntity
  8
0
100
AcDbLine
 10
-9.373076923076923
 20
261.0
 30
1.3082798048949137e-14
 11
-9.373076923076923
 21
280.0
 31
-1.6452322734563843e-16
  0
LINE
  5
7E
330
17
100
AcDbEntity
  8
0
100
AcDbLine
 10
-9.373076923076923
 20
280.0
 30
-1.6452322734563843e-16
 11
-4.873076923076923
 21
280.0
 31
3.163733574912069e-14
  0
LINE
  5
7F
330
17
100
AcDbEntity
  8
0
100
AcDbLine
 10
-4.873076923076923
 20
280.0
 30
3.163733574912069e-14
 11
-4.873076923076923
 21
261.0
 31
2.9527912002332894e-14
  0
LINE
  5
80
330
17
100
AcDbEntity
  8
0
100
AcDbLine
 10
-4.873076923076923
 20
261.0
 30
2.9527912002332894e-14
 11
-4.2776456054263905
 21
261.0
 31
2.6978419498391304e-14
  0
LINE
  5
81
330
17
100
AcDbEntity
  8
0
100
AcDbLine
 10
-4.2776456054263905
 20
261.0
 30
2.6978419498391304e-14
 11
-4.277645605426418
 21
280.0
 31
-6.661338147750939e-16
  0
LINE
  5
82
330
17
100
AcDbEntity
  8
0
100
AcDbLine
 10
-4.277645605426418
 20
280.0
 30
-6.661338147750939e-16
 11
-0.4710723432915218
 21
280.0
 31
2.220446049250313e-16
  0
LINE
  5
83
330
17
100
AcDbEntity
  8
0
100
AcDbLine
 10
-0.4710723432915218
 20
280.0
 30
2.220446049250313e-16
 11
-0.47107234329153114
 21
261.0
 31
4.51490696680897e-15
  0
LINE
  5
84
330
17
100
AcDbEntity
  8
0
100
AcDbLine
 10
-0.47107234329153114
 20
261.0
 30
4.51490696680897e-15
 11
0.12435897435898369
 21
261.0
 31
1.3156812917257481e-14
  0
LINE
  5
85
330
17
100
AcDbEntity
  8
0
100
AcDbLine
 10
0.12435897435898369
 20
261.0
 30
1.3156812917257481e-14
 11
0.12435897435898369
 21
280.0
 31
-1.6452322734563843e-16
  0
LINE
  5
86
330
17
100
AcDbEntity
  8
0
100
AcDbLine
 10
0.12435897435898369
 20
280.0
 30
-1.6452322734563843e-16
 11
4.624358974358984
 21
280.0
 31
3.163733574912069e-14
  0
LINE
  5
87
330
17
100
AcDbEntity
  8
0
100
AcDbLine
 10
4.624358974358984
 20
280.0
 30
3.163733574912069e-14
 11
4.624358974358984
 21
261.0
 31
2.9527912002332894e-14
  0
LINE
  5
88
330
17
100
AcDbEntity
  8
0
100
AcDbLine
 10
4.624358974358984
 20
261.0
 30
2.9527912002332894e-14
 11
5.219790292009502
 21
261.0
 31
2.7237471537470508e-14
  0
LINE
  5
89
330
17
100
AcDbEntity
  8
0
100
AcDbLine
 10
5.219790292009502
 20
261.0
 30
2.7237471537470508e-14
 11
5.219790292009474
 21
280.0
 31
-6.661338147750939e-16
  0
LINE
  5
8A
330
17
100
AcDbEntity
  8
0
100
AcDbLine
 10
5.219790292009474
 20
280.0
 30
-6.661338147750939e-16
 11
9.026363554144371
 21
280.0
 31
2.220446049250313e-16
  0
LINE
  5
8B
330
17
100
AcDbEntity
  8
0
100
AcDbLine
 10
9.026363554144371
 20
280.0
 30
2.220446049250313e-16
 11
9.026363554144362
 21
261.0
 31
4.588921835117314e-15
  0
LINE
  5
8C
330
17
100
AcDbEntity
  8
0
100
AcDbLine
 10
9.026363554144362
 20
261.0
 30
4.588921835117314e-15
 11
9.621794871794862
 21
261.0
 31
-3.422517583811522e-15
  0
LINE
  5
8D
330
17
100
AcDbEntity
  8
0
100
AcDbLine
 10
9.621794871794862
 20
261.0
 30
-3.422517583811522e-15
 11
9.621794871794862
 21
280.0
 31
-1.6452322734563843e-16
  0
LINE
  5
8E
330
17
100
AcDbEntity
  8
0
100
AcDbLine
 10
9.621794871794862
 20
280.0
 30
-1.6452322734563843e-16
 11
14.121794871794862
 21
280.0
 31
3.163733574912069e-14
  0
LINE
  5
8F
330
17
100
AcDbEntity
  8
0
100
AcDbLine
 10
14.121794871794862
 20
280.0
 30
3.163733574912069e-14
 11
14.121794871794862
 21
261.0
 31
2.9527912002332894e-14
  0
LINE
  5
90
330
17
100
AcDbEntity
  8
0
100
AcDbLine
 10
14.121794871794862
 20
261.0
 30
2.9527912002332894e-14
 11
14.717226189445393
 21
261.0
 31
2.7015426932545477e-14
  0
LINE
  5
91
330
17
100
AcDbEntity
  8
0
100
AcDbLine
 10
14.717226189445393
 20
261.0
 30
2.7015426932545477e-14
 11
14.717226189445366
 21
280.0
 31
-6.661338147750939e-16
  0
LINE
  5
92
330
17
100
AcDbEntity
  8
0
100
AcDbLine
 10
14.717226189445366
 20
280.0
 30
-6.661338147750939e-16
 11
18.523799451580263
 21
280.0
 31
2.220446049250313e-16
  0
LINE
  5
93
330
17
100
AcDbEntity
  8
0
100
AcDbLine
 10
18.523799451580263
 20
280.0
 30
2.220446049250313e-16
 11
18.523799451580253
 21
261.0
 31
4.6629367034256575e-15
  0
LINE
  5
94
330
17
100
AcDbEntity
  8
0
100
AcDbLine
 10
18.523799451580253
 20
261.0
 30
4.6629367034256575e-15
 11
19.119230769230754
 21
261.0
 31
-3.885110510738671e-15
  0
LINE
  5
95
330
17
100
AcDbEntity
  8
0
100
AcDbLine
 10
19.119230769230754
 20
261.0
 30
-3.885110510738671e-15
 11
19.119230769230754
 21
280.0
 31
-1.6452322734563843e-16
  0
LINE
  5
96
330
17
100
AcDbEntity
  8
0
100
AcDbLine
 10
19.119230769230754
 20
280.0
 30
-1.6452322734563843e-16
 11
23.619230769230754
 21
280.0
 31
3.163733574912069e-14
  0
LINE
  5
97
330
17
100
AcDbEntity
  8
0
100
AcDbLine
 10
23.619230769230754
 20
280.0
 30
3.163733574912069e-14
 11
23.619230769230754
 21
261.0
 31
2.9527912002332894e-14
  0
LINE
  5
98
330
17
100
AcDbEntity
  8
0
100
AcDbLine
 10
23.619230769230754
 20
261.0
 30
2.9527912002332894e-14
 11
24.2146620868813
 21
261.0
 31
2.7200464103316335e-14
  0
LINE
  5
99
330
17
100
AcDbEntity
  8
0
100
AcDbLine
 10
24.2146620868813
 20
261.0
 30
2.7200464103316335e-14
 11
24.214662086881273
 21
280.0
 31
-6.661338147750939e-16
  0
LINE
  5
9A
330
17
100
AcDbEntity
  8
0
100
AcDbLine
 10
24.214662086881273
 20
280.0
 30
-6.661338147750939e-16
 11
28.02123534901617
 21
280.0
 31
2.220446049250313e-16
  0
LINE
  5
9B
330
17
100
AcDbEntity
  8
0
100
AcDbLine
 10
28.02123534901617
 20
280.0
 30
2.220446049250313e-16
 11
28.021235349016155
 21
261.0
 31
4.736951571734001e-15
  0
LINE
  5
9C
330
17
100
AcDbEntity
  8
0
100
AcDbLine
 10
28.021235349016155
 20
261.0
 30
4.736951571734001e-15
 11
28.616666666666674
 21
261.0
 31
1.3008783180640794e-14
  0
LINE
  5
9D
330
17
100
AcDbEntity
  8
0
100
AcDbLine
 10
28.616666666666674
 20
261.0
 30
1.3008783180640794e-14
 11
28.616666666666674
 21
280.0
 31
-1.6452322734563843e-16
  0
LINE
  5
9E
330
17
100
AcDbEntity
  8
0
100
AcDbLine
 10
28.616666666666674
 20
280.0
 30
-1.6452322734563843e-16
 11
33.116666666666674
 21
280.0
 31
3.163733574912069e-14
  0
LINE
  5
9F
330
17
100
AcDbEntity
  8
0
100
AcDbLine
 10
33.116666666666674
 20
280.0
 30
3.163733574912069e-14
 11
33.116666666666674
 21
261.0
 31
2.9527912002332894e-14
  0
LINE
  5
A0
330
17
100
AcDbEntity
  8
0
100
AcDbLine
 10
33.116666666666674
 20
261.0
 30
2.9527912002332894e-14
 11
33.71209798431719
 21
261.0
 31
2.7274478971624678e-14
  0
LINE
  5
A1
330
17
100
AcDbEntity
  8
0
100
AcDbLine
 10
33.71209798431719
 20
261.0
 30
2.7274478971624678e-14
 11
33.71209798431717
 21
280.0
 31
-6.661338147750939e-16
  0
LINE
  5
A2
330
17
100
AcDbEntity
  8
0
100
AcDbLine
 10
33.71209798431717
 20
280.0
 30
-6.661338147750939e-16
 11
37.51867124645206
 21
280.0
 31
2.220446049250313e-16
  0
LINE
  5
A3
330
17
100
AcDbEntity
  8
0
100
AcDbLine
 10
37.51867124645206
 20
280.0
 30
2.220446049250313e-16
 11
37.51867124645205
 21
261.0
 31
4.810966440042345e-15
  0
LINE
  5
A4
330
17
100
AcDbEntity
  8
0
100
AcDbLine
 10
37.51867124645205
 20
261.0
 30
4.810966440042345e-15
 11
38.11410256410255
 21
261.0
 31
1.3082798048949137e-14
  0
LINE
  5
A5
330
17
100
AcDbEntity
  8
0
100
AcDbLine
 10
38.11410256410255
 20
261.0
 30
1.3082798048949137e-14
 11
38.11410256410255
 21
280.0
 31
-1.6452322734563843e-16
  0
LINE
  5
A6
330
17
100
AcDbEntity
  8
0
100
AcDbLine
 10
38.11410256410255
 20
280.0
 30
-1.6452322734563843e-16
 11
42.61410256410255
 21
280.0
 31
3.163733574912069e-14
  0
LINE
  5
A7
330
17
100
AcDbEntity
  8
0
100
AcDbLine
 10
42.61410256410255
 20
280.0
 30
3.163733574912069e-14
 11
42.61410256410255
 21
261.0
 31
2.9527912002332894e-14
  0
LINE
  5
A8
330
17
100
AcDbEntity
  8
0
100
AcDbLine
 10
42.61410256410255
 20
261.0
 30
2.9527912002332894e-14
 11
43.20953388175307
 21
261.0
 31
2.6867397195928788e-14
  0
LINE
  5
A9
330
17
100
AcDbEntity
  8
0
100
AcDbLine
 10
43.20953388175307
 20
261.0
 30
2.6867397195928788e-14
 11
43.209533881753046
 21
280.0
 31
-6.661338147750939e-16
  0
LINE
  5
AA
330
17
100
AcDbEntity
  8
0
100
AcDbLine
 10
43.209533881753046
 20
280.0
 30
-6.661338147750939e-16
 11
47.016107143887936
 21
280.0
 31
2.220446049250313e-16
  0
LINE
  5
AB
330
17
100
AcDbEntity
  8
0
100
AcDbLine
 10
47.016107143887936
 20
280.0
 30
2.220446049250313e-16
 11
47.01610714388793
 21
261.0
 31
4.810966440042345e-15
  0
LINE
  5
AC
330
17
100
AcDbEntity
  8
0
100
AcDbLine
 10
47.01610714388793
 20
261.0
 30
4.810966440042345e-15
 11
47.61153846153846
 21
261.0
 31
-3.4965324521198657e-15
  0
LINE
  5
AD
330
17
100
AcDbEntity
  8
0
100
AcDbLine
 10
47.61153846153846
 20
261.0
 30
-3.4965324521198657e-15
 11
47.61153846153846
 21
280.0
 31
-1.6452322734563843e-16
  0
LINE
  5
AE
330
17
100
AcDbEntity
  8
0
100
AcDbLine
 10
47.61153846153846
 20
280.0
 30
-1.6452322734563843e-16
 11
52.11153846153846
 21
280.0
 31
3.163733574912069e-14
  0
LINE
  5
AF
330
17
100
AcDbEntity
  8
0
100
AcDbLine
 10
52.11153846153846
 20
280.0
 30
3.163733574912069e-14
 11
52.11153846153846
 21
261.0
 31
2.9527912002332894e-14
  0
LINE
  5
B0
330
17
100
AcDbEntity
  8
0
100
AcDbLine
 10
52.11153846153846
 20
261.0
 30
2.9527912002332894e-14
 11
52.706969779188974
 21
261.0
 31
2.694141206423713e-14
  0
LINE
  5
B1
330
17
100
AcDbEntity
  8
0
100
AcDbLine
 10
52.706969779188974
 20
261.0
 30
2.694141206423713e-14
 11
52.70696977918895
 21
280.0
 31
-6.661338147750939e-16
  0
LINE
  5
B2
330
17
100
AcDbEntity
  8
0
100
AcDbLine
 10
52.70696977918895
 20
280.0
 30
-6.661338147750939e-16
 11
56.51354304132384
 21
280.0
 31
2.220446049250313e-16
  0
LINE
  5
B3
330
17
100
AcDbEntity
  8
0
100
AcDbLine
 10
56.51354304132384
 20
280.0
 30
2.220446049250313e-16
 11
56.513543041323835
 21
261.0
 31
4.884981308350689e-15
  0
LINE
  5
B4
330
17
100
AcDbEntity
  8
0
100
AcDbLine
 10
56.513543041323835
 20
261.0
 30
4.884981308350689e-15
 11
57.108974358974365
 21
261.0
 31
-3.422517583811522e-15
  0
LINE
  5
B5
330
17
100
AcDbEntity
  8
0
100
AcDbLine
 10
57.108974358974365
 20
261.0
 30
-3.422517583811522e-15
 11
57.108974358974365
 21
280.0
 31
-1.6452322734563843e-16
  0
LINE
  5
B6
330
17
100
AcDbEntity
  8
0
100
AcDbLine
 10
57.108974358974365
 20
280.0
 30
-1.6452322734563843e-16
 11
61.608974358974365
 21
280.0
 31
3.163733574912069e-14
  0
LINE
  5
B7
330
17
100
AcDbEntity
  8
0
100
AcDbLine
 10
61.608974358974365
 20
280.0
 30
3.163733574912069e-14
 11
61.608974358974365
 21
261.0
 31
2.9527912002332894e-14
  0
LINE
  5
B8
330
17
100
AcDbEntity
  8
0
100
AcDbLine
 10
61.608974358974365
 20
261.0
 30
2.9527912002332894e-14
 11
62.20440567662488
 21
261.0
 31
2.7533531010703882e-14
  0
LINE
  5
B9
330
17
100
AcDbEntity
  8
0
100
AcDbLine
 10
62.20440567662488
 20
261.0
 30
2.7533531010703882e-14
 11
62.20440567662486
 21
280.0
 31
-6.661338147750939e-16
  0
LINE
  5
BA
330
17
100
AcDbEntity
  8
0
100
AcDbLine
 10
62.20440567662486
 20
280.0
 30
-6.661338147750939e-16
 11
66.01097893875975
 21
280.0
 31
2.220446049250313e-16
  0
LINE
  5
BB
330
17
100
AcDbEntity
  8
0
100
AcDbLine
 10
66.01097893875975
 20
280.0
 30
2.220446049250313e-16
 11
66.01097893875975
 21
261.0
 31
4.144832625267251e-15
  0
LINE
  5
BC
330
17
100
AcDbEntity
  8
0
100
AcDbLine
 10
66.01097893875975
 20
261.0
 30
4.144832625267251e-15
 11
66.60641025641024
 21
261.0
 31
1.2768234858638676e-14
  0
LINE
  5
BD
330
17
100
AcDbEntity
  8
0
100
AcDbLine
 10
66.60641025641024
 20
261.0
 30
1.2768234858638676e-14
 11
66.60641025641024
 21
280.0
 31
-1.6452322734563843e-16
  0
LINE
  5
BE
330
17
100
AcDbEntity
  8
0
100
AcDbLine
 10
66.60641025641024
 20
280.0
 30
-1.6452322734563843e-16
 11
71.10641025641024
 21
280.0
 31
3.163733574912069e-14
  0
LINE
  5
BF
330
17
100
AcDbEntity
  8
0
100
AcDbLine
 10
71.10641025641024
 20
280.0
 30
3.163733574912069e-14
 11
71.10641025641024
 21
261.0
 31
2.9527912002332894e-14
  0
LINE
  5
C0
330
17
100
AcDbEntity
  8
0
100
AcDbLine
 10
71.10641025641024
 20
261.0
 30
2.9527912002332894e-14
 11
71.70184157406078
 21
261.0
 31
2.7607545879012225e-14
  0
LINE
  5
C1
330
17
100
AcDbEntity
  8
0
100
AcDbLine
 10
71.70184157406078
 20
261.0
 30
2.7607545879012225e-14
 11
71.70184157406077
 21
280.0
 31
-6.661338147750939e-16
  0
LINE
  5
C2
330
17
100
AcDbEntity
  8
0
100
AcDbLine
 10
71.70184157406077
 20
280.0
 30
-6.661338147750939e-16
 11
75.50841483619566
 21
280.0
 31
2.220446049250313e-16
  0
LINE
  5
C3
330
17
100
AcDbEntity
  8
0
100
AcDbLine
 10
75.50841483619566
 20
280.0
 30
2.220446049250313e-16
 11
75.50841483619566
 21
261.0
 31
4.218847493575595e-15
  0
LINE
  5
C4
330
17
100
AcDbEntity
  8
0
100
AcDbLine
 10
75.50841483619566
 20
261.0
 30
4.218847493575595e-15
 11
76.10384615384615
 21
261.0
 31
-3.644562188736553e-15
  0
LINE
  5
C5
330
17
100
AcDbEntity
  8
0
100
AcDbLine
 10
76.10384615384615
 20
261.0
 30
-3.644562188736553e-15
 11
76.10384615384615
 21
280.0
 31
-1.6452322734563843e-16
  0
LINE
  5
C6
330
17
100
AcDbEntity
  8
0
100
AcDbLine
 10
76.10384615384615
 20
280.0
 30
-1.6452322734563843e-16
 11
80.60384615384615
 21
280.0
 31
3.163733574912069e-14
  0
LINE
  5
C7
330
17
100
AcDbEntity
  8
0
100
AcDbLine
 10
80.60384615384615
 20
280.0
 30
3.163733574912069e-14
 11
80.60384615384615
 21
261.0
 31
2.9527912002332894e-14
  0
LINE
  5
C8
330
17
100
AcDbEntity
  8
0
100
AcDbLine
 10
80.60384615384615
 20
261.0
 30
2.9527912002332894e-14
 11
81.19927747149666
 21
261.0
 31
2.768156074732057e-14
  0
LINE
  5
C9
330
17
100
AcDbEntity
  8
0
100
AcDbLine
 10
81.19927747149666
 20
261.0
 30
2.768156074732057e-14
 11
81.19927747149664
 21
280.0
 31
-6.661338147750939e-16
  0
LINE
  5
CA
330
17
100
AcDbEntity
  8
0
100
AcDbLine
 10
81.19927747149664
 20
280.0
 30
-6.661338147750939e-16
 11
85.00585073363153
 21
280.0
 31
2.220446049250313e-16
  0
LINE
  5
CB
330
17
100
AcDbEntity
  8
0
100
AcDbLine
 10
85.00585073363153
 20
280.0
 30
2.220446049250313e-16
 11
85.00585073363153
 21
261.0
 31
4.292862361883938e-15
  0
LINE
  5
CC
330
17
100
AcDbEntity
  8
0
100
AcDbLine
 10
85.00585073363153
 20
261.0
 30
4.292862361883938e-15
 11
85.60128205128206
 21
261.0
 31
-3.5705473204282096e-15
  0
LINE
  5
CD
330
17
100
AcDbEntity
  8
0
100
AcDbLine
 10
85.60128205128206
 20
261.0
 30
-3.5705473204282096e-15
 11
85.60128205128206
 21
280.0
 31
-1.6452322734563843e-16
  0
LINE
  5
CE
330
17
100
AcDbEntity
  8
0
100
AcDbLine
 10
85.60128205128206
 20
280.0
 30
-1.6452322734563843e-16
 11
90.10128205128206
 21
280.0
 31
3.163733574912069e-14
  0
LINE
  5
CF
330
17
100
AcDbEntity
  8
0
100
AcDbLine
 10
90.10128205128206
 20
280.0
 30
3.163733574912069e-14
 11
90.10128205128206
 21
261.0
 31
2.9527912002332894e-14
  0
LINE
  5
D0
330
17
100
AcDbEntity
  8
0
100
AcDbLine
 10
90.10128205128206
 20
261.0
 30
2.9527912002332894e-14
 11
90.69671336893258
 21
261.0
 31
2.7274478971624678e-14
  0
LINE
  5
D1
330
17
100
AcDbEntity
  8
0
100
AcDbLine
 10
90.69671336893258
 20
261.0
 30
2.7274478971624678e-14
 11
90.69671336893255
 21
280.0
 31
-6.661338147750939e-16
  0
LINE
  5
D2
330
17
100
AcDbEntity
  8
0
100
AcDbLine
 10
90.69671336893255
 20
280.0
 30
-6.661338147750939e-16
 11
94.50328663106744
 21
280.0
 31
2.220446049250313e-16
  0
LINE
  5
D3
330
17
100
AcDbEntity
  8
0
100
AcDbLine
 10
94.50328663106744
 20
280.0
 30
2.220446049250313e-16
 11
94.50328663106744
 21
261.0
 31
3.9968028886505635e-15
  0
LINE
  5
D4
330
17
100
AcDbEntity
  8
0
100
AcDbLine
 10
94.50328663106744
 20
261.0
 30
3.9968028886505635e-15
 11
97.0
 21
261.0
 31
0.0
  0
LINE
  5
D5
330
17
100
AcDbEntity
  8
0
100
AcDbLine
 10
97.0
 20
261.0
 30
0.0
 11
97.0
 21
286.0
 31
0.0
  0
LINE
  5
D6
330
17
100
AcDbEntity
  8
0
100
AcDbLine
 10
97.0
 20
286.0
 30
0.0
 11
-97.0
 21
286.0
 31
0.0
  0
LINE
  5
D7
330
17
100
AcDbEntity
  8
0
100
AcDbLine
 10
-97.0
 20
286.0
 30
0.0
 11
-97.0
 21
261.0
 31
0.0
  0
LINE
  5
D8
330
17
100
AcDbEntity
  8
0
100
AcDbLine
 10
-97.0
 20
261.0
 30
0.0
 11
-94.84999999999998
 21
261.0
 31
1.3156812917257481e-14
  0
LINE
  5
D9
330
17
100
AcDbEntity
  8
0
100
AcDbLine
 10
-94.84999999999998
 20
261.0
 30
1.3156812917257481e-14
 11
-94.85
 21
280.0
 31
-1.6452322734563843e-16
  0
LINE
  5
DA
330
17
100
AcDbEntity
  8
0
100
AcDbLine
 10
-94.85
 20
280.0
 30
-1.6452322734563843e-16
 11
-90.35
 21
280.0
 31
3.163733574912069e-14
  0
LINE
  5
DB
330
17
100
AcDbEntity
  8
0
100
AcDbLine
 10
-85.94799542021461
 20
261.0
 30
4.070817756958907e-15
 11
-89.75456868234944
 21
261.0
 31
2.7348493839933024e-14
  0
LINE
  5
DC
330
17
100
AcDbEntity
  8
0
100
AcDbLine
 10
-89.75456868234944
 20
261.0
 30
2.7348493839933024e-14
 11
-89.75456868234947
 21
6.0
 31
-4.440892098500626e-16
  0
LINE
  5
DD
330
17
100
AcDbEntity
  8
0
100
AcDbLine
 10
-89.75456868234947
 20
6.0
 30
-4.440892098500626e-16
 11
-85.94799542021461
 21
6.0
 31
2.220446049250313e-16
  0
LINE
  5
DE
330
17
100
AcDbEntity
  8
0
100
AcDbLine
 10
-85.94799542021461
 20
6.0
 30
2.220446049250313e-16
 11
-85.94799542021461
 21
261.0
 31
4.070817756958907e-15
  0
LINE
  5
DF
330
17
100
AcDbEntity
  8
0
100
AcDbLine
 10
-89.75456868234949
 20
280.0
 30
-6.661338147750939e-16
 11
-89.75456868234944
 21
261.0
 31
2.7348493839933024e-14
  0
LINE
  5
E0
330
17
100
AcDbEntity
  8
0
100
AcDbLine
 10
-89.75456868234944
 20
261.0
 30
2.7348493839933024e-14
 11
-85.94799542021461
 21
261.0
 31
4.070817756958907e-15
  0
LINE
  5
E1
330
17
100
AcDbEntity
  8
0
100
AcDbLine
 10
-85.94799542021461
 20
261.0
 30
4.070817756958907e-15
 11
-85.9479954202146
 21
280.0
 31
2.220446049250313e-16
  0
LINE
  5
E2
330
17
100
AcDbEntity
  8
0
100
AcDbLine
 10
-85.9479954202146
 20
280.0
 30
2.220446049250313e-16
 11
-89.75456868234949
 21
280.0
 31
-6.661338147750939e-16
  0
LINE
  5
E3
330
17
100
AcDbEntity
  8
0
100
AcDbLine
 10
-80.8525641025641
 20
261.0
 30
2.9527912002332894e-14
 11
-85.3525641025641
 21
261.0
 31
1.3230827785565826e-14
  0
LINE
  5
E4
330
17
100
AcDbEntity
  8
0
100
AcDbLine
 10
-85.3525641025641
 20
261.0
 30
1.3230827785565826e-14
 11
-85.3525641025641
 21
3.059169915255505e-32
 31
-2.755455298081545e-16
  0
LINE
  5
E5
330
17
100
AcDbEntity
  8
0
100
AcDbLine
 10
-85.3525641025641
 20
3.059169915255505e-32
 30
-2.755455298081545e-16
 11
-80.8525641025641
 21
-6.118339830511036e-32
 31
5.510910596163113e-16
  0
LINE
  5
E6
330
17
100
AcDbEntity
  8
0
100
AcDbLine
 10
-80.8525641025641
 20
-6.118339830511036e-32
 30
5.510910596163113e-16
 11
-80.8525641025641
 21
261.0
 31
2.9527912002332894e-14
  0
LINE
  5
E7
330
17
100
AcDbEntity
  8
0
100
AcDbLine
 10
-85.3525641025641
 20
280.0
 30
-1.6452322734563843e-16
 11
-85.3525641025641
 21
261.0
 31
1.3230827785565826e-14
  0
LINE
  5
E8
330
17
100
AcDbEntity
  8
0
100
AcDbLine
 10
-85.3525641025641
 20
261.0
 30
1.3230827785565826e-14
 11
-80.8525641025641
 21
261.0
 31
2.9527912002332894e-14
  0
LINE
  5
E9
330
17
100
AcDbEntity
  8
0
100
AcDbLine
 10
-80.8525641025641
 20
261.0
 30
2.9527912002332894e-14
 11
-80.8525641025641
 21
280.0
 31
3.163733574912069e-14
  0
LINE
  5
EA
330
17
100
AcDbEntity
  8
0
100
AcDbLine
 10
-80.8525641025641
 20
280.0
 30
3.163733574912069e-14
 11
-85.3525641025641
 21
280.0
 31
-1.6452322734563843e-16
  0
LINE
  5
EB
330
17
100
AcDbEntity
  8
0
100
AcDbLine
 10
-76.4505595227787
 20
261.0
 30
4.144832625267251e-15
 11
-80.25713278491357
 21
261.0
 31
2.7533531010703882e-14
  0
LINE
  5
EC
330
17
100
AcDbEntity
  8
0
100
AcDbLine
 10
-80.25713278491357
 20
261.0
 30
2.7533531010703882e-14
 11
-80.25713278491358
 21
4.0
 31
-6.661338147750939e-16
  0
LINE
  5
ED
330
17
100
AcDbEntity
  8
0
100
AcDbLine
 10
-80.25713278491358
 20
4.0
 30
-6.661338147750939e-16
 11
-76.45055952277872
 21
4.0
 31
0.0
  0
LINE
  5
EE
330
17
100
AcDbEntity
  8
0
100
AcDbLine
 10
-76.45055952277872
 20
4.0
 30
0.0
 11
-76.4505595227787
 21
261.0
 31
4.144832625267251e-15
  0
LINE
  5
EF
330
17
100
AcDbEntity
  8
0
100
AcDbLine
 10
-80.2571327849136
 20
280.0
 30
-6.661338147750939e-16
 11
-80.25713278491357
 21
261.0
 31
2.7533531010703882e-14
  0
LINE
  5
F0
330
17
100
AcDbEntity
  8
0
100
AcDbLine
 10
-80.25713278491357
 20
261.0
 30
2.7533531010703882e-14
 11
-76.4505595227787
 21
261.0
 31
4.144832625267251e-15
  0
LINE
  5
F1
330
17
100
AcDbEntity
  8
0
100
AcDbLine
 10
-76.4505595227787
 20
261.0
 30
4.144832625267251e-15
 11
-76.4505595227787
 21
280.0
 31
2.220446049250313e-16
  0
LINE
  5
F2
330
17
100
AcDbEntity
  8
0
100
AcDbLine
 10
-76.4505595227787
 20
280.0
 30
2.220446049250313e-16
 11
-80.2571327849136
 21
280.0
 31
-6.661338147750939e-16
  0
LINE
  5
F3
330
17
100
AcDbEntity
  8
0
100
AcDbLine
 10
90.69671336893258
 20
261.0
 30
2.7274478971624678e-14
 11
94.50328663106744
 21
261.0
 31
3.9968028886505635e-15
  0
LINE
  5
F4
330
17
100
AcDbEntity
  8
0
100
AcDbLine
 10
94.50328663106744
 20
261.0
 30
3.9968028886505635e-15
 11
94.50328663106744
 21
280.0
 31
2.220446049250313e-16
  0
LINE
  5
F5
330
17
100
AcDbEntity
  8
0
100
AcDbLine
 10
94.50328663106744
 20
280.0
 30
2.220446049250313e-16
 11
90.69671336893255
 21
280.0
 31
-6.661338147750939e-16
  0
LINE
  5
F6
330
17
100
AcDbEntity
  8
0
100
AcDbLine
 10
90.69671336893255
 20
280.0
 30
-6.661338147750939e-16
 11
90.69671336893258
 21
261.0
 31
2.7274478971624678e-14
  0
LINE
  5
F7
330
17
100
AcDbEntity
  8
0
100
AcDbLine
 10
94.50328663106743
 20
8.0
 30
4.440892098500626e-16
 11
94.50328663106744
 21
261.0
 31
3.9968028886505635e-15
  0
LINE
  5
F8
330
17
100
AcDbEntity
  8
0
100
AcDbLine
 10
94.50328663106744
 20
261.0
 30
3.9968028886505635e-15
 11
90.69671336893258
 21
261.0
 31
2.7274478971624678e-14
  0
LINE
  5
F9
330
17
100
AcDbEntity
  8
0
100
AcDbLine
 10
90.69671336893258
 20
261.0
 30
2.7274478971624678e-14
 11
90.69671336893256
 21
8.0
 31
-2.220446049250313e-16
  0
LINE
  5
FA
330
17
100
AcDbEntity
  8
0
100
AcDbLine
 10
90.69671336893256
 20
8.0
 30
-2.220446049250313e-16
 11
94.50328663106743
 21
8.0
 31
4.440892098500626e-16
  0
LINE
  5
FB
330
17
100
AcDbEntity
  8
0
100
AcDbLine
 10
-71.3551282051282
 20
261.0
 30
2.9527912002332894e-14
 11
-75.8551282051282
 21
261.0
 31
1.2768234858638676e-14
  0
LINE
  5
FC
330
17
100
AcDbEntity
  8
0
100
AcDbLine
 10
-75.8551282051282
 20
261.0
 30
1.2768234858638676e-14
 11
-75.8551282051282
 21
8.0
 31
-3.8656783227067013e-16
  0
LINE
  5
FD
330
17
100
AcDbEntity
  8
0
100
AcDbLine
 10
-75.8551282051282
 20
8.0
 30
-3.8656783227067013e-16
 11
-71.3551282051282
 21
8.0
 31
1.4392694793164366e-15
  0
LINE
  5
FE
330
17
100
AcDbEntity
  8
0
100
AcDbLine
 10
-71.3551282051282
 20
8.0
 30
1.4392694793164366e-15
 11
-71.3551282051282
 21
261.0
 31
2.9527912002332894e-14
  0
LINE
  5
FF
330
17
100
AcDbEntity
  8
0
100
AcDbLine
 10
-75.8551282051282
 20
280.0
 30
-1.6452322734563843e-16
 11
-75.8551282051282
 21
261.0
 31
1.2768234858638676e-14
  0
LINE
  5
100
330
17
100
AcDbEntity
  8
0
100
AcDbLine
 10
-75.8551282051282
 20
261.0
 30
1.2768234858638676e-14
 11
-71.3551282051282
 21
261.0
 31
2.9527912002332894e-14
  0
LINE
  5
101
330
17
100
AcDbEntity
  8
0
100
AcDbLine
 10
-71.3551282051282
 20
261.0
 30
2.9527912002332894e-14
 11
-71.3551282051282
 21
280.0
 31
3.163733574912069e-14
  0
LINE
  5
102
330
17
100
AcDbEntity
  8
0
100
AcDbLine
 10
-71.3551282051282
 20
280.0
 30
3.163733574912069e-14
 11
-75.8551282051282
 21
280.0
 31
-1.6452322734563843e-16
  0
LINE
  5
103
330
17
100
AcDbEntity
  8
0
100
AcDbLine
 10
85.60128205128206
 20
261.0
 30
-3.5705473204282096e-15
 11
90.10128205128206
 21
261.0
 31
2.9527912002332894e-14
  0
LINE
  5
104
330
17
100
AcDbEntity
  8
0
100
AcDbLine
 10
90.10128205128206
 20
261.0
 30
2.9527912002332894e-14
 11
90.10128205128206
 21
280.0
 31
3.163733574912069e-14
  0
LINE
  5
105
330
17
100
AcDbEntity
  8
0
100
AcDbLine
 10
90.10128205128206
 20
280.0
 30
3.163733574912069e-14
 11
85.60128205128206
 21
280.0
 31
-1.6452322734563843e-16
  0
LINE
  5
106
330
17
100
AcDbEntity
  8
0
100
AcDbLine
 10
85.60128205128206
 20
280.0
 30
-1.6452322734563843e-16
 11
85.60128205128206
 21
261.0
 31
-3.5705473204282096e-15
  0
LINE
  5
107
330
17
100
AcDbEntity
  8
0
100
AcDbLine
 10
90.10128205128206
 20
4.0
 30
9.951802694663708e-16
 11
90.10128205128206
 21
261.0
 31
2.9527912002332894e-14
  0
LINE
  5
108
330
17
100
AcDbEntity
  8
0
100
AcDbLine
 10
90.10128205128206
 20
261.0
 30
2.9527912002332894e-14
 11
85.60128205128206
 21
261.0
 31
-3.5705473204282096e-15
  0
LINE
  5
109
330
17
100
AcDbEntity
  8
0
100
AcDbLine
 10
85.60128205128206
 20
261.0
 30
-3.5705473204282096e-15
 11
85.60128205128206
 21
4.0
 31
1.6854368004190814e-16
  0
LINE
  5
10A
330
17
100
AcDbEntity
  8
0
100
AcDbLine
 10
85.60128205128206
 20
4.0
 30
1.6854368004190814e-16
 11
90.10128205128206
 21
4.0
 31
9.951802694663708e-16
  0
LINE
  5
10B
330
17
100
AcDbEntity
  8
0
100
AcDbLine
 10
-66.9531236253428
 20
261.0
 30
4.218847493575595e-15
 11
-70.75969688747767
 21
261.0
 31
2.7607545879012225e-14
  0
LINE
  5
10C
330
17
100
AcDbEntity
  8
0
100
AcDbLine
 10
-70.75969688747767
 20
261.0
 30
2.7607545879012225e-14
 11
-70.75969688747767
 21
1.9999999999999998
 31
-2.220446049250313e-16
  0
LINE
  5
10D
330
17
100
AcDbEntity
  8
0
100
AcDbLine
 10
-70.75969688747767
 20
1.9999999999999998
 30
-2.220446049250313e-16
 11
-66.95312362534281
 21
1.9999999999999998
 31
-2.220446049250313e-16
  0
LINE
  5
10E
330
17
100
AcDbEntity
  8
0
100
AcDbLine
 10
-66.95312362534281
 20
1.9999999999999998
 30
-2.220446049250313e-16
 11
-66.9531236253428
 21
261.0
 31
4.218847493575595e-15
  0
LINE
  5
10F
330
17
100
AcDbEntity
  8
0
100
AcDbLine
 10
-70.75969688747769
 20
280.0
 30
-6.661338147750939e-16
 11
-70.75969688747767
 21
261.0
 31
2.7607545879012225e-14
  0
LINE
  5
110
330
17
100
AcDbEntity
  8
0
100
AcDbLine
 10
-70.75969688747767
 20
261.0
 30
2.7607545879012225e-14
 11
-66.9531236253428
 21
261.0
 31
4.218847493575595e-15
  0
LINE
  5
111
330
17
100
AcDbEntity
  8
0
100
AcDbLine
 10
-66.9531236253428
 20
261.0
 30
4.218847493575595e-15
 11
-66.9531236253428
 21
280.0
 31
2.220446049250313e-16
  0
LINE
  5
112
330
17
100
AcDbEntity
  8
0
100
AcDbLine
 10
-66.9531236253428
 20
280.0
 30
2.220446049250313e-16
 11
-70.75969688747769
 21
280.0
 31
-6.661338147750939e-16
  0
LINE
  5
113
330
17
100
AcDbEntity
  8
0
100
AcDbLine
 10
81.19927747149666
 20
261.0
 30
2.768156074732057e-14
 11
85.00585073363153
 21
261.0
 31
4.292862361883938e-15
  0
LINE
  5
114
330
17
100
AcDbEntity
  8
0
100
AcDbLine
 10
85.00585073363153
 20
261.0
 30
4.292862361883938e-15
 11
85.00585073363153
 21
280.0
 31
2.220446049250313e-16
  0
LINE
  5
115
330
17
100
AcDbEntity
  8
0
100
AcDbLine
 10
85.00585073363153
 20
280.0
 30
2.220446049250313e-16
 11
81.19927747149664
 21
280.0
 31
-6.661338147750939e-16
  0
LINE
  5
116
330
17
100
AcDbEntity
  8
0
100
AcDbLine
 10
81.19927747149664
 20
280.0
 30
-6.661338147750939e-16
 11
81.19927747149666
 21
261.0
 31
2.768156074732057e-14
  0
LINE
  5
117
330
17
100
AcDbEntity
  8
0
100
AcDbLine
 10
85.00585073363152
 20
-1.4791141972893971e-31
 30
1.3322676295501878e-15
 11
85.00585073363153
 21
261.0
 31
4.292862361883938e-15
  0
LINE
  5
118
330
17
100
AcDbEntity
  8
0
100
AcDbLine
 10
85.00585073363153
 20
261.0
 30
4.292862361883938e-15
 11
81.19927747149666
 21
261.0
 31
2.768156074732057e-14
  0
LINE
  5
119
330
17
100
AcDbEntity
  8
0
100
AcDbLine
 10
81.19927747149666
 20
261.0
 30
2.768156074732057e-14
 11
81.19927747149666
 21
4.930380657631324e-32
 31
-4.440892098500626e-16
  0
LINE
  5
11A
330
17
100
AcDbEntity
  8
0
100
AcDbLine
 10
81.19927747149666
 20
4.930380657631324e-32
 30
-4.440892098500626e-16
 11
85.00585073363152
 21
-1.4791141972893971e-31
 31
1.3322676295501878e-15
  0
LINE
  5
11B
330
17
100
AcDbEntity
  8
0
100
AcDbLine
 10
-61.857692307692304
 20
261.0
 30
2.9527912002332894e-14
 11
-66.3576923076923
 21
261.0
 31
1.3008783180640794e-14
  0
LINE
  5
11C
330
17
100
AcDbEntity
  8
0
100
AcDbLine
 10
-66.3576923076923
 20
261.0
 30
1.3008783180640794e-14
 11
-66.3576923076923
 21
6.0
 31
-6.086124371957014e-16
  0
LINE
  5
11D
330
17
100
AcDbEntity
  8
0
100
AcDbLine
 10
-66.3576923076923
 20
6.0
 30
-6.086124371957014e-16
 11
-61.857692307692304
 21
6.0
 31
1.217224874391402e-15
  0
LINE
  5
11E
330
17
100
AcDbEntity
  8
0
100
AcDbLine
 10
-61.857692307692304
 20
6.0
 30
1.217224874391402e-15
 11
-61.857692307692304
 21
261.0
 31
2.9527912002332894e-14
  0
LINE
  5
11F
330
17
100
AcDbEntity
  8
0
100
AcDbLine
 10
-66.3576923076923
 20
280.0
 30
-1.6452322734563843e-16
 11
-66.3576923076923
 21
261.0
 31
1.3008783180640794e-14
  0
LINE
  5
120
330
17
100
AcDbEntity
  8
0
100
AcDbLine
 10
-66.3576923076923
 20
261.0
 30
1.3008783180640794e-14
 11
-61.857692307692304
 21
261.0
 31
2.9527912002332894e-14
  0
LINE
  5
121
330
17
100
AcDbEntity
  8
0
100
AcDbLine
 10
-61.857692307692304
 20
261.0
 30
2.9527912002332894e-14
 11
-61.857692307692304
 21
280.0
 31
3.163733574912069e-14
  0
LINE
  5
122
330
17
100
AcDbEntity
  8
0
100
AcDbLine
 10
-61.857692307692304
 20
280.0
 30
3.163733574912069e-14
 11
-66.3576923076923
 21
280.0
 31
-1.6452322734563843e-16
  0
LINE
  5
123
330
17
100
AcDbEntity
  8
0
100
AcDbLine
 10
76.10384615384615
 20
261.0
 30
-3.644562188736553e-15
 11
80.60384615384615
 21
261.0
 31
2.9527912002332894e-14
  0
LINE
  5
124
330
17
100
AcDbEntity
  8
0
100
AcDbLine
 10
80.60384615384615
 20
261.0
 30
2.9527912002332894e-14
 11
80.60384615384615
 21
280.0
 31
3.163733574912069e-14
  0
LINE
  5
125
330
17
100
AcDbEntity
  8
0
100
AcDbLine
 10
80.60384615384615
 20
280.0
 30
3.163733574912069e-14
 11
76.10384615384615
 21
280.0
 31
-1.6452322734563843e-16
  0
LINE
  5
126
330
17
100
AcDbEntity
  8
0
100
AcDbLine
 10
76.10384615384615
 20
280.0
 30
-1.6452322734563843e-16
 11
76.10384615384615
 21
261.0
 31
-3.644562188736553e-15
  0
LINE
  5
127
330
17
100
AcDbEntity
  8
0
100
AcDbLine
 10
80.60384615384615
 20
6.0
 30
1.217224874391402e-15
 11
80.60384615384615
 21
261.0
 31
2.9527912002332894e-14
  0
LINE
  5
128
330
17
100
AcDbEntity
  8
0
100
AcDbLine
 10
80.60384615384615
 20
261.0
 30
2.9527912002332894e-14
 11
76.10384615384615
 21
261.0
 31
-3.644562188736553e-15
  0
LINE
  5
129
330
17
100
AcDbEntity
  8
0
100
AcDbLine
 10
76.10384615384615
 20
261.0
 30
-3.644562188736553e-15
 11
76.10384615384615
 21
6.0
 31
-6.086124371957014e-16
  0
LINE
  5
12A
330
17
100
AcDbEntity
  8
0
100
AcDbLine
 10
76.10384615384615
 20
6.0
 30
-6.086124371957014e-16
 11
80.60384615384615
 21
6.0
 31
1.217224874391402e-15
  0
LINE
  5
12B
330
17
100
AcDbEntity
  8
0
100
AcDbLine
 10
-57.45568772790691
 20
261.0
 30
4.810966440042345e-15
 11
-61.262260990041774
 21
261.0
 31
2.7274478971624678e-14
  0
LINE
  5
12C
330
17
100
AcDbEntity
  8
0
100
AcDbLine
 10
-61.262260990041774
 20
261.0
 30
2.7274478971624678e-14
 11
-61.26226099004179
 21
4.930380657631324e-32
 31
-4.440892098500626e-16
  0
LINE
  5
12D
330
17
100
AcDbEntity
  8
0
100
AcDbLine
 10
-61.26226099004179
 20
4.930380657631324e-32
 30
-4.440892098500626e-16
 11
-57.45568772790693
 21
-1.4791141972893971e-31
 31
1.3322676295501878e-15
  0
LINE
  5
12E
330
17
100
AcDbEntity
  8
0
100
AcDbLine
 10
-57.45568772790693
 20
-1.4791141972893971e-31
 30
1.3322676295501878e-15
 11
-57.45568772790691
 21
261.0
 31
4.810966440042345e-15
  0
LINE
  5
12F
330
17
100
AcDbEntity
  8
0
100
AcDbLine
 10
-61.2622609900418
 20
280.0
 30
-6.661338147750939e-16
 11
-61.262260990041774
 21
261.0
 31
2.7274478971624678e-14
  0
LINE
  5
130
330
17
100
AcDbEntity
  8
0
100
AcDbLine
 10
-61.262260990041774
 20
261.0
 30
2.7274478971624678e-14
 11
-57.45568772790691
 21
261.0
 31
4.810966440042345e-15
  0
LINE
  5
131
330
17
100
AcDbEntity
  8
0
100
AcDbLine
 10
-57.45568772790691
 20
261.0
 30
4.810966440042345e-15
 11
-57.45568772790691
 21
280.0
 31
2.220446049250313e-16
  0
LINE
  5
132
330
17
100
AcDbEntity
  8
0
100
AcDbLine
 10
-57.45568772790691
 20
280.0
 30
2.220446049250313e-16
 11
-61.2622609900418
 21
280.0
 31
-6.661338147750939e-16
  0
LINE
  5
133
330
17
100
AcDbEntity
  8
0
100
AcDbLine
 10
71.70184157406078
 20
261.0
 30
2.7607545879012225e-14
 11
75.50841483619566
 21
261.0
 31
4.218847493575595e-15
  0
LINE
  5
134
330
17
100
AcDbEntity
  8
0
100
AcDbLine
 10
75.50841483619566
 20
261.0
 30
4.218847493575595e-15
 11
75.50841483619566
 21
280.0
 31
2.220446049250313e-16
  0
LINE
  5
135
330
17
100
AcDbEntity
  8
0
100
AcDbLine
 10
75.50841483619566
 20
280.0
 30
2.220446049250313e-16
 11
71.70184157406077
 21
280.0
 31
-6.661338147750939e-16
  0
LINE
  5
136
330
17
100
AcDbEntity
  8
0
100
AcDbLine
 10
71.70184157406077
 20
280.0
 30
-6.661338147750939e-16
 11
71.70184157406078
 21
261.0
 31
2.7607545879012225e-14
  0
LINE
  5
137
330
17
100
AcDbEntity
  8
0
100
AcDbLine
 10
75.50841483619564
 20
1.9999999999999998
 30
-2.220446049250313e-16
 11
75.50841483619566
 21
261.0
 31
4.218847493575595e-15
  0
LINE
  5
138
330
17
100
AcDbEntity
  8
0
100
AcDbLine
 10
75.50841483619566
 20
261.0
 30
4.218847493575595e-15
 11
71.70184157406078
 21
261.0
 31
2.7607545879012225e-14
  0
LINE
  5
139
330
17
100
AcDbEntity
  8
0
100
AcDbLine
 10
71.70184157406078
 20
261.0
 30
2.7607545879012225e-14
 11
71.70184157406078
 21
1.9999999999999998
 31
-2.220446049250313e-16
  0
LINE
  5
13A
330
17
100
AcDbEntity
  8
0
100
AcDbLine
 10
71.70184157406078
 20
1.9999999999999998
 30
-2.220446049250313e-16
 11
75.50841483619564
 21
1.9999999999999998
 31
-2.220446049250313e-16
  0
LINE
  5
13B
330
17
100
AcDbEntity
  8
0
100
AcDbLine
 10
-52.360256410256405
 20
261.0
 30
2.9527912002332894e-14
 11
-56.860256410256405
 21
261.0
 31
1.3082798048949137e-14
  0
LINE
  5
13C
330
17
100
AcDbEntity
  8
0
100
AcDbLine
 10
-56.860256410256405
 20
261.0
 30
1.3082798048949137e-14
 11
-56.860256410256405
 21
4.0
 31
1.6854368004190814e-16
  0
LINE
  5
13D
330
17
100
AcDbEntity
  8
0
100
AcDbLine
 10
-56.860256410256405
 20
4.0
 30
1.6854368004190814e-16
 11
-52.360256410256405
 21
4.0
 31
9.951802694663708e-16
  0
LINE
  5
13E
330
17
100
AcDbEntity
  8
0
100
AcDbLine
 10
-52.360256410256405
 20
4.0
 30
9.951802694663708e-16
 11
-52.360256410256405
 21
261.0
 31
2.9527912002332894e-14
  0
LINE
  5
13F
330
17
100
AcDbEntity
  8
0
100
AcDbLine
 10
-56.860256410256405
 20
280.0
 30
-1.6452322734563843e-16
 11
-56.860256410256405
 21
261.0
 31
1.3082798048949137e-14
  0
LINE
  5
140
330
17
100
AcDbEntity
  8
0
100
AcDbLine
 10
-56.860256410256405
 20
261.0
 30
1.3082798048949137e-14
 11
-52.360256410256405
 21
261.0
 31
2.9527912002332894e-14
  0
LINE
  5
141
330
17
100
AcDbEntity
  8
0
100
AcDbLine
 10
-52.360256410256405
 20
261.0
 30
2.9527912002332894e-14
 11
-52.360256410256405
 21
280.0
 31
3.163733574912069e-14
  0
LINE
  5
142
330
17
100
AcDbEntity
  8
0
100
AcDbLine
 10
-52.360256410256405
 20
280.0
 30
3.163733574912069e-14
 11
-56.860256410256405
 21
280.0
 31
-1.6452322734563843e-16
  0
LINE
  5
143
330
17
100
AcDbEntity
  8
0
100
AcDbLine
 10
66.60641025641024
 20
261.0
 30
1.2768234858638676e-14
 11
71.10641025641024
 21
261.0
 31
2.9527912002332894e-14
  0
LINE
  5
144
330
17
100
AcDbEntity
  8
0
100
AcDbLine
 10
71.10641025641024
 20
261.0
 30
2.9527912002332894e-14
 11
71.10641025641024
 21
280.0
 31
3.163733574912069e-14
  0
LINE
  5
145
330
17
100
AcDbEntity
  8
0
100
AcDbLine
 10
71.10641025641024
 20
280.0
 30
3.163733574912069e-14
 11
66.60641025641024
 21
280.0
 31
-1.6452322734563843e-16
  0
LINE
  5
146
330
17
100
AcDbEntity
  8
0
100
AcDbLine
 10
66.60641025641024
 20
280.0
 30
-1.6452322734563843e-16
 11
66.60641025641024
 21
261.0
 31
1.2768234858638676e-14
  0
LINE
  5
147
330
17
100
AcDbEntity
  8
0
100
AcDbLine
 10
71.10641025641024
 20
8.0
 30
1.4392694793164334e-15
 11
71.10641025641024
 21
261.0
 31
2.9527912002332894e-14
  0
LINE
  5
148
330
17
100
AcDbEntity
  8
0
100
AcDbLine
 10
71.10641025641024
 20
261.0
 30
2.9527912002332894e-14
 11
66.60641025641024
 21
261.0
 31
1.2768234858638676e-14
  0
LINE
  5
149
330
17
100
AcDbEntity
  8
0
100
AcDbLine
 10
66.60641025641024
 20
261.0
 30
1.2768234858638676e-14
 11
66.60641025641024
 21
8.0
 31
-3.8656783227067013e-16
  0
LINE
  5
14A
330
17
100
AcDbEntity
  8
0
100
AcDbLine
 10
66.60641025641024
 20
8.0
 30
-3.8656783227067013e-16
 11
71.10641025641024
 21
8.0
 31
1.4392694793164334e-15
  0
LINE
  5
14B
330
17
100
AcDbEntity
  8
0
100
AcDbLine
 10
-47.95825183047102
 20
261.0
 30
4.810966440042345e-15
 11
-51.76482509260588
 21
261.0
 31
2.6867397195928788e-14
  0
LINE
  5
14C
330
17
100
AcDbEntity
  8
0
100
AcDbLine
 10
-51.76482509260588
 20
261.0
 30
2.6867397195928788e-14
 11
-51.76482509260589
 21
8.0
 31
-2.220446049250313e-16
  0
LINE
  5
14D
330
17
100
AcDbEntity
  8
0
100
AcDbLine
 10
-51.76482509260589
 20
8.0
 30
-2.220446049250313e-16
 11
-47.95825183047103
 21
8.0
 31
4.440892098500626e-16
  0
LINE
  5
14E
330
17
100
AcDbEntity
  8
0
100
AcDbLine
 10
-47.95825183047103
 20
8.0
 30
4.440892098500626e-16
 11
-47.95825183047102
 21
261.0
 31
4.810966440042345e-15
  0
LINE
  5
14F
330
17
100
AcDbEntity
  8
0
100
AcDbLine
 10
-51.7648250926059
 20
280.0
 30
-6.661338147750939e-16
 11
-51.76482509260588
 21
261.0
 31
2.6867397195928788e-14
  0
LINE
  5
150
330
17
100
AcDbEntity
  8
0
100
AcDbLine
 10
-51.76482509260588
 20
261.0
 30
2.6867397195928788e-14
 11
-47.95825183047102
 21
261.0
 31
4.810966440042345e-15
  0
LINE
  5
151
330
17
100
AcDbEntity
  8
0
100
AcDbLine
 10
-47.95825183047102
 20
261.0
 30
4.810966440042345e-15
 11
-47.95825183047101
 21
280.0
 31
2.220446049250313e-16
  0
LINE
  5
152
330
17
100
AcDbEntity
  8
0
100
AcDbLine
 10
-47.95825183047101
 20
280.0
 30
2.220446049250313e-16
 11
-51.7648250926059
 21
280.0
 31
-6.661338147750939e-16
  0
LINE
  5
153
330
17
100
AcDbEntity
  8
0
100
AcDbLine
 10
62.20440567662488
 20
261.0
 30
2.7533531010703882e-14
 11
66.01097893875975
 21
261.0
 31
4.144832625267251e-15
  0
LINE
  5
154
330
17
100
AcDbEntity
  8
0
100
AcDbLine
 10
66.01097893875975
 20
261.0
 30
4.144832625267251e-15
 11
66.01097893875975
 21
280.0
 31
2.220446049250313e-16
  0
LINE
  5
155
330
17
100
AcDbEntity
  8
0
100
AcDbLine
 10
66.01097893875975
 20
280.0
 30
2.220446049250313e-16
 11
62.20440567662486
 21
280.0
 31
-6.661338147750939e-16
  0
LINE
  5
156
330
17
100
AcDbEntity
  8
0
100
AcDbLine
 10
62.20440567662486
 20
280.0
 30
-6.661338147750939e-16
 11
62.20440567662488
 21
261.0
 31
2.7533531010703882e-14
  0
LINE
  5
157
330
17
100
AcDbEntity
  8
0
100
AcDbLine
 10
66.01097893875973
 20
4.0
 30
0.0
 11
66.01097893875975
 21
261.0
 31
4.144832625267251e-15
  0
LINE
  5
158
330
17
100
AcDbEntity
  8
0
100
AcDbLine
 10
66.01097893875975
 20
261.0
 30
4.144832625267251e-15
 11
62.20440567662488
 21
261.0
 31
2.7533531010703882e-14
  0
LINE
  5
159
330
17
100
AcDbEntity
  8
0
100
AcDbLine
 10
62.20440567662488
 20
261.0
 30
2.7533531010703882e-14
 11
62.20440567662487
 21
4.0
 31
-6.661338147750939e-16
  0
LINE
  5
15A
330
17
100
AcDbEntity
  8
0
100
AcDbLine
 10
62.20440567662487
 20
4.0
 30
-6.661338147750939e-16
 11
66.01097893875973
 21
4.0
 31
0.0
  0
LINE
  5
15B
330
17
100
AcDbEntity
  8
0
100
AcDbLine
 10
-42.862820512820505
 20
261.0
 30
2.9527912002332894e-14
 11
-47.3628205128205
 21
261.0
 31
-3.4965324521198657e-15
  0
LINE
  5
15C
330
17
100
AcDbEntity
  8
0
100
AcDbLine
 10
-47.3628205128205
 20
261.0
 30
-3.4965324521198657e-15
 11
-47.362820512820505
 21
2.0
 31
-5.350092488312317e-17
  0
LINE
  5
15D
330
17
100
AcDbEntity
  8
0
100
AcDbLine
 10
-47.362820512820505
 20
2.0
 30
-5.350092488312317e-17
 11
-42.862820512820505
 21
2.0
 31
7.731356645413411e-16
  0
LINE
  5
15E
330
17
100
AcDbEntity
  8
0
100
AcDbLine
 10
-42.862820512820505
 20
2.0
 30
7.731356645413411e-16
 11
-42.862820512820505
 21
261.0
 31
2.9527912002332894e-14
  0
LINE
  5
15F
330
17
100
AcDbEntity
  8
0
100
AcDbLine
 10
-47.362820512820505
 20
280.0
 30
-1.6452322734563843e-16
 11
-47.3628205128205
 21
261.0
 31
-3.4965324521198657e-15
  0
LINE
  5
160
330
17
100
AcDbEntity
  8
0
100
AcDbLine
 10
-47.3628205128205
 20
261.0
 30
-3.4965324521198657e-15
 11
-42.862820512820505
 21
261.0
 31
2.9527912002332894e-14
  0
LINE
  5
161
330
17
100
AcDbEntity
  8
0
100
AcDbLine
 10
-42.862820512820505
 20
261.0
 30
2.9527912002332894e-14
 11
-42.862820512820505
 21
280.0
 31
3.163733574912069e-14
  0
LINE
  5
162
330
17
100
AcDbEntity
  8
0
100
AcDbLine
 10
-42.862820512820505
 20
280.0
 30
3.163733574912069e-14
 11
-47.362820512820505
 21
280.0
 31
-1.6452322734563843e-16
  0
LINE
  5
163
330
17
100
AcDbEntity
  8
0
100
AcDbLine
 10
57.108974358974365
 20
261.0
 30
-3.422517583811522e-15
 11
61.608974358974365
 21
261.0
 31
2.9527912002332894e-14
  0
LINE
  5
164
330
17
100
AcDbEntity
  8
0
100
AcDbLine
 10
61.608974358974365
 20
261.0
 30
2.9527912002332894e-14
 11
61.608974358974365
 21
280.0
 31
3.163733574912069e-14
  0
LINE
  5
165
330
17
100
AcDbEntity
  8
0
100
AcDbLine
 10
61.608974358974365
 20
280.0
 30
3.163733574912069e-14
 11
57.108974358974365
 21
280.0
 31
-1.6452322734563843e-16
  0
LINE
  5
166
330
17
100
AcDbEntity
  8
0
100
AcDbLine
 10
57.108974358974365
 20
280.0
 30
-1.6452322734563843e-16
 11
57.108974358974365
 21
261.0
 31
-3.422517583811522e-15
  0
LINE
  5
167
330
17
100
AcDbEntity
  8
0
100
AcDbLine
 10
61.608974358974365
 20
-6.118339830511001e-32
 30
5.510910596163082e-16
 11
61.608974358974365
 21
261.0
 31
2.9527912002332894e-14
  0
LINE
  5
168
330
17
100
AcDbEntity
  8
0
100
AcDbLine
 10
61.608974358974365
 20
261.0
 30
2.9527912002332894e-14
 11
57.108974358974365
 21
261.0
 31
-3.422517583811522e-15
  0
LINE
  5
169
330
17
100
AcDbEntity
  8
0
100
AcDbLine
 10
57.108974358974365
 20
261.0
 30
-3.422517583811522e-15
 11
57.108974358974365
 21
3.059169915255505e-32
 31
-2.755455298081545e-16
  0
LINE
  5
16A
330
17
100
AcDbEntity
  8
0
100
AcDbLine
 10
57.108974358974365
 20
3.059169915255505e-32
 30
-2.755455298081545e-16
 11
61.608974358974365
 21
-6.118339830511001e-32
 31
5.510910596163082e-16
  0
LINE
  5
16B
330
17
100
AcDbEntity
  8
0
100
AcDbLine
 10
-38.46081593303513
 20
261.0
 30
4.884981308350689e-15
 11
-42.26738919516999
 21
261.0
 31
2.694141206423713e-14
  0
LINE
  5
16C
330
17
100
AcDbEntity
  8
0
100
AcDbLine
 10
-42.26738919516999
 20
261.0
 30
2.694141206423713e-14
 11
-42.26738919517
 21
6.0
 31
-4.440892098500626e-16
  0
LINE
  5
16D
330
17
100
AcDbEntity
  8
0
100
AcDbLine
 10
-42.26738919517
 20
6.0
 30
-4.440892098500626e-16
 11
-38.460815933035136
 21
6.0
 31
2.220446049250313e-16
  0
LINE
  5
16E
330
17
100
AcDbEntity
  8
0
100
AcDbLine
 10
-38.460815933035136
 20
6.0
 30
2.220446049250313e-16
 11
-38.46081593303513
 21
261.0
 31
4.884981308350689e-15
  0
LINE
  5
16F
330
17
100
AcDbEntity
  8
0
100
AcDbLine
 10
-42.26738919517001
 20
280.0
 30
-6.661338147750939e-16
 11
-42.26738919516999
 21
261.0
 31
2.694141206423713e-14
  0
LINE
  5
170
330
17
100
AcDbEntity
  8
0
100
AcDbLine
 10
-42.26738919516999
 20
261.0
 30
2.694141206423713e-14
 11
-38.46081593303513
 21
261.0
 31
4.884981308350689e-15
  0
LINE
  5
171
330
17
100
AcDbEntity
  8
0
100
AcDbLine
 10
-38.46081593303513
 20
261.0
 30
4.884981308350689e-15
 11
-38.46081593303512
 21
280.0
 31
2.220446049250313e-16
  0
LINE
  5
172
330
17
100
AcDbEntity
  8
0
100
AcDbLine
 10
-38.46081593303512
 20
280.0
 30
2.220446049250313e-16
 11
-42.26738919517001
 21
280.0
 31
-6.661338147750939e-16
  0
LINE
  5
173
330
17
100
AcDbEntity
  8
0
100
AcDbLine
 10
52.706969779188974
 20
261.0
 30
2.694141206423713e-14
 11
56.513543041323835
 21
261.0
 31
4.884981308350689e-15
  0
LINE
  5
174
330
17
100
AcDbEntity
  8
0
100
AcDbLine
 10
56.513543041323835
 20
261.0
 30
4.884981308350689e-15
 11
56.51354304132384
 21
280.0
 31
2.220446049250313e-16
  0
LINE
  5
175
330
17
100
AcDbEntity
  8
0
100
AcDbLine
 10
56.51354304132384
 20
280.0
 30
2.220446049250313e-16
 11
52.70696977918895
 21
280.0
 31
-6.661338147750939e-16
  0
LINE
  5
176
330
17
100
AcDbEntity
  8
0
100
AcDbLine
 10
52.70696977918895
 20
280.0
 30
-6.661338147750939e-16
 11
52.706969779188974
 21
261.0
 31
2.694141206423713e-14
  0
LINE
  5
177
330
17
100
AcDbEntity
  8
0
100
AcDbLine
 10
56.51354304132383
 20
6.0
 30
2.220446049250313e-16
 11
56.513543041323835
 21
261.0
 31
4.884981308350689e-15
  0
LINE
  5
178
330
17
100
AcDbEntity
  8
0
100
AcDbLine
 10
56.513543041323835
 20
261.0
 30
4.884981308350689e-15
 11
52.706969779188974
 21
261.0
 31
2.694141206423713e-14
  0
LINE
  5
179
330
17
100
AcDbEntity
  8
0
100
AcDbLine
 10
52.706969779188974
 20
261.0
 30
2.694141206423713e-14
 11
52.70696977918897
 21
6.0
 31
-4.440892098500626e-16
  0
LINE
  5
17A
330
17
100
AcDbEntity
  8
0
100
AcDbLine
 10
52.70696977918897
 20
6.0
 30
-4.440892098500626e-16
 11
56.51354304132383
 21
6.0
 31
2.220446049250313e-16
  0
LINE
  5
17B
330
17
100
AcDbEntity
  8
0
100
AcDbLine
 10
-33.36538461538462
 20
261.0
 30
2.9527912002332894e-14
 11
-37.86538461538462
 21
261.0
 31
-3.422517583811522e-15
  0
LINE
  5
17C
330
17
100
AcDbEntity
  8
0
100
AcDbLine
 10
-37.86538461538462
 20
261.0
 30
-3.422517583811522e-15
 11
-37.86538461538462
 21
3.059169915255505e-32
 31
-2.755455298081545e-16
  0
LINE
  5
17D
330
17
100
AcDbEntity
  8
0
100
AcDbLine
 10
-37.86538461538462
 20
3.059169915255505e-32
 30
-2.755455298081545e-16
 11
-33.36538461538462
 21
-6.118339830511001e-32
 31
5.510910596163082e-16
  0
LINE
  5
17E
330
17
100
AcDbEntity
  8
0
100
AcDbLine
 10
-33.36538461538462
 20
-6.118339830511001e-32
 30
5.510910596163082e-16
 11
-33.36538461538462
 21
261.0
 31
2.9527912002332894e-14
  0
LINE
  5
17F
330
17
100
AcDbEntity
  8
0
100
AcDbLine
 10
-37.86538461538462
 20
280.0
 30
-1.6452322734563843e-16
 11
-37.86538461538462
 21
261.0
 31
-3.422517583811522e-15
  0
LINE
  5
180
330
17
100
AcDbEntity
  8
0
100
AcDbLine
 10
-37.86538461538462
 20
261.0
 30
-3.422517583811522e-15
 11
-33.36538461538462
 21
261.0
 31
2.9527912002332894e-14
  0
LINE
  5
181
330
17
100
AcDbEntity
  8
0
100
AcDbLine
 10
-33.36538461538462
 20
261.0
 30
2.9527912002332894e-14
 11
-33.36538461538462
 21
280.0
 31
3.163733574912069e-14
  0
LINE
  5
182
330
17
100
AcDbEntity
  8
0
100
AcDbLine
 10
-33.36538461538462
 20
280.0
 30
3.163733574912069e-14
 11
-37.86538461538462
 21
280.0
 31
-1.6452322734563843e-16
  0
LINE
  5
183
330
17
100
AcDbEntity
  8
0
100
AcDbLine
 10
47.61153846153846
 20
261.0
 30
-3.4965324521198657e-15
 11
52.11153846153846
 21
261.0
 31
2.9527912002332894e-14
  0
LINE
  5
184
330
17
100
AcDbEntity
  8
0
100
AcDbLine
 10
52.11153846153846
 20
261.0
 30
2.9527912002332894e-14
 11
52.11153846153846
 21
280.0
 31
3.163733574912069e-14
  0
LINE
  5
185
330
17
100
AcDbEntity
  8
0
100
AcDbLine
 10
52.11153846153846
 20
280.0
 30
3.163733574912069e-14
 11
47.61153846153846
 21
280.0
 31
-1.6452322734563843e-16
  0
LINE
  5
186
330
17
100
AcDbEntity
  8
0
100
AcDbLine
 10
47.61153846153846
 20
280.0
 30
-1.6452322734563843e-16
 11
47.61153846153846
 21
261.0
 31
-3.4965324521198657e-15
  0
LINE
  5
187
330
17
100
AcDbEntity
  8
0
100
AcDbLine
 10
52.11153846153846
 20
2.0
 30
7.731356645413411e-16
 11
52.11153846153846
 21
261.0
 31
2.9527912002332894e-14
  0
LINE
  5
188
330
17
100
AcDbEntity
  8
0
100
AcDbLine
 10
52.11153846153846
 20
261.0
 30
2.9527912002332894e-14
 11
47.61153846153846
 21
261.0
 31
-3.4965324521198657e-15
  0
LINE
  5
189
330
17
100
AcDbEntity
  8
0
100
AcDbLine
 10
47.61153846153846
 20
261.0
 30
-3.4965324521198657e-15
 11
47.61153846153846
 21
2.0
 31
-5.350092488312317e-17
  0
LINE
  5
18A
330
17
100
AcDbEntity
  8
0
100
AcDbLine
 10
47.61153846153846
 20
2.0
 30
-5.350092488312317e-17
 11
52.11153846153846
 21
2.0
 31
7.731356645413411e-16
  0
LINE
  5
18B
330
17
100
AcDbEntity
  8
0
100
AcDbLine
 10
-28.963380035599226
 20
261.0
 30
5.255055649892408e-15
 11
-32.769953297734084
 21
261.0
 31
2.7015426932545477e-14
  0
LINE
  5
18C
330
17
100
AcDbEntity
  8
0
100
AcDbLine
 10
-32.769953297734084
 20
261.0
 30
2.7015426932545477e-14
 11
-32.76995329773409
 21
4.0
 31
-6.661338147750939e-16
  0
LINE
  5
18D
330
17
100
AcDbEntity
  8
0
100
AcDbLine
 10
-32.76995329773409
 20
4.0
 30
-6.661338147750939e-16
 11
-28.963380035599233
 21
4.0
 31
0.0
  0
LINE
  5
18E
330
17
100
AcDbEntity
  8
0
100
AcDbLine
 10
-28.963380035599233
 20
4.0
 30
0.0
 11
-28.963380035599226
 21
261.0
 31
5.255055649892408e-15
  0
LINE
  5
18F
330
17
100
AcDbEntity
  8
0
100
AcDbLine
 10
-32.769953297734105
 20
280.0
 30
-6.661338147750939e-16
 11
-32.769953297734084
 21
261.0
 31
2.7015426932545477e-14
  0
LINE
  5
190
330
17
100
AcDbEntity
  8
0
100
AcDbLine
 10
-32.769953297734084
 20
261.0
 30
2.7015426932545477e-14
 11
-28.963380035599226
 21
261.0
 31
5.255055649892408e-15
  0
LINE
  5
191
330
17
100
AcDbEntity
  8
0
100
AcDbLine
 10
-28.963380035599226
 20
261.0
 30
5.255055649892408e-15
 11
-28.96338003559921
 21
280.0
 31
2.220446049250313e-16
  0
LINE
  5
192
330
17
100
AcDbEntity
  8
0
100
AcDbLine
 10
-28.96338003559921
 20
280.0
 30
2.220446049250313e-16
 11
-32.769953297734105
 21
280.0
 31
-6.661338147750939e-16
  0
LINE
  5
193
330
17
100
AcDbEntity
  8
0
100
AcDbLine
 10
43.20953388175307
 20
261.0
 30
2.6867397195928788e-14
 11
47.01610714388793
 21
261.0
 31
4.810966440042345e-15
  0
LINE
  5
194
330
17
100
AcDbEntity
  8
0
100
AcDbLine
 10
47.01610714388793
 20
261.0
 30
4.810966440042345e-15
 11
47.016107143887936
 21
280.0
 31
2.220446049250313e-16
  0
LINE
  5
195
330
17
100
AcDbEntity
  8
0
100
AcDbLine
 10
47.016107143887936
 20
280.0
 30
2.220446049250313e-16
 11
43.209533881753046
 21
280.0
 31
-6.661338147750939e-16
  0
LINE
  5
196
330
17
100
AcDbEntity
  8
0
100
AcDbLine
 10
43.209533881753046
 20
280.0
 30
-6.661338147750939e-16
 11
43.20953388175307
 21
261.0
 31
2.6867397195928788e-14
  0
LINE
  5
197
330
17
100
AcDbEntity
  8
0
100
AcDbLine
 10
47.01610714388792
 20
8.0
 30
4.440892098500626e-16
 11
47.01610714388793
 21
261.0
 31
4.810966440042345e-15
  0
LINE
  5
198
330
17
100
AcDbEntity
  8
0
100
AcDbLine
 10
47.01610714388793
 20
261.0
 30
4.810966440042345e-15
 11
43.20953388175307
 21
261.0
 31
2.6867397195928788e-14
  0
LINE
  5
199
330
17
100
AcDbEntity
  8
0
100
AcDbLine
 10
43.20953388175307
 20
261.0
 30
2.6867397195928788e-14
 11
43.20953388175306
 21
8.0
 31
-2.220446049250313e-16
  0
LINE
  5
19A
330
17
100
AcDbEntity
  8
0
100
AcDbLine
 10
43.20953388175306
 20
8.0
 30
-2.220446049250313e-16
 11
47.01610714388792
 21
8.0
 31
4.440892098500626e-16
  0
LINE
  5
19B
330
17
100
AcDbEntity
  8
0
100
AcDbLine
 10
-23.86794871794872
 20
261.0
 30
2.9527912002332894e-14
 11
-28.36794871794872
 21
261.0
 31
-3.885110510738671e-15
  0
LINE
  5
19C
330
17
100
AcDbEntity
  8
0
100
AcDbLine
 10
-28.36794871794872
 20
261.0
 30
-3.885110510738671e-15
 11
-28.36794871794872
 21
8.0
 31
-3.8656783227067013e-16
  0
LINE
  5
19D
330
17
100
AcDbEntity
  8
0
100
AcDbLine
 10
-28.36794871794872
 20
8.0
 30
-3.8656783227067013e-16
 11
-23.86794871794872
 21
8.0
 31
1.4392694793164342e-15
  0
LINE
  5
19E
330
17
100
AcDbEntity
  8
0
100
AcDbLine
 10
-23.86794871794872
 20
8.0
 30
1.4392694793164342e-15
 11
-23.86794871794872
 21
261.0
 31
2.9527912002332894e-14
  0
LINE
  5
19F
330
17
100
AcDbEntity
  8
0
100
AcDbLine
 10
-28.36794871794872
 20
280.0
 30
-1.6452322734563843e-16
 11
-28.36794871794872
 21
261.0
 31
-3.885110510738671e-15
  0
LINE
  5
1A0
330
17
100
AcDbEntity
  8
0
100
AcDbLine
 10
-28.36794871794872
 20
261.0
 30
-3.885110510738671e-15
 11
-23.86794871794872
 21
261.0
 31
2.9527912002332894e-14
  0
LINE
  5
1A1
330
17
100
AcDbEntity
  8
0
100
AcDbLine
 10
-23.86794871794872
 20
261.0
 30
2.9527912002332894e-14
 11
-23.86794871794872
 21
280.0
 31
3.163733574912069e-14
  0
LINE
  5
1A2
330
17
100
AcDbEntity
  8
0
100
AcDbLine
 10
-23.86794871794872
 20
280.0
 30
3.163733574912069e-14
 11
-28.36794871794872
 21
280.0
 31
-1.6452322734563843e-16
  0
LINE
  5
1A3
330
17
100
AcDbEntity
  8
0
100
AcDbLine
 10
38.11410256410255
 20
261.0
 30
1.3082798048949137e-14
 11
42.61410256410255
 21
261.0
 31
2.9527912002332894e-14
  0
LINE
  5
1A4
330
17
100
AcDbEntity
  8
0
100
AcDbLine
 10
42.61410256410255
 20
261.0
 30
2.9527912002332894e-14
 11
42.61410256410255
 21
280.0
 31
3.163733574912069e-14
  0
LINE
  5
1A5
330
17
100
AcDbEntity
  8
0
100
AcDbLine
 10
42.61410256410255
 20
280.0
 30
3.163733574912069e-14
 11
38.11410256410255
 21
280.0
 31
-1.6452322734563843e-16
  0
LINE
  5
1A6
330
17
100
AcDbEntity
  8
0
100
AcDbLine
 10
38.11410256410255
 20
280.0
 30
-1.6452322734563843e-16
 11
38.11410256410255
 21
261.0
 31
1.3082798048949137e-14
  0
LINE
  5
1A7
330
17
100
AcDbEntity
  8
0
100
AcDbLine
 10
42.61410256410255
 20
4.0
 30
9.951802694663708e-16
 11
42.61410256410255
 21
261.0
 31
2.9527912002332894e-14
  0
LINE
  5
1A8
330
17
100
AcDbEntity
  8
0
100
AcDbLine
 10
42.61410256410255
 20
261.0
 30
2.9527912002332894e-14
 11
38.11410256410255
 21
261.0
 31
1.3082798048949137e-14
  0
LINE
  5
1A9
330
17
100
AcDbEntity
  8
0
100
AcDbLine
 10
38.11410256410255
 20
261.0
 30
1.3082798048949137e-14
 11
38.11410256410255
 21
4.0
 31
1.6854368004190814e-16
  0
LINE
  5
1AA
330
17
100
AcDbEntity
  8
0
100
AcDbLine
 10
38.11410256410255
 20
4.0
 30
1.6854368004190814e-16
 11
42.61410256410255
 21
4.0
 31
9.951802694663708e-16
  0
LINE
  5
1AB
330
17
100
AcDbEntity
  8
0
100
AcDbLine
 10
-19.46594413816333
 20
261.0
 30
4.736951571734001e-15
 11
-23.272517400298188
 21
261.0
 31
2.7200464103316335e-14
  0
LINE
  5
1AC
330
17
100
AcDbEntity
  8
0
100
AcDbLine
 10
-23.272517400298188
 20
261.0
 30
2.7200464103316335e-14
 11
-23.272517400298195
 21
1.9999999999999998
 31
-2.220446049250313e-16
  0
LINE
  5
1AD
330
17
100
AcDbEntity
  8
0
100
AcDbLine
 10
-23.272517400298195
 20
1.9999999999999998
 30
-2.220446049250313e-16
 11
-19.46594413816334
 21
1.9999999999999998
 31
-2.220446049250313e-16
  0
LINE
  5
1AE
330
17
100
AcDbEntity
  8
0
100
AcDbLine
 10
-19.46594413816334
 20
1.9999999999999998
 30
-2.220446049250313e-16
 11
-19.46594413816333
 21
261.0
 31
4.736951571734001e-15
  0
LINE
  5
1AF
330
17
100
AcDbEntity
  8
0
100
AcDbLine
 10
-23.272517400298216
 20
280.0
 30
-6.661338147750939e-16
 11
-23.272517400298188
 21
261.0
 31
2.7200464103316335e-14
  0
LINE
  5
1B0
330
17
100
AcDbEntity
  8
0
100
AcDbLine
 10
-23.272517400298188
 20
261.0
 30
2.7200464103316335e-14
 11
-19.46594413816333
 21
261.0
 31
4.736951571734001e-15
  0
LINE
  5
1B1
330
17
100
AcDbEntity
  8
0
100
AcDbLine
 10
-19.46594413816333
 20
261.0
 30
4.736951571734001e-15
 11
-19.46594413816332
 21
280.0
 31
2.220446049250313e-16
  0
LINE
  5
1B2
330
17
100
AcDbEntity
  8
0
100
AcDbLine
 10
-19.46594413816332
 20
280.0
 30
2.220446049250313e-16
 11
-23.272517400298216
 21
280.0
 31
-6.661338147750939e-16
  0
LINE
  5
1B3
330
17
100
AcDbEntity
  8
0
100
AcDbLine
 10
33.71209798431719
 20
261.0
 30
2.7274478971624678e-14
 11
37.51867124645205
 21
261.0
 31
4.810966440042345e-15
  0
LINE
  5
1B4
330
17
100
AcDbEntity
  8
0
100
AcDbLine
 10
37.51867124645205
 20
261.0
 30
4.810966440042345e-15
 11
37.51867124645206
 21
280.0
 31
2.220446049250313e-16
  0
LINE
  5
1B5
330
17
100
AcDbEntity
  8
0
100
AcDbLine
 10
37.51867124645206
 20
280.0
 30
2.220446049250313e-16
 11
33.71209798431717
 21
280.0
 31
-6.661338147750939e-16
  0
LINE
  5
1B6
330
17
100
AcDbEntity
  8
0
100
AcDbLine
 10
33.71209798431717
 20
280.0
 30
-6.661338147750939e-16
 11
33.71209798431719
 21
261.0
 31
2.7274478971624678e-14
  0
LINE
  5
1B7
330
17
100
AcDbEntity
  8
0
100
AcDbLine
 10
37.518671246452044
 20
-1.4791141972893971e-31
 30
1.3322676295501878e-15
 11
37.51867124645205
 21
261.0
 31
4.810966440042345e-15
  0
LINE
  5
1B8
330
17
100
AcDbEntity
  8
0
100
AcDbLine
 10
37.51867124645205
 20
261.0
 30
4.810966440042345e-15
 11
33.71209798431719
 21
261.0
 31
2.7274478971624678e-14
  0
LINE
  5
1B9
330
17
100
AcDbEntity
  8
0
100
AcDbLine
 10
33.71209798431719
 20
261.0
 30
2.7274478971624678e-14
 11
33.71209798431718
 21
4.930380657631324e-32
 31
-4.440892098500626e-16
  0
LINE
  5
1BA
330
17
100
AcDbEntity
  8
0
100
AcDbLine
 10
33.71209798431718
 20
4.930380657631324e-32
 30
-4.440892098500626e-16
 11
37.518671246452044
 21
-1.4791141972893971e-31
 31
1.3322676295501878e-15
  0
LINE
  5
1BB
330
17
100
AcDbEntity
  8
0
100
AcDbLine
 10
-14.370512820512815
 20
261.0
 30
2.9527912002332894e-14
 11
-18.870512820512815
 21
261.0
 31
1.3008783180640794e-14
  0
LINE
  5
1BC
330
17
100
AcDbEntity
  8
0
100
AcDbLine
 10
-18.870512820512815
 20
261.0
 30
1.3008783180640794e-14
 11
-18.870512820512815
 21
6.0
 31
-6.086124371957014e-16
  0
LINE
  5
1BD
330
17
100
AcDbEntity
  8
0
100
AcDbLine
 10
-18.870512820512815
 20
6.0
 30
-6.086124371957014e-16
 11
-14.370512820512815
 21
6.0
 31
1.2172248743914025e-15
  0
LINE
  5
1BE
330
17
100
AcDbEntity
  8
0
100
AcDbLine
 10
-14.370512820512815
 20
6.0
 30
1.2172248743914025e-15
 11
-14.370512820512815
 21
261.0
 31
2.9527912002332894e-14
  0
LINE
  5
1BF
330
17
100
AcDbEntity
  8
0
100
AcDbLine
 10
-18.870512820512815
 20
280.0
 30
-1.6452322734563843e-16
 11
-18.870512820512815
 21
261.0
 31
1.3008783180640794e-14
  0
LINE
  5
1C0
330
17
100
AcDbEntity
  8
0
100
AcDbLine
 10
-18.870512820512815
 20
261.0
 30
1.3008783180640794e-14
 11
-14.370512820512815
 21
261.0
 31
2.9527912002332894e-14
  0
LINE
  5
1C1
330
17
100
AcDbEntity
  8
0
100
AcDbLine
 10
-14.370512820512815
 20
261.0
 30
2.9527912002332894e-14
 11
-14.370512820512815
 21
280.0
 31
3.163733574912069e-14
  0
LINE
  5
1C2
330
17
100
AcDbEntity
  8
0
100
AcDbLine
 10
-14.370512820512815
 20
280.0
 30
3.163733574912069e-14
 11
-18.870512820512815
 21
280.0
 31
-1.6452322734563843e-16
  0
LINE
  5
1C3
330
17
100
AcDbEntity
  8
0
100
AcDbLine
 10
28.616666666666674
 20
261.0
 30
1.3008783180640794e-14
 11
33.116666666666674
 21
261.0
 31
2.9527912002332894e-14
  0
LINE
  5
1C4
330
17
100
AcDbEntity
  8
0
100
AcDbLine
 10
33.116666666666674
 20
261.0
 30
2.9527912002332894e-14
 11
33.116666666666674
 21
280.0
 31
3.163733574912069e-14
  0
LINE
  5
1C5
330
17
100
AcDbEntity
  8
0
100
AcDbLine
 10
33.116666666666674
 20
280.0
 30
3.163733574912069e-14
 11
28.616666666666674
 21
280.0
 31
-1.6452322734563843e-16
  0
LINE
  5
1C6
330
17
100
AcDbEntity
  8
0
100
AcDbLine
 10
28.616666666666674
 20
280.0
 30
-1.6452322734563843e-16
 11
28.616666666666674
 21
261.0
 31
1.3008783180640794e-14
  0
LINE
  5
1C7
330
17
100
AcDbEntity
  8
0
100
AcDbLine
 10
33.116666666666674
 20
6.0
 30
1.2172248743914037e-15
 11
33.116666666666674
 21
261.0
 31
2.9527912002332894e-14
  0
LINE
  5
1C8
330
17
100
AcDbEntity
  8
0
100
AcDbLine
 10
33.116666666666674
 20
261.0
 30
2.9527912002332894e-14
 11
28.616666666666674
 21
261.0
 31
1.3008783180640794e-14
  0
LINE
  5
1C9
330
17
100
AcDbEntity
  8
0
100
AcDbLine
 10
28.616666666666674
 20
261.0
 30
1.3008783180640794e-14
 11
28.616666666666674
 21
6.0
 31
-6.086124371957014e-16
  0
LINE
  5
1CA
330
17
100
AcDbEntity
  8
0
100
AcDbLine
 10
28.616666666666674
 20
6.0
 30
-6.086124371957014e-16
 11
33.116666666666674
 21
6.0
 31
1.2172248743914037e-15
  0
LINE
  5
1CB
330
17
100
AcDbEntity
  8
0
100
AcDbLine
 10
-9.968508240727438
 20
261.0
 30
5.10702591327572e-15
 11
-13.775081502862298
 21
261.0
 31
2.7570538444858055e-14
  0
LINE
  5
1CC
330
17
100
AcDbEntity
  8
0
100
AcDbLine
 10
-13.775081502862298
 20
261.0
 30
2.7570538444858055e-14
 11
-13.775081502862305
 21
4.930380657631324e-32
 31
-4.440892098500626e-16
  0
LINE
  5
1CD
330
17
100
AcDbEntity
  8
0
100
AcDbLine
 10
-13.775081502862305
 20
4.930380657631324e-32
 30
-4.440892098500626e-16
 11
-9.968508240727449
 21
-1.4791141972893971e-31
 31
1.3322676295501878e-15
  0
LINE
  5
1CE
330
17
100
AcDbEntity
  8
0
100
AcDbLine
 10
-9.968508240727449
 20
-1.4791141972893971e-31
 30
1.3322676295501878e-15
 11
-9.968508240727438
 21
261.0
 31
5.10702591327572e-15
  0
LINE
  5
1CF
330
17
100
AcDbEntity
  8
0
100
AcDbLine
 10
-13.775081502862324
 20
280.0
 30
-6.661338147750939e-16
 11
-13.775081502862298
 21
261.0
 31
2.7570538444858055e-14
  0
LINE
  5
1D0
330
17
100
AcDbEntity
  8
0
100
AcDbLine
 10
-13.775081502862298
 20
261.0
 30
2.7570538444858055e-14
 11
-9.968508240727438
 21
261.0
 31
5.10702591327572e-15
  0
LINE
  5
1D1
330
17
100
AcDbEntity
  8
0
100
AcDbLine
 10
-9.968508240727438
 20
261.0
 30
5.10702591327572e-15
 11
-9.968508240727427
 21
280.0
 31
2.220446049250313e-16
  0
LINE
  5
1D2
330
17
100
AcDbEntity
  8
0
100
AcDbLine
 10
-9.968508240727427
 20
280.0
 30
2.220446049250313e-16
 11
-13.775081502862324
 21
280.0
 31
-6.661338147750939e-16
  0
LINE
  5
1D3
330
17
100
AcDbEntity
  8
0
100
AcDbLine
 10
24.2146620868813
 20
261.0
 30
2.7200464103316335e-14
 11
28.021235349016155
 21
261.0
 31
4.736951571734001e-15
  0
LINE
  5
1D4
330
17
100
AcDbEntity
  8
0
100
AcDbLine
 10
28.021235349016155
 20
261.0
 30
4.736951571734001e-15
 11
28.02123534901617
 21
280.0
 31
2.220446049250313e-16
  0
LINE
  5
1D5
330
17
100
AcDbEntity
  8
0
100
AcDbLine
 10
28.02123534901617
 20
280.0
 30
2.220446049250313e-16
 11
24.214662086881273
 21
280.0
 31
-6.661338147750939e-16
  0
LINE
  5
1D6
330
17
100
AcDbEntity
  8
0
100
AcDbLine
 10
24.214662086881273
 20
280.0
 30
-6.661338147750939e-16
 11
24.2146620868813
 21
261.0
 31
2.7200464103316335e-14
  0
LINE
  5
1D7
330
17
100
AcDbEntity
  8
0
100
AcDbLine
 10
28.02123534901615
 20
1.9999999999999998
 30
-2.220446049250313e-16
 11
28.021235349016155
 21
261.0
 31
4.736951571734001e-15
  0
LINE
  5
1D8
330
17
100
AcDbEntity
  8
0
100
AcDbLine
 10
28.021235349016155
 20
261.0
 30
4.736951571734001e-15
 11
24.2146620868813
 21
261.0
 31
2.7200464103316335e-14
  0
LINE
  5
1D9
330
17
100
AcDbEntity
  8
0
100
AcDbLine
 10
24.2146620868813
 20
261.0
 30
2.7200464103316335e-14
 11
24.214662086881294
 21
1.9999999999999998
 31
-2.220446049250313e-16
  0
LINE
  5
1DA
330
17
100
AcDbEntity
  8
0
100
AcDbLine
 10
24.214662086881294
 20
1.9999999999999998
 30
-2.220446049250313e-16
 11
28.02123534901615
 21
1.9999999999999998
 31
-2.220446049250313e-16
  0
LINE
  5
1DB
330
17
100
AcDbEntity
  8
0
100
AcDbLine
 10
-4.873076923076923
 20
261.0
 30
2.9527912002332894e-14
 11
-9.373076923076923
 21
261.0
 31
1.3082798048949137e-14
  0
LINE
  5
1DC
330
17
100
AcDbEntity
  8
0
100
AcDbLine
 10
-9.373076923076923
 20
261.0
 30
1.3082798048949137e-14
 11
-9.373076923076923
 21
4.0
 31
1.6854368004190814e-16
  0
LINE
  5
1DD
330
17
100
AcDbEntity
  8
0
100
AcDbLine
 10
-9.373076923076923
 20
4.0
 30
1.6854368004190814e-16
 11
-4.873076923076923
 21
4.0
 31
9.951802694663716e-16
  0
LINE
  5
1DE
330
17
100
AcDbEntity
  8
0
100
AcDbLine
 10
-4.873076923076923
 20
4.0
 30
9.951802694663716e-16
 11
-4.873076923076923
 21
261.0
 31
2.9527912002332894e-14
  0
LINE
  5
1DF
330
17
100
AcDbEntity
  8
0
100
AcDbLine
 10
-9.373076923076923
 20
280.0
 30
-1.6452322734563843e-16
 11
-9.373076923076923
 21
261.0
 31
1.3082798048949137e-14
  0
LINE
  5
1E0
330
17
100
AcDbEntity
  8
0
100
AcDbLine
 10
-9.373076923076923
 20
261.0
 30
1.3082798048949137e-14
 11
-4.873076923076923
 21
261.0
 31
2.9527912002332894e-14
  0
LINE
  5
1E1
330
17
100
AcDbEntity
  8
0
100
AcDbLine
 10
-4.873076923076923
 20
261.0
 30
2.9527912002332894e-14
 11
-4.873076923076923
 21
280.0
 31
3.163733574912069e-14
  0
LINE
  5
1E2
330
17
100
AcDbEntity
  8
0
100
AcDbLine
 10
-4.873076923076923
 20
280.0
 30
3.163733574912069e-14
 11
-9.373076923076923
 21
280.0
 31
-1.6452322734563843e-16
  0
LINE
  5
1E3
330
17
100
AcDbEntity
  8
0
100
AcDbLine
 10
19.119230769230754
 20
261.0
 30
-3.885110510738671e-15
 11
23.619230769230754
 21
261.0
 31
2.9527912002332894e-14
  0
LINE
  5
1E4
330
17
100
AcDbEntity
  8
0
100
AcDbLine
 10
23.619230769230754
 20
261.0
 30
2.9527912002332894e-14
 11
23.619230769230754
 21
280.0
 31
3.163733574912069e-14
  0
LINE
  5
1E5
330
17
100
AcDbEntity
  8
0
100
AcDbLine
 10
23.619230769230754
 20
280.0
 30
3.163733574912069e-14
 11
19.119230769230754
 21
280.0
 31
-1.6452322734563843e-16
  0
LINE
  5
1E6
330
17
100
AcDbEntity
  8
0
100
AcDbLine
 10
19.119230769230754
 20
280.0
 30
-1.6452322734563843e-16
 11
19.119230769230754
 21
261.0
 31
-3.885110510738671e-15
  0
LINE
  5
1E7
330
17
100
AcDbEntity
  8
0
100
AcDbLine
 10
23.619230769230754
 20
8.0
 30
1.4392694793164342e-15
 11
23.619230769230754
 21
261.0
 31
2.9527912002332894e-14
  0
LINE
  5
1E8
330
17
100
AcDbEntity
  8
0
100
AcDbLine
 10
23.619230769230754
 20
261.0
 30
2.9527912002332894e-14
 11
19.119230769230754
 21
261.0
 31
-3.885110510738671e-15
  0
LINE
  5
1E9
330
17
100
AcDbEntity
  8
0
100
AcDbLine
 10
19.119230769230754
 20
261.0
 30
-3.885110510738671e-15
 11
19.119230769230754
 21
8.0
 31
-3.8656783227067013e-16
  0
LINE
  5
1EA
330
17
100
AcDbEntity
  8
0
100
AcDbLine
 10
19.119230769230754
 20
8.0
 30
-3.8656783227067013e-16
 11
23.619230769230754
 21
8.0
 31
1.4392694793164342e-15
  0
LINE
  5
1EB
330
17
100
AcDbEntity
  8
0
100
AcDbLine
 10
-0.47107234329153114
 20
261.0
 30
4.51490696680897e-15
 11
-4.2776456054263905
 21
261.0
 31
2.6978419498391304e-14
  0
LINE
  5
1EC
330
17
100
AcDbEntity
  8
0
100
AcDbLine
 10
-4.2776456054263905
 20
261.0
 30
2.6978419498391304e-14
 11
-4.2776456054263985
 21
8.0
 31
-2.220446049250313e-16
  0
LINE
  5
1ED
330
17
100
AcDbEntity
  8
0
100
AcDbLine
 10
-4.2776456054263985
 20
8.0
 30
-2.220446049250313e-16
 11
-0.47107234329154113
 21
8.0
 31
4.440892098500626e-16
  0
LINE
  5
1EE
330
17
100
AcDbEntity
  8
0
100
AcDbLine
 10
-0.47107234329154113
 20
8.0
 30
4.440892098500626e-16
 11
-0.47107234329153114
 21
261.0
 31
4.51490696680897e-15
  0
LINE
  5
1EF
330
17
100
AcDbEntity
  8
0
100
AcDbLine
 10
-4.277645605426418
 20
280.0
 30
-6.661338147750939e-16
 11
-4.2776456054263905
 21
261.0
 31
2.6978419498391304e-14
  0
LINE
  5
1F0
330
17
100
AcDbEntity
  8
0
100
AcDbLine
 10
-4.2776456054263905
 20
261.0
 30
2.6978419498391304e-14
 11
-0.47107234329153114
 21
261.0
 31
4.51490696680897e-15
  0
LINE
  5
1F1
330
17
100
AcDbEntity
  8
0
100
AcDbLine
 10
-0.47107234329153114
 20
261.0
 30
4.51490696680897e-15
 11
-0.4710723432915218
 21
280.0
 31
2.220446049250313e-16
  0
LINE
  5
1F2
330
17
100
AcDbEntity
  8
0
100
AcDbLine
 10
-0.4710723432915218
 20
280.0
 30
2.220446049250313e-16
 11
-4.277645605426418
 21
280.0
 31
-6.661338147750939e-16
  0
LINE
  5
1F3
330
17
100
AcDbEntity
  8
0
100
AcDbLine
 10
14.717226189445393
 20
261.0
 30
2.7015426932545477e-14
 11
18.523799451580253
 21
261.0
 31
4.6629367034256575e-15
  0
LINE
  5
1F4
330
17
100
AcDbEntity
  8
0
100
AcDbLine
 10
18.523799451580253
 20
261.0
 30
4.6629367034256575e-15
 11
18.523799451580263
 21
280.0
 31
2.220446049250313e-16
  0
LINE
  5
1F5
330
17
100
AcDbEntity
  8
0
100
AcDbLine
 10
18.523799451580263
 20
280.0
 30
2.220446049250313e-16
 11
14.717226189445366
 21
280.0
 31
-6.661338147750939e-16
  0
LINE
  5
1F6
330
17
100
AcDbEntity
  8
0
100
AcDbLine
 10
14.717226189445366
 20
280.0
 30
-6.661338147750939e-16
 11
14.717226189445393
 21
261.0
 31
2.7015426932545477e-14
  0
LINE
  5
1F7
330
17
100
AcDbEntity
  8
0
100
AcDbLine
 10
18.523799451580242
 20
4.0
 30
0.0
 11
18.523799451580253
 21
261.0
 31
4.6629367034256575e-15
  0
LINE
  5
1F8
330
17
100
AcDbEntity
  8
0
100
AcDbLine
 10
18.523799451580253
 20
261.0
 30
4.6629367034256575e-15
 11
14.717226189445393
 21
261.0
 31
2.7015426932545477e-14
  0
LINE
  5
1F9
330
17
100
AcDbEntity
  8
0
100
AcDbLine
 10
14.717226189445393
 20
261.0
 30
2.7015426932545477e-14
 11
14.717226189445386
 21
4.0
 31
-6.661338147750939e-16
  0
LINE
  5
1FA
330
17
100
AcDbEntity
  8
0
100
AcDbLine
 10
14.717226189445386
 20
4.0
 30
-6.661338147750939e-16
 11
18.523799451580242
 21
4.0
 31
0.0
  0
LINE
  5
1FB
330
17
100
AcDbEntity
  8
0
100
AcDbLine
 10
4.624358974358984
 20
261.0
 30
2.9527912002332894e-14
 11
0.12435897435898369
 21
261.0
 31
1.3156812917257481e-14
  0
LINE
  5
1FC
330
17
100
AcDbEntity
  8
0
100
AcDbLine
 10
0.12435897435898369
 20
261.0
 30
1.3156812917257481e-14
 11
0.12435897435898369
 21
2.0
 31
-5.350092488312317e-17
  0
LINE
  5
1FD
330
17
100
AcDbEntity
  8
0
100
AcDbLine
 10
0.12435897435898369
 20
2.0
 30
-5.350092488312317e-17
 11
4.624358974358984
 21
2.0
 31
7.731356645413402e-16
  0
LINE
  5
1FE
330
17
100
AcDbEntity
  8
0
100
AcDbLine
 10
4.624358974358984
 20
2.0
 30
7.731356645413402e-16
 11
4.624358974358984
 21
261.0
 31
2.9527912002332894e-14
  0
LINE
  5
1FF
330
17
100
AcDbEntity
  8
0
100
AcDbLine
 10
0.12435897435898369
 20
280.0
 30
-1.6452322734563843e-16
 11
0.12435897435898369
 21
261.0
 31
1.3156812917257481e-14
  0
LINE
  5
200
330
17
100
AcDbEntity
  8
0
100
AcDbLine
 10
0.12435897435898369
 20
261.0
 30
1.3156812917257481e-14
 11
4.624358974358984
 21
261.0
 31
2.9527912002332894e-14
  0
LINE
  5
201
330
17
100
AcDbEntity
  8
0
100
AcDbLine
 10
4.624358974358984
 20
261.0
 30
2.9527912002332894e-14
 11
4.624358974358984
 21
280.0
 31
3.163733574912069e-14
  0
LINE
  5
202
330
17
100
AcDbEntity
  8
0
100
AcDbLine
 10
4.624358974358984
 20
280.0
 30
3.163733574912069e-14
 11
0.12435897435898369
 21
280.0
 31
-1.6452322734563843e-16
  0
LINE
  5
203
330
17
100
AcDbEntity
  8
0
100
AcDbLine
 10
9.621794871794862
 20
261.0
 30
-3.422517583811522e-15
 11
14.121794871794862
 21
261.0
 31
2.9527912002332894e-14
  0
LINE
  5
204
330
17
100
AcDbEntity
  8
0
100
AcDbLine
 10
14.121794871794862
 20
261.0
 30
2.9527912002332894e-14
 11
14.121794871794862
 21
280.0
 31
3.163733574912069e-14
  0
LINE
  5
205
330
17
100
AcDbEntity
  8
0
100
AcDbLine
 10
14.121794871794862
 20
280.0
 30
3.163733574912069e-14
 11
9.621794871794862
 21
280.0
 31
-1.6452322734563843e-16
  0
LINE
  5
206
330
17
100
AcDbEntity
  8
0
100
AcDbLine
 10
9.621794871794862
 20
280.0
 30
-1.6452322734563843e-16
 11
9.621794871794862
 21
261.0
 31
-3.422517583811522e-15
  0
LINE
  5
207
330
17
100
AcDbEntity
  8
0
100
AcDbLine
 10
14.121794871794862
 20
-6.11833983051101e-32
 30
5.51091059616309e-16
 11
14.121794871794862
 21
261.0
 31
2.9527912002332894e-14
  0
LINE
  5
208
330
17
100
AcDbEntity
  8
0
100
AcDbLine
 10
14.121794871794862
 20
261.0
 30
2.9527912002332894e-14
 11
9.621794871794862
 21
261.0
 31
-3.422517583811522e-15
  0
LINE
  5
209
330
17
100
AcDbEntity
  8
0
100
AcDbLine
 10
9.621794871794862
 20
261.0
 30
-3.422517583811522e-15
 11
9.621794871794862
 21
3.059169915255505e-32
 31
-2.755455298081545e-16
  0
LINE
  5
20A
330
17
100
AcDbEntity
  8
0
100
AcDbLine
 10
9.621794871794862
 20
3.059169915255505e-32
 30
-2.755455298081545e-16
 11
14.121794871794862
 21
-6.11833983051101e-32
 31
5.51091059616309e-16
  0
LINE
  5
20B
330
17
100
AcDbEntity
  8
0
100
AcDbLine
 10
9.026363554144362
 20
261.0
 30
4.588921835117314e-15
 11
5.219790292009502
 21
261.0
 31
2.7237471537470508e-14
  0
LINE
  5
20C
330
17
100
AcDbEntity
  8
0
100
AcDbLine
 10
5.219790292009502
 20
261.0
 30
2.7237471537470508e-14
 11
5.219790292009494
 21
6.0
 31
-4.440892098500626e-16
  0
LINE
  5
20D
330
17
100
AcDbEntity
  8
0
100
AcDbLine
 10
5.219790292009494
 20
6.0
 30
-4.440892098500626e-16
 11
9.026363554144352
 21
6.0
 31
2.220446049250313e-16
  0
LINE
  5
20E
330
17
100
AcDbEntity
  8
0
100
AcDbLine
 10
9.026363554144352
 20
6.0
 30
2.220446049250313e-16
 11
9.026363554144362
 21
261.0
 31
4.588921835117314e-15
  0
LINE
  5
20F
330
17
100
AcDbEntity
  8
0
100
AcDbLine
 10
5.219790292009474
 20
280.0
 30
-6.661338147750939e-16
 11
5.219790292009502
 21
261.0
 31
2.7237471537470508e-14
  0
LINE
  5
210
330
17
100
AcDbEntity
  8
0
100
AcDbLine
 10
5.219790292009502
 20
261.0
 30
2.7237471537470508e-14
 11
9.026363554144362
 21
261.0
 31
4.588921835117314e-15
  0
LINE
  5
211
330
17
100
AcDbEntity
  8
0
100
AcDbLine
 10
9.026363554144362
 20
261.0
 30
4.588921835117314e-15
 11
9.026363554144371
 21
280.0
 31
2.220446049250313e-16
  0
LINE
  5
212
330
17
100
AcDbEntity
  8
0
100
AcDbLine
 10
9.026363554144371
 20
280.0
 30
2.220446049250313e-16
 11
5.219790292009474
 21
280.0
 31
-6.661338147750939e-16
  0
LINE
  5
213
330
17
100
AcDbEntity
  8
0
100
AcDbLine
 10
12.5
 20
329.0
 30
3.652633751016765e-14
 11
14.0
 21
329.0
 31
3.652633751016765e-14
  0
LINE
  5
214
330
17
100
AcDbEntity
  8
0
100
AcDbLine
 10
14.0
 20
329.0
 30
3.652633751016765e-14
 11
14.0
 21
358.0
 31
3.9745984281580604e-14
  0
LINE
  5
215
330
17
100
AcDbEntity
  8
0
100
AcDbLine
 10
14.0
 20
358.0
 30
3.9745984281580604e-14
 11
12.5
 21
358.0
 31
3.9745984281580604e-14
  0
LINE
  5
216
330
17
100
AcDbEntity
  8
0
100
AcDbLine
 10
12.5
 20
358.0
 30
3.9745984281580604e-14
 11
12.5
 21
329.0
 31
3.652633751016765e-14
  0
ARC
  5
217
330
17
100
AcDbEntity
  8
0
100
AcDbCircle
 10
0.0
 20
211.6875
 30
0.0
 40
95.3125
100
AcDbArc
 50
63.51896016962557
 51
89.99999999999271
  0
ARC
  5
218
330
17
100
AcDbEntity
  8
0
100
AcDbCircle
 10
0.0
 20
211.6875
 30
0.0
 40
95.3125
100
AcDbArc
 50
89.99999999999271
 51
116.48103983037441
  0
LINE
  5
219
330
17
100
AcDbEntity
  8
0
100
AcDbLine
 10
-42.5
 20
297.0
 30
0.0
 11
-105.0
 21
297.0
 31
0.0
  0
LINE
  5
21A
330
17
100
AcDbEntity
  8
0
100
AcDbLine
 10
-105.0
 20
297.0
 30
0.0
 11
-105.0
 21
292.0
 31
0.0
  0
LINE
  5
21B
330
17
100
AcDbEntity
  8
0
100
AcDbLine
 10
-105.0
 20
292.0
 30
0.0
 11
105.0
 21
292.0
 31
0.0
  0
LINE
  5
21C
330
17
100
AcDbEntity
  8
0
100
AcDbLine
 10
105.0
 20
292.0
 30
0.0
 11
105.0
 21
297.0
 31
0.0
  0
LINE
  5
21D
330
17
100
AcDbEntity
  8
0
100
AcDbLine
 10
105.0
 20
297.0
 30
0.0
 11
42.50000000000001
 21
297.0
 31
0.0
  0
LINE
  5
21E
330
17
100
AcDbEntity
  8
0
100
AcDbLine
 10
-29.0
 20
298.0
 30
0.0
 11
-29.0
 21
302.0
 31
0.0
  0
LINE
  5
21F
330
17
100
AcDbEntity
  8
0
100
AcDbLine
 10
-29.0
 20
302.0
 30
0.0
 11
-7.0
 21
302.0
 31
0.0
  0
LINE
  5
220
330
17
100
AcDbEntity
  8
0
100
AcDbLine
 10
-7.0
 20
302.0
 30
0.0
 11
-7.0
 21
298.0
 31
0.0
  0
LINE
  5
221
330
17
100
AcDbEntity
  8
0
100
AcDbLine
 10
-7.0
 20
298.0
 30
0.0
 11
-29.0
 21
298.0
 31
0.0
  0
LINE
  5
222
330
17
100
AcDbEntity
  8
0
100
AcDbLine
 10
7.0
 20
298.0
 30
0.0
 11
7.0
 21
302.0
 31
0.0
  0
LINE
  5
223
330
17
100
AcDbEntity
  8
0
100
AcDbLine
 10
7.0
 20
302.0
 30
0.0
 11
29.0
 21
302.0
 31
0.0
  0
LINE
  5
224
330
17
100
AcDbEntity
  8
0
100
AcDbLine
 10
29.0
 20
302.0
 30
0.0
 11
29.0
 21
298.0
 31
0.0
  0
LINE
  5
225
330
17
100
AcDbEntity
  8
0
100
AcDbLine
 10
29.0
 20
298.0
 30
0.0
 11
7.0
 21
298.0
 31
0.0
  0
LINE
  5
226
330
17
100
AcDbEntity
  8
0
100
AcDbLine
 10
11.30000000000006
 20
329.0
 30
3.610001186871159e-14
 11
12.5
 21
329.0
 31
3.652633751016765e-14
  0
LINE
  5
227
330
17
100
AcDbEntity
  8
0
100
AcDbLine
 10
12.5
 20
329.0
 30
3.652633751016765e-14
 11
12.5
 21
358.0
 31
3.9745984281580604e-14
  0
LINE
  5
228
330
17
100
AcDbEntity
  8
0
100
AcDbLine
 10
12.5
 20
358.0
 30
3.9745984281580604e-14
 11
11.30000000000006
 21
358.0
 31
3.9319658640124547e-14
  0
LINE
  5
229
330
17
100
AcDbEntity
  8
0
100
AcDbLine
 10
11.30000000000006
 20
358.0
 30
3.9319658640124547e-14
 11
11.30000000000006
 21
329.0
 31
3.610001186871159e-14
  0
LINE
  5
22A
330
17
100
AcDbEntity
  8
0
100
AcDbLine
 10
12.5
 20
328.3301270189222
 30
3.6451966669450965e-14
 11
12.5
 21
329.0
 31
3.652633751016765e-14
  0
LINE
  5
22B
330
17
100
AcDbEntity
  8
0
100
AcDbLine
 10
12.5
 20
329.0
 30
3.652633751016765e-14
 11
11.30000000000006
 21
329.0
 31
3.610001186871159e-14
  0
LINE
  5
22C
330
17
100
AcDbEntity
  8
0
100
AcDbLine
 10
11.30000000000006
 20
329.0
 30
3.610001186871159e-14
 11
11.30000000000006
 21
328.8280430818291
 31
3.60809208157319e-14
  0
ARC
  5
22D
330
17
100
AcDbEntity
  8
0
100
AcDbCircle
 10
10.0
 20
324.0
 30
0.0
 40
5.0
100
AcDbArc
 50
60.00000000000014
 51
74.92993785510984
  0
LINE
  5
22E
330
17
100
AcDbEntity
  8
0
100
AcDbLine
 10
11.30000000000006
 20
358.0
 30
3.9319658640124547e-14
 11
12.5
 21
358.0
 31
3.9745984281580604e-14
  0
LINE
  5
22F
330
17
100
AcDbEntity
  8
0
100
AcDbLine
 10
12.5
 20
358.0
 30
3.9745984281580604e-14
 11
12.5
 21
1308.0
 31
1.4521717162097048e-13
  0
LINE
  5
230
330
17
100
AcDbEntity
  8
0
100
AcDbLine
 10
12.5
 20
1308.0
 30
1.4521717162097048e-13
 11
11.30000000000006
 21
1308.0
 31
1.4479084597951442e-13
  0
LINE
  5
231
330
17
100
AcDbEntity
  8
0
100
AcDbLine
 10
11.30000000000006
 20
1308.0
 30
1.4479084597951442e-13
 11
11.30000000000006
 21
358.0
 31
3.9319658640124547e-14
  0
ARC
  5
232
330
17
100
AcDbEntity
  8
0
100
AcDbCircle
 10
10.0
 20
324.0
 30
0.0
 40
5.0
100
AcDbArc
 50
0.0
 51
60.00000000000014
  0
LINE
  5
233
330
17
100
AcDbEntity
  8
0
100
AcDbLine
 10
12.5
 20
328.3301270189222
 30
3.6451966669450965e-14
 11
12.5
 21
328.0
 31
3.6415315207705135e-14
  0
LINE
  5
234
330
17
100
AcDbEntity
  8
0
100
AcDbLine
 10
12.5
 20
328.0
 30
3.6415315207705135e-14
 11
11.30000000000006
 21
328.0
 31
3.598898956624908e-14
  0
LINE
  5
235
330
17
100
AcDbEntity
  8
0
100
AcDbLine
 10
11.30000000000006
 20
328.0
 30
3.598898956624908e-14
 11
11.30000000000006
 21
328.8280430818291
 31
3.60809208157319e-14
  0
ARC
  5
236
330
17
100
AcDbEntity
  8
0
100
AcDbCircle
 10
10.0
 20
324.0
 30
0.0
 40
5.0
100
AcDbArc
 50
74.92993785510984
 51
90.0
  0
LINE
  5
237
330
17
100
AcDbEntity
  8
0
100
AcDbLine
 10
10.0
 20
329.0
 30
0.0
 11
11.30000000000006
 21
329.0
 31
3.610001186871159e-14
  0
LINE
  5
238
330
17
100
AcDbEntity
  8
0
100
AcDbLine
 10
11.30000000000006
 20
329.0
 30
3.610001186871159e-14
 11
11.30000000000006
 21
358.0
 31
3.9319658640124547e-14
  0
LINE
  5
239
330
17
100
AcDbEntity
  8
0
100
AcDbLine
 10
11.30000000000006
 20
358.0
 30
3.9319658640124547e-14
 11
-11.299999999999942
 21
358.0
 31
2.555084368684119e-14
  0
LINE
  5
23A
330
17
100
AcDbEntity
  8
0
100
AcDbLine
 10
-11.299999999999942
 20
358.0
 30
2.555084368684119e-14
 11
-11.299999999999942
 21
329.0
 31
3.261696328080103e-13
  0
LINE
  5
23B
330
17
100
AcDbEntity
  8
0
100
AcDbLine
 10
-11.299999999999942
 20
329.0
 30
3.261696328080103e-13
 11
-10.0
 21
329.0
 31
0.0
  0
ARC
  5
23C
330
17
100
AcDbEntity
  8
0
100
AcDbCircle
 10
-10.0
 20
324.0
 30
0.0
 40
5.0
100
AcDbArc
 50
90.0
 51
105.07006214488844
  0
LINE
  5
23D
330
17
100
AcDbEntity
  8
0
100
AcDbLine
 10
-11.299999999999963
 20
328.8280430818293
 30
4.8163983885370365e-14
 11
-11.299999999999942
 21
328.0
 31
-5.223178159273854e-16
  0
LINE
  5
23E
330
17
100
AcDbEntity
  8
0
100
AcDbLine
 10
-11.299999999999942
 20
328.0
 30
-5.223178159273854e-16
 11
-12.5
 21
328.0
 31
-3.973299153109534e-15
  0
LINE
  5
23F
330
17
100
AcDbEntity
  8
0
100
AcDbLine
 10
-12.5
 20
328.0
 30
-3.973299153109534e-15
 11
-12.499999999999966
 21
328.33012701892227
 31
2.0893746952062685e-13
  0
ARC
  5
240
330
17
100
AcDbEntity
  8
0
100
AcDbCircle
 10
-10.0
 20
324.0
 30
0.0
 40
5.0
100
AcDbArc
 50
119.99999999999923
 51
180.0
  0
LINE
  5
241
330
17
100
AcDbEntity
  8
0
100
AcDbLine
 10
-15.0
 20
324.0
 30
0.0
 11
-15.0
 21
312.0
 31
0.0
  0
ARC
  5
242
330
17
100
AcDbEntity
  8
0
100
AcDbCircle
 10
-10.0
 20
312.0
 30
0.0
 40
5.0
100
AcDbArc
 50
-180.0
 51
-90.0
  0
LINE
  5
243
330
17
100
AcDbEntity
  8
0
100
AcDbLine
 10
-10.0
 20
307.0
 30
0.0
 11
1.212896449942491e-11
 21
307.0
 31
5.290906601729262e-15
  0
LINE
  5
244
330
17
100
AcDbEntity
  8
0
100
AcDbLine
 10
1.212896449942491e-11
 20
307.0
 30
5.290906601729262e-15
 11
10.0
 21
307.0
 31
0.0
  0
ARC
  5
245
330
17
100
AcDbEntity
  8
0
100
AcDbCircle
 10
10.0
 20
312.0
 30
0.0
 40
5.0
100
AcDbArc
 50
270.0
 51
360.0
  0
LINE
  5
246
330
17
100
AcDbEntity
  8
0
100
AcDbLine
 10
15.0
 20
312.0
 30
0.0
 11
15.0
 21
324.0
 31
0.0
  0
ARC
  5
247
330
17
100
AcDbEntity
  8
0
100
AcDbCircle
 10
0.0
 20
323.0
 30
3.5860203695392556e-14
 40
4.0
100
AcDbArc
 50
-6.3611093629270335e-15
 51
228.59037789072912
  0
ARC
  5
248
330
17
100
AcDbEntity
  8
0
100
AcDbCircle
 10
0.0
 20
323.0
 30
3.5860203695392556e-14
 40
4.0
100
AcDbArc
 50
311.40962210927086
 51
360.0
  0
LINE
  5
249
330
17
100
AcDbEntity
  8
0
100
AcDbLine
 10
2.6457513110645885
 20
320.0
 30
3.552713678800501e-14
 11
5.5
 21
320.0
 31
0.0
  0
LINE
  5
24A
330
17
100
AcDbEntity
  8
0
100
AcDbLine
 10
5.5
 20
320.0
 30
0.0
 11
5.5
 21
329.0
 31
0.0
  0
LINE
  5
24B
330
17
100
AcDbEntity
  8
0
100
AcDbLine
 10
5.5
 20
329.0
 30
0.0
 11
6.0
 21
329.0
 31
0.0
  0
LINE
  5
24C
330
17
100
AcDbEntity
  8
0
100
AcDbLine
 10
6.0
 20
329.0
 30
0.0
 11
6.0
 21
315.0
 31
0.0
  0
LINE
  5
24D
330
17
100
AcDbEntity
  8
0
100
AcDbLine
 10
6.0
 20
315.0
 30
0.0
 11
-6.0
 21
315.0
 31
0.0
  0
LINE
  5
24E
330
17
100
AcDbEntity
  8
0
100
AcDbLine
 10
-6.0
 20
315.0
 30
0.0
 11
-6.0
 21
329.0
 31
0.0
  0
LINE
  5
24F
330
17
100
AcDbEntity
  8
0
100
AcDbLine
 10
-6.0
 20
329.0
 30
0.0
 11
-5.5
 21
329.0
 31
0.0
  0
LINE
  5
250
330
17
100
AcDbEntity
  8
0
100
AcDbLine
 10
-5.5
 20
329.0
 30
0.0
 11
-5.5
 21
320.0
 31
0.0
  0
LINE
  5
251
330
17
100
AcDbEntity
  8
0
100
AcDbLine
 10
-5.5
 20
320.0
 30
0.0
 11
-2.645751311064591
 21
320.0
 31
3.552713678800501e-14
  0
LINE
  5
252
330
17
100
AcDbEntity
  8
0
100
AcDbLine
 10
12.5
 20
328.0
 30
3.6415315207705135e-14
 11
12.5
 21
328.3301270189222
 31
3.6451966669450965e-14
  0
ARC
  5
253
330
17
100
AcDbEntity
  8
0
100
AcDbCircle
 10
10.0
 20
324.0
 30
0.0
 40
5.0
100
AcDbArc
 50
60.00000000000014
 51
74.92993785510984
  0
LINE
  5
254
330
17
100
AcDbEntity
  8
0
100
AcDbLine
 10
11.30000000000006
 20
328.8280430818291
 30
3.60809208157319e-14
 11
11.30000000000006
 21
328.0
 31
3.598898956624908e-14
  0
LINE
  5
255
330
17
100
AcDbEntity
  8
0
100
AcDbLine
 10
11.30000000000006
 20
328.0
 30
3.598898956624908e-14
 11
12.5
 21
328.0
 31
3.6415315207705135e-14
  0
LINE
  5
256
330
17
100
AcDbEntity
  8
0
100
AcDbLine
 10
11.30000000000006
 20
1308.0
 30
1.4479084597951442e-13
 11
12.5
 21
1308.0
 31
1.4521717162097048e-13
  0
LINE
  5
257
330
17
100
AcDbEntity
  8
0
100
AcDbLine
 10
12.5
 20
1308.0
 30
1.4521717162097048e-13
 11
12.5
 21
1525.190524980689
 31
1.6933016377736908e-13
  0
ARC
  5
258
330
17
100
AcDbEntity
  8
0
100
AcDbCircle
 10
7.000000000000002
 20
1531.0
 30
0.0
 40
8.0
100
AcDbArc
 50
302.51361463321933
 51
313.43253655778994
  0
LINE
  5
259
330
17
100
AcDbEntity
  8
0
100
AcDbLine
 10
11.30000000000006
 20
1524.2538900097902
 30
1.6879985076487695e-13
 11
11.30000000000006
 21
1308.0
 31
1.4479084597951442e-13
  0
LINE
  5
25A
330
17
100
AcDbEntity
  8
0
100
AcDbLine
 10
12.5
 20
1525.190524980689
 30
1.6933016377736908e-13
 11
12.5
 21
1308.0
 31
1.4521717162097048e-13
  0
LINE
  5
25B
330
17
100
AcDbEntity
  8
0
100
AcDbLine
 10
12.5
 20
1308.0
 30
1.4521717162097048e-13
 11
14.5
 21
1308.0
 31
1.4521717162097048e-13
  0
LINE
  5
25C
330
17
100
AcDbEntity
  8
0
100
AcDbLine
 10
14.5
 20
1308.0
 30
1.4521717162097048e-13
 11
14.5
 21
1523.0
 31
1.6908696665041134e-13
  0
ARC
  5
25D
330
17
100
AcDbEntity
  8
0
100
AcDbCircle
 10
9.5
 20
1523.0
 30
1.6908696665041134e-13
 40
5.0
100
AcDbArc
 50
-6.3611093629270335e-15
 51
39.24513007884433
  0
ARC
  5
25E
330
17
100
AcDbEntity
  8
0
100
AcDbCircle
 10
7.000000000000002
 20
1531.0
 30
0.0
 40
8.0
100
AcDbArc
 50
313.43253655778994
 51
322.79991411602396
  0
ARC
  5
25F
330
17
100
AcDbEntity
  8
0
100
AcDbCircle
 10
7.000000000000002
 20
1531.0
 30
0.0
 40
8.0
100
AcDbArc
 50
302.51361463321933
 51
313.43253655778994
  0
LINE
  5
260
330
17
100
AcDbEntity
  8
0
100
AcDbLine
 10
12.5
 20
1525.190524980689
 30
1.6933016377736908e-13
 11
12.49999999999997
 21
1527.0
 31
1.695310558602614e-13
  0
ARC
  5
261
330
17
100
AcDbEntity
  8
0
100
AcDbCircle
 10
9.5
 20
1523.0
 30
1.6908696665041134e-13
 40
5.0
100
AcDbArc
 50
53.13010235415625
 51
68.89980397590728
  0
LINE
  5
262
330
17
100
AcDbEntity
  8
0
100
AcDbLine
 10
11.299999999999997
 20
1527.6647615158763
 30
1.6939169639361443e-13
 11
11.30000000000006
 21
1524.2538900097902
 31
1.6879985076487695e-13
  0
LINE
  5
263
330
17
100
AcDbEntity
  8
0
100
AcDbLine
 10
12.49999999999997
 20
1527.0
 30
1.695310558602614e-13
 11
12.5
 21
1525.190524980689
 31
1.6933016377736908e-13
  0
ARC
  5
264
330
17
100
AcDbEntity
  8
0
100
AcDbCircle
 10
7.000000000000002
 20
1531.0
 30
0.0
 40
8.0
100
AcDbArc
 50
313.43253655778994
 51
322.79991411602396
  0
ARC
  5
265
330
17
100
AcDbEntity
  8
0
100
AcDbCircle
 10
9.5
 20
1523.0
 30
1.6908696665041134e-13
 40
5.0
100
AcDbArc
 50
39.24513007884433
 51
53.13010235415625
  0
LINE
  5
266
330
17
100
AcDbEntity
  8
0
100
AcDbLine
 10
-11.299999999999942
 20
1308.0
 30
7.830124033019781e-14
 11
11.30000000000006
 21
1308.0
 31
1.4479084597951442e-13
  0
LINE
  5
267
330
17
100
AcDbEntity
  8
0
100
AcDbLine
 10
11.30000000000006
 20
1308.0
 30
1.4479084597951442e-13
 11
11.30000000000006
 21
1524.2538900097902
 31
1.6879985076487695e-13
  0
ARC
  5
268
330
17
100
AcDbEntity
  8
0
100
AcDbCircle
 10
7.000000000000002
 20
1531.0
 30
0.0
 40
8.0
100
AcDbArc
 50
270.0
 51
302.51361463321933
  0
LINE
  5
269
330
17
100
AcDbEntity
  8
0
100
AcDbLine
 10
7.000000000000003
 20
1523.0
 30
0.0
 11
-7.000000000000003
 21
1523.0
 31
0.0
  0
ARC
  5
26A
330
17
100
AcDbEntity
  8
0
100
AcDbCircle
 10
-7.000000000000002
 20
1531.0
 30
0.0
 40
8.0
100
AcDbArc
 50
-122.51361463322132
 51
-90.0
  0
LINE
  5
26B
330
17
100
AcDbEntity
  8
0
100
AcDbLine
 10
-11.299999999999955
 20
1524.253890009791
 30
2.6569822507240678e-14
 11
-11.299999999999942
 21
1308.0
 31
7.830124033019781e-14
  0
LINE
  5
26C
330
17
100
AcDbEntity
  8
0
100
AcDbLine
 10
-11.299999999999942
 20
329.0
 30
3.261696328080103e-13
 11
-11.299999999999942
 21
358.0
 31
2.555084368684119e-14
  0
LINE
  5
26D
330
17
100
AcDbEntity
  8
0
100
AcDbLine
 10
-11.299999999999942
 20
358.0
 30
2.555084368684119e-14
 11
-12.5
 21
358.0
 31
-2.1213094348854162e-14
  0
LINE
  5
26E
330
17
100
AcDbEntity
  8
0
100
AcDbLine
 10
-12.5
 20
358.0
 30
-2.1213094348854162e-14
 11
-12.5
 21
329.0
 31
-2.3359525529796133e-14
  0
LINE
  5
26F
330
17
100
AcDbEntity
  8
0
100
AcDbLine
 10
-12.5
 20
329.0
 30
-2.3359525529796133e-14
 11
-11.299999999999942
 21
329.0
 31
3.261696328080103e-13
  0
LINE
  5
270
330
17
100
AcDbEntity
  8
0
100
AcDbLine
 10
-12.5
 20
358.0
 30
-2.1213094348854162e-14
 11
-11.299999999999942
 21
358.0
 31
2.555084368684119e-14
  0
LINE
  5
271
330
17
100
AcDbEntity
  8
0
100
AcDbLine
 10
-11.299999999999942
 20
358.0
 30
2.555084368684119e-14
 11
-11.299999999999942
 21
1308.0
 31
7.830124033019781e-14
  0
LINE
  5
272
330
17
100
AcDbEntity
  8
0
100
AcDbLine
 10
-11.299999999999942
 20
1308.0
 30
7.830124033019781e-14
 11
-12.5
 21
1308.0
 31
3.1522499320840773e-14
  0
LINE
  5
273
330
17
100
AcDbEntity
  8
0
100
AcDbLine
 10
-12.5
 20
1308.0
 30
3.1522499320840773e-14
 11
-12.5
 21
358.0
 31
-2.1213094348854162e-14
  0
ARC
  5
274
330
17
100
AcDbEntity
  8
0
100
AcDbCircle
 10
9.5
 20
1523.0
 30
1.6908696665041134e-13
 40
5.0
100
AcDbArc
 50
53.13010235415625
 51
68.89980397590728
  0
LINE
  5
275
330
17
100
AcDbEntity
  8
0
100
AcDbLine
 10
12.49999999999997
 20
1527.0
 30
1.695310558602614e-13
 11
12.5
 21
1528.0
 31
1.6964207816272392e-13
  0
LINE
  5
276
330
17
100
AcDbEntity
  8
0
100
AcDbLine
 10
12.5
 20
1528.0
 30
1.6964207816272392e-13
 11
11.30000000000006
 21
1528.0
 31
1.6921575252126787e-13
  0
LINE
  5
277
330
17
100
AcDbEntity
  8
0
100
AcDbLine
 10
11.30000000000006
 20
1528.0
 30
1.6921575252126787e-13
 11
11.299999999999997
 21
1527.6647615158763
 31
1.6939169639361443e-13
  0
LINE
  5
278
330
17
100
AcDbEntity
  8
0
100
AcDbLine
 10
12.5
 20
1528.0
 30
1.6964207816272392e-13
 11
12.49999999999997
 21
1527.0
 31
1.695310558602614e-13
  0
ARC
  5
279
330
17
100
AcDbEntity
  8
0
100
AcDbCircle
 10
9.5
 20
1523.0
 30
1.6908696665041134e-13
 40
5.0
100
AcDbArc
 50
39.24513007884433
 51
53.13010235415625
  0
ARC
  5
27A
330
17
100
AcDbEntity
  8
0
100
AcDbCircle
 10
7.000000000000002
 20
1531.0
 30
0.0
 40
8.0
100
AcDbArc
 50
322.79991411602396
 51
360.0
  0
LINE
  5
27B
330
17
100
AcDbEntity
  8
0
100
AcDbLine
 10
15.000000000000002
 20
1531.0
 30
0.0
 11
15.000000000000002
 21
1555.0
 31
0.0
  0
ARC
  5
27C
330
17
100
AcDbEntity
  8
0
100
AcDbCircle
 10
7.000000000000002
 20
1555.0
 30
0.0
 40
8.0
100
AcDbArc
 50
0.0
 51
90.0
  0
LINE
  5
27D
330
17
100
AcDbEntity
  8
0
100
AcDbLine
 10
7.000000000000003
 20
1563.0
 30
0.0
 11
-7.000000000000003
 21
1563.0
 31
0.0
  0
ARC
  5
27E
330
17
100
AcDbEntity
  8
0
100
AcDbCircle
 10
-7.000000000000002
 20
1555.0
 30
0.0
 40
8.0
100
AcDbArc
 50
90.0
 51
180.0
  0
LINE
  5
27F
330
17
100
AcDbEntity
  8
0
100
AcDbLine
 10
-15.000000000000002
 20
1555.0
 30
0.0
 11
-15.000000000000002
 21
1531.0
 31
0.0
  0
ARC
  5
280
330
17
100
AcDbEntity
  8
0
100
AcDbCircle
 10
-7.000000000000002
 20
1531.0
 30
0.0
 40
8.0
100
AcDbArc
 50
-180.0
 51
-142.79991411822272
  0
SPLINE
  5
281
330
17
100
AcDbEntity
  8
0
100
AcDbSpline
 70
0
 71
8
 72
95
 73
86
 74
0
 40
0.0
 40
0.0
 40
0.0
 40
0.0
 40
0.0
 40
0.0
 40
0.0
 40
0.0
 40
0.0
 40
0.046480113103131555
 40
0.046480113103131555
 40
0.046480113103131555
 40
0.046480113103131555
 40
0.046480113103131555
 40
0.046480113103131555
 40
0.046480113103131555
 40
0.14217546251568064
 40
0.14217546251568064
 40
0.14217546251568064
 40
0.14217546251568064
 40
0.14217546251568064
 40
0.14217546251568064
 40
0.14217546251568064
 40
0.23787081192821533
 40
0.23787081192821533
 40
0.23787081192821533
 40
0.23787081192821533
 40
0.23787081192821533
 40
0.23787081192821533
 40
0.23787081192821533
 40
0.33356616134064715
 40
0.33356616134064715
 40
0.33356616134064715
 40
0.33356616134064715
 40
0.33356616134064715
 40
0.33356616134064715
 40
0.33356616134064715
 40
0.42926151075315233
 40
0.42926151075315233
 40
0.42926151075315233
 40
0.42926151075315233
 40
0.42926151075315233
 40
0.42926151075315233
 40
0.42926151075315233
 40
0.5249568601655805
 40
0.5249568601655805
 40
0.5249568601655805
 40
0.5249568601655805
 40
0.5249568601655805
 40
0.5249568601655805
 40
0.5249568601655805
 40
0.6041530114116969
 40
0.6041530114116969
 40
0.6041530114116969
 40
0.6041530114116969
 40
0.6041530114116969
 40
0.6041530114116969
 40
0.6041530114116969
 40
0.6899488419253091
 40
0.6899488419253091
 40
0.6899488419253091
 40
0.6899488419253091
 40
0.6899488419253091
 40
0.6899488419253091
 40
0.6899488419253091
 40
0.7823443517052568
 40
0.7823443517052568
 40
0.7823443517052568
 40
0.7823443517052568
 40
0.7823443517052568
 40
0.7823443517052568
 40
0.7823443517052568
 40
0.8780397011177371
 40
0.8780397011177371
 40
0.8780397011177371
 40
0.8780397011177371
 40
0.8780397011177371
 40
0.8780397011177371
 40
0.8780397011177371
 40
0.9704352108976093
 40
0.9704352108976093
 40
0.9704352108976093
 40
0.9704352108976093
 40
0.9704352108976093
 40
0.9704352108976093
 40
0.9704352108976093
 40
1.0
 40
1.0
 40
1.0
 40
1.0
 40
1.0
 40
1.0
 40
1.0
 40
1.0
 40
1.0
 10
-12.499999999999773
 20
1526.9999999999998
 30
0.0
 10
-12.505631960040109
 20
1526.9957760299694
 30
0.0
 10
-12.511257123157495
 20
1526.9915429973753
 30
0.0
 10
-12.516875472338754
 20
1526.987300914977
 30
0.0
 10
-12.522486990599443
 20
1526.9830497955727
 30
0.0
 10
-12.528091660983845
 20
1526.9787896519993
 30
0.0
 10
-12.533689466564981
 20
1526.9745204971314
 30
0.0
 10
-12.5392803904446
 20
1526.9702423438823
 30
0.0
 10
-12.55636105845387
 20
1526.9571286510827
 30
0.0
 10
-12.567828459208002
 20
1526.9482640091287
 30
0.0
 10
-12.579266470793415
 20
1526.9393613923723
 30
0.0
 10
-12.590674946520023
 20
1526.9304209145191
 30
0.0
 10
-12.602053740229845
 20
1526.921442689954
 30
0.0
 10
-12.613402706296988
 20
1526.912426833735
 30
0.0
 10
-12.624721699627656
 20
1526.9033734616005
 30
0.0
 10
-12.647299451692648
 20
1526.8851919183257
 30
0.0
 10
-12.658558210438498
 20
1526.8760637471764
 30
0.0
 10
-12.669786707336092
 20
1526.8668982929296
 30
0.0
 10
-12.680984798371476
 20
1526.8576956726608
 30
0.0
 10
-12.692152340078355
 20
1526.8484560041134
 30
0.0
 10
-12.703289189538076
 20
1526.839179405693
 30
0.0
 10
-12.714395204379649
 20
1526.8298659964694
 30
0.0
 10
-12.736545281179811
 20
1526.8111657958848
 30
0.0
 10
-12.747589343149698
 20
1526.8017790045142
 30
0.0
 10
-12.758602286866111
 20
1526.7923556418002
 30
0.0
 10
-12.769583971068679
 20
1526.7828958281282
 30
0.0
 10
-12.780534255059928
 20
1526.7733996845345
 30
0.0
 10
-12.791452998705312
 20
1526.7638673327076
 30
0.0
 10
-12.802340062433196
 20
1526.7542988949872
 30
0.0
 10
-12.82405055203652
 20
1526.7350900937402
 30
0.0
 10
-12.834873977923026
 20
1526.725449730204
 30
0.0
 10
-12.845665445885693
 20
1526.7157735267465
 30
0.0
 10
-12.856424817493702
 20
1526.7060616069957
 30
0.0
 10
-12.867151954894092
 20
1526.6963140952193
 30
0.0
 10
-12.877846720811782
 20
1526.686531116322
 30
0.0
 10
-12.888508978549543
 20
1526.6767127958465
 30
0.0
 10
-12.909768205426483
 20
1526.657005724102
 30
0.0
 10
-12.920365174576482
 20
1526.647116972823
 30
0.0
 10
-12.930929363318713
 20
1526.6371931323176
 30
0.0
 10
-12.941460636126363
 20
1526.6272343293933
 30
0.0
 10
-12.951958858065119
 20
1526.617240691479
 30
0.0
 10
-12.962423894793163
 20
1526.6072123466292
 30
0.0
 10
-12.972855612561181
 20
1526.5971494235232
 30
0.0
 10
-12.991859339441815
 20
1526.578695605623
 30
0.0
 10
-13.000441889357912
 20
1526.5703155657243
 30
0.0
 10
-13.009001452487102
 20
1526.561912005059
 30
0.0
 10
-13.017537953639888
 20
1526.553484997204
 30
0.0
 10
-13.026051317910833
 20
1526.5450346160228
 30
0.0
 10
-13.034541470678581
 20
1526.5365609356659
 30
0.0
 10
-13.043008337605839
 20
1526.5280640305705
 30
0.0
 10
-13.060598977258715
 20
1526.5103139157607
 30
0.0
 10
-13.06971869445263
 20
1526.5010566869405
 30
0.0
 10
-13.078810902068378
 20
1526.4917723840085
 30
0.0
 10
-13.087875506352326
 20
1526.4824611023575
 30
0.0
 10
-13.096912413949925
 20
1526.4731229377696
 30
0.0
 10
-13.105921531905723
 20
1526.4637579864127
 30
0.0
 10
-13.114902767663372
 20
1526.4543663448421
 30
0.0
 10
-13.133498002882986
 20
1526.4348053955594
 30
0.0
 10
-13.143107533076924
 20
1526.4246318392095
 30
0.0
 10
-13.152684504544458
 20
1526.4144275620336
 30
0.0
 10
-13.162228802730558
 20
1526.4041926856214
 30
0.0
 10
-13.171740313628122
 20
1526.3939273320725
 30
0.0
 10
-13.18121892377798
 20
1526.3836316239956
 30
0.0
 10
-13.190664520268891
 20
1526.3733056845092
 30
0.0
 10
-13.209825620865544
 20
1526.35222373114
 30
0.0
 10
-13.219538716583731
 20
1526.3414655282886
 30
0.0
 10
-13.229216153054361
 20
1526.3306751660382
 30
0.0
 10
-13.23885780608341
 20
1526.3198527823124
 30
0.0
 10
-13.24846355212055
 20
1526.3089985156066
 30
0.0
 10
-13.25803326825916
 20
1526.2981125049885
 30
0.0
 10
-13.26756683223634
 20
1526.2871948900972
 30
0.0
 10
-13.286233919864264
 20
1526.265674286634
 30
0.0
 10
-13.295369902031897
 20
1526.255073430575
 30
0.0
 10
-13.304471959469497
 20
1526.244443369165
 30
0.0
 10
-13.313539983281355
 20
1526.2337842290883
 30
0.0
 10
-13.322573865142338
 20
1526.223096137512
 30
0.0
 10
-13.331573497297907
 20
1526.2123792220868
 30
0.0
 10
-13.340538772564088
 20
1526.2016336109477
 30
0.0
 10
-13.352327272616979
 20
1526.1874119025474
 30
0.0
 10
-13.355181432268113
 20
1526.1839614474602
 30
0.0
 10
-13.358032059788009
 20
1526.1805080716665
 30
0.0
 10
-13.360879151689874
 20
1526.1770517793848
 30
0.0
 10
-13.363722704493005
 20
1526.173592574839
 30
0.0
 10
-13.366562714722802
 20
1526.1701304622575
 30
0.0
 10
-13.36939917891075
 20
1526.166665445874
 30
0.0
 10
-13.372232093594441
 20
1526.1631975299274
 30
0.0
  0
LINE
  5
282
330
17
100
AcDbEntity
  8
0
100
AcDbLine
 10
-12.499999999999943
 20
1527.0
 30
2.1854065054815548e-13
 11
-12.5
 21
1528.0
 31
-3.973299153109546e-15
  0
LINE
  5
283
330
17
100
AcDbEntity
  8
0
100
AcDbLine
 10
-12.5
 20
1528.0
 30
-3.973299153109546e-15
 11
-11.299999999999942
 21
1528.0
 31
-2.7871727861627086e-15
  0
LINE
  5
284
330
17
100
AcDbEntity
  8
0
100
AcDbLine
 10
-11.299999999999942
 20
1528.0
 30
-2.7871727861627086e-15
 11
-11.299999999986923
 21
1527.6647615158774
 31
5.98873784689175e-14
  0
SPLINE
  5
285
330
17
100
AcDbEntity
  8
0
100
AcDbSpline
 70
0
 71
8
 72
137
 73
128
 74
0
 40
0.0
 40
0.0
 40
0.0
 40
0.0
 40
0.0
 40
0.0
 40
0.0
 40
0.0
 40
0.0
 40
0.00701817902872419
 40
0.00701817902872419
 40
0.00701817902872419
 40
0.00701817902872419
 40
0.00701817902872419
 40
0.00701817902872419
 40
0.00701817902872419
 40
0.01465454268783857
 40
0.01465454268783857
 40
0.01465454268783857
 40
0.01465454268783857
 40
0.01465454268783857
 40
0.01465454268783857
 40
0.01465454268783857
 40
0.02687272454147844
 40
0.02687272454147844
 40
0.02687272454147844
 40
0.02687272454147844
 40
0.02687272454147844
 40
0.02687272454147844
 40
0.02687272454147844
 40
0.04163636094645967
 40
0.04163636094645967
 40
0.04163636094645967
 40
0.04163636094645967
 40
0.04163636094645967
 40
0.04163636094645967
 40
0.04163636094645967
 40
0.05639999735143864
 40
0.05639999735143864
 40
0.05639999735143864
 40
0.05639999735143864
 40
0.05639999735143864
 40
0.05639999735143864
 40
0.05639999735143864
 40
0.07065454284625346
 40
0.07065454284625346
 40
0.07065454284625346
 40
0.07065454284625346
 40
0.07065454284625346
 40
0.07065454284625346
 40
0.07065454284625346
 40
0.08541817925122225
 40
0.08541817925122225
 40
0.08541817925122225
 40
0.08541817925122225
 40
0.08541817925122225
 40
0.08541817925122225
 40
0.08541817925122225
 40
0.09967272474602712
 40
0.09967272474602712
 40
0.09967272474602712
 40
0.09967272474602712
 40
0.09967272474602712
 40
0.09967272474602712
 40
0.09967272474602712
 40
0.11392727024083199
 40
0.11392727024083199
 40
0.11392727024083199
 40
0.11392727024083199
 40
0.11392727024083199
 40
0.11392727024083199
 40
0.11392727024083199
 40
0.12869090664579044
 40
0.12869090664579044
 40
0.12869090664579044
 40
0.12869090664579044
 40
0.12869090664579044
 40
0.12869090664579044
 40
0.12869090664579044
 40
0.14345454305074212
 40
0.14345454305074212
 40
0.14345454305074212
 40
0.14345454305074212
 40
0.14345454305074212
 40
0.14345454305074212
 40
0.14345454305074212
 40
0.1582181794556938
 40
0.1582181794556938
 40
0.1582181794556938
 40
0.1582181794556938
 40
0.1582181794556938
 40
0.1582181794556938
 40
0.1582181794556938
 40
0.1724727249504922
 40
0.1724727249504922
 40
0.1724727249504922
 40
0.1724727249504922
 40
0.1724727249504922
 40
0.1724727249504922
 40
0.1724727249504922
 40
0.18570908862480578
 40
0.18570908862480578
 40
0.18570908862480578
 40
0.18570908862480578
 40
0.18570908862480578
 40
0.18570908862480578
 40
0.18570908862480578
 40
0.20047272502975025
 40
0.20047272502975025
 40
0.20047272502975025
 40
0.20047272502975025
 40
0.20047272502975025
 40
0.20047272502975025
 40
0.20047272502975025
 40
0.21523636143468342
 40
0.21523636143468342
 40
0.21523636143468342
 40
0.21523636143468342
 40
0.21523636143468342
 40
0.21523636143468342
 40
0.21523636143468342
 40
0.22898181601924064
 40
0.22898181601924064
 40
0.22898181601924064
 40
0.22898181601924064
 40
0.22898181601924064
 40
0.22898181601924064
 40
0.22898181601924064
 40
0.2344466203412425
 40
0.2344466203412425
 40
0.2344466203412425
 40
0.2344466203412425
 40
0.2344466203412425
 40
0.2344466203412425
 40
0.2344466203412425
 40
0.2344466203412425
 40
0.2344466203412425
 10
-9.499999999998137
 20
1527.9999999021195
 30
0.0
 10
-9.506890088027358
 20
1527.9999999021195
 30
0.0
 10
-9.51378015766575
 20
1527.9999898720707
 30
0.0
 10
-9.520670248969825
 20
1527.9999660659093
 30
0.0
 10
-9.527560233844714
 20
1527.9999362887195
 30
0.0
 10
-9.534450237351725
 20
1527.9998907087886
 30
0.0
 10
-9.541340096110194
 20
1527.999837435988
 30
0.0
 10
-9.548229892174922
 20
1527.9997721298794
 30
0.0
 10
-9.562616081540309
 20
1527.9996135281717
 30
0.0
 10
-9.570112466832027
 20
1527.9995180360866
 30
0.0
 10
-9.577608684819953
 20
1527.9994096982657
 30
0.0
 10
-9.585104709823032
 20
1527.999288515054
 30
0.0
 10
-9.592600516161257
 20
1527.9991544868587
 30
0.0
 10
-9.600096078155678
 20
1527.9990076141469
 30
0.0
 10
-9.607591370128395
 20
1527.9988478974478
 30
0.0
 10
-9.627078360440315
 20
1527.9983992412028
 30
0.0
 10
-9.639069597493307
 20
1527.998090265959
 30
0.0
 10
-9.651059972386609
 20
1527.9977484140447
 30
0.0
 10
-9.663049379958439
 20
1527.9973736882837
 30
0.0
 10
-9.67503771506018
 20
1527.9969660919048
 30
0.0
 10
-9.687024872556389
 20
1527.9965256285413
 30
0.0
 10
-9.699010747324785
 20
1527.9960523022285
 30
0.0
 10
-9.725476489296975
 20
1527.9949344774107
 30
0.0
 10
-9.739955718010961
 20
1527.9942748617098
 30
0.0
 10
-9.754432734956035
 20
1527.9935672781337
 30
0.0
 10
-9.768907354736292
 20
1527.9928117353757
 30
0.0
 10
-9.783379392002137
 20
1527.9920082429871
 30
0.0
 10
-9.797848661450258
 20
1527.9911568113798
 30
0.0
 10
-9.812314977823632
 20
1527.9902574518235
 30
0.0
 10
-9.841241333999434
 20
1527.9883629010756
 30
0.0
 10
-9.855701373816633
 20
1527.9873677098826
 30
0.0
 10
-9.870158090152408
 20
1527.9863246150007
 30
0.0
 10
-9.884611297862266
 20
1527.9852336294196
 30
0.0
 10
-9.899060811867923
 20
1527.9840947669857
 30
0.0
 10
-9.913506447157319
 20
1527.9829080424054
 30
0.0
 10
-9.927948018784624
 20
1527.9816734712415
 30
0.0
 10
-9.956324826229071
 20
1527.9791528893259
 30
0.0
 10
-9.970260350010353
 20
1527.9778701203325
 30
0.0
 10
-9.984191746808644
 20
1527.976542777716
 30
0.0
 10
-9.998118850293068
 20
1527.9751708770025
 30
0.0
 10
-10.012041494207278
 20
1527.9737544344612
 30
0.0
 10
-10.025959512369448
 20
1527.972293467107
 30
0.0
 10
-10.03987273867229
 20
1527.9707879926984
 30
0.0
 10
-10.068185999365255
 20
1527.9676327109578
 30
0.0
 10
-10.082585673310344
 20
1527.9659796691246
 30
0.0
 10
-10.096979844452703
 20
1527.9642789247969
 30
0.0
 10
-10.111368328431986
 20
1527.962530499385
 30
0.0
 10
-10.125750940993106
 20
1527.9607344151555
 30
0.0
 10
-10.140127497986231
 20
1527.958890695229
 30
0.0
 10
-10.154497815366792
 20
1527.9569993635798
 30
0.0
 10
-10.182730296340777
 20
1527.9531883857542
 30
0.0
 10
-10.196592895312744
 20
1527.9512719648474
 30
0.0
 10
-10.210449340552332
 20
1527.9493112046648
 30
0.0
 10
-10.224299466608862
 20
1527.9473061282943
 30
0.0
 10
-10.238143108140017
 20
1527.9452567595642
 30
0.0
 10
-10.251980099911849
 20
1527.9431631230443
 30
0.0
 10
-10.265810276798776
 20
1527.9410252440425
 30
0.0
 10
-10.29345667076839
 20
1527.9366610531742
 30
0.0
 10
-10.307272887863338
 20
1527.9344347413062
 30
0.0
 10
-10.321081960051222
 20
1527.9321642390532
 30
0.0
 10
-10.334883722439766
 20
1527.9298495732016
 30
0.0
 10
-10.348678010261596
 20
1527.927490771276
 30
0.0
 10
-10.362464658874252
 20
1527.9250878615392
 30
0.0
 10
-10.376243503760195
 20
1527.9226408729903
 30
0.0
 10
-10.40427707432042
 20
1527.9175698321128
 30
0.0
 10
-10.418531220693719
 20
1527.9149425772348
 30
0.0
 10
-10.43277663700333
 20
1527.912268103771
 30
0.0
 10
-10.447013140768917
 20
1527.9095464456045
 30
0.0
 10
-10.461240549673198
 20
1527.9067776374648
 30
0.0
 10
-10.475458681561935
 20
1527.903961714927
 30
0.0
 10
-10.489667354443933
 20
1527.9010987144106
 30
0.0
 10
-10.518065418538155
 20
1527.89527863195
 30
0.0
 10
-10.532254809764858
 20
1527.8923215500029
 30
0.0
 10
-10.546434378343013
 20
1527.8893174646041
 30
0.0
 10
-10.56060394262707
 20
1527.8862664138608
 30
0.0
 10
-10.574763321154093
 20
1527.883168436719
 30
0.0
 10
-10.58891233264374
 20
1527.880023572968
 30
0.0
 10
-10.60305079599828
 20
1527.8768318632383
 30
0.0
 10
-10.631306264606883
 20
1527.8703548347644
 30
0.0
 10
-10.64542326987536
 20
1527.8670695160167
 30
0.0
 10
-10.659529365192878
 20
1527.8637374342293
 30
0.0
 10
-10.673624369846367
 20
1527.8603586317101
 30
0.0
 10
-10.687708103324816
 20
1527.8569331516053
 30
0.0
 10
-10.701780385319278
 20
1527.8534610378958
 30
0.0
 10
-10.715841035722875
 20
1527.8499423354
 30
0.0
 10
-10.743454270818086
 20
1527.8429347836518
 30
0.0
 10
-10.757007656063697
 20
1527.8394490889243
 30
0.0
 10
-10.770549868439915
 20
1527.8359200466841
 30
0.0
 10
-10.784080746211151
 20
1527.8323476987484
 30
0.0
 10
-10.79760012783394
 20
1527.8287320876557
 30
0.0
 10
-10.811107851956944
 20
1527.825073256669
 30
0.0
 10
-10.824603757420947
 20
1527.8213712497732
 30
0.0
 10
-10.850608471537436
 20
1527.8141484834443
 30
0.0
 10
-10.86311893045383
 20
1527.8106336655508
 30
0.0
 10
-10.87561893112973
 20
1527.8070816937934
 30
0.0
 10
-10.888108344841243
 20
1527.8034926045011
 30
0.0
 10
-10.900587043018888
 20
1527.7998664345387
 30
0.0
 10
-10.913054897247603
 20
1527.7962032213054
 30
0.0
 10
-10.925511779266737
 20
1527.7925030027336
 30
0.0
 10
-10.951839394407381
 20
1527.7845974181428
 30
0.0
 10
-10.965707418144472
 20
1527.7803830291414
 30
0.0
 10
-10.979561454415096
 20
1527.776122703666
 30
0.0
 10
-10.99340132571016
 20
1527.771816495917
 30
0.0
 10
-11.007226854777693
 20
1527.7674644609165
 30
0.0
 10
-11.021037864622848
 20
1527.7630666545085
 30
0.0
 10
-11.034834178507893
 20
1527.7586231333585
 30
0.0
 10
-11.062397061396528
 20
1527.7496447765477
 30
0.0
 10
-11.076163630414158
 20
1527.7451099408831
 30
0.0
 10
-11.089915150524487
 20
1527.7405295054452
 30
0.0
 10
-11.103651445523012
 20
1527.7359035285372
 30
0.0
 10
-11.117372339481305
 20
1527.731232069276
 30
0.0
 10
-11.13107765674705
 20
1527.7265151875952
 30
0.0
 10
-11.144767221944015
 20
1527.7217529442432
 30
0.0
 10
-11.171171488481544
 20
1527.7124694120453
 30
0.0
 10
-11.183888310930442
 20
1527.7079541560279
 30
0.0
 10
-11.196591186006325
 20
1527.7033996824161
 30
0.0
 10
-11.209279972617887
 20
1527.698806041502
 30
0.0
 10
-11.22195452989493
 20
1527.6941732841854
 30
0.0
 10
-11.234614717188377
 20
1527.689501461975
 30
0.0
 10
-11.247260394070265
 20
1527.6847906269857
 30
0.0
 10
-11.264913159446952
 20
1527.6781524476517
 30
0.0
 10
-11.269932582836741
 20
1527.6762579052074
 30
0.0
 10
-11.274949681692313
 20
1527.6743572079213
 30
0.0
 10
-11.279964447208707
 20
1527.6724503591215
 30
0.0
 10
-11.28497687058682
 20
1527.6705373621517
 30
0.0
 10
-11.289986943033398
 20
1527.66861822037
 30
0.0
 10
-11.294994655761034
 20
1527.6666929371504
 30
0.0
 10
-11.299999999988177
 20
1527.6647615158809
 30
0.0
  0
LINE
  5
286
330
17
100
AcDbEntity
  8
0
100
AcDbLine
 10
-9.5
 20
1528.0
 30
-2.7523603948984605e-16
 11
9.5
 21
1528.0
 31
1.6964207816272392e-13
  0
ARC
  5
287
330
17
100
AcDbEntity
  8
0
100
AcDbCircle
 10
9.5
 20
1523.0
 30
1.6908696665041134e-13
 40
5.0
100
AcDbArc
 50
68.89980397590728
 51
90.0
  0
LINE
  5
288
330
17
100
AcDbEntity
  8
0
100
AcDbLine
 10
11.299999999999997
 20
1527.6647615158763
 30
1.6939169639361443e-13
 11
11.30000000000006
 21
1528.0
 31
1.6921575252126787e-13
  0
LINE
  5
289
330
17
100
AcDbEntity
  8
0
100
AcDbLine
 10
11.30000000000006
 20
1528.0
 30
1.6921575252126787e-13
 11
12.5
 21
1528.0
 31
1.6964207816272392e-13
  0
CIRCLE
  5
28A
330
17
100
AcDbEntity
  8
0
100
AcDbCircle
 10
0.0
 20
1550.0
 30
1.7208456881689926e-13
 40
6.0
  0
ARC
  5
28B
330
17
100
AcDbEntity
  8
0
100
AcDbCircle
 10
7.000000000000002
 20
1531.0
 30
0.0
 40
8.0
100
AcDbArc
 50
270.0
 51
302.51361463321933
  0
LINE
  5
28C
330
17
100
AcDbEntity
  8
0
100
AcDbLine
 10
11.30000000000006
 20
1524.2538900097902
 30
1.6879985076487695e-13
 11
11.299999999999997
 21
1527.6647615158763
 31
1.6939169639361443e-13
  0
ARC
  5
28D
330
17
100
AcDbEntity
  8
0
100
AcDbCircle
 10
9.5
 20
1523.0
 30
1.6908696665041134e-13
 40
5.0
100
AcDbArc
 50
68.89980397590728
 51
90.0
  0
LINE
  5
28E
330
17
100
AcDbEntity
  8
0
100
AcDbLine
 10
9.5
 20
1528.0
 30
1.6964207816272392e-13
 11
-9.5
 21
1528.0
 31
-2.7523603948984605e-16
  0
SPLINE
  5
28F
330
17
100
AcDbEntity
  8
0
100
AcDbSpline
 70
0
 71
8
 72
137
 73
128
 74
0
 40
0.0
 40
0.0
 40
0.0
 40
0.0
 40
0.0
 40
0.0
 40
0.0
 40
0.0
 40
0.0
 40
0.00701817902872419
 40
0.00701817902872419
 40
0.00701817902872419
 40
0.00701817902872419
 40
0.00701817902872419
 40
0.00701817902872419
 40
0.00701817902872419
 40
0.01465454268783857
 40
0.01465454268783857
 40
0.01465454268783857
 40
0.01465454268783857
 40
0.01465454268783857
 40
0.01465454268783857
 40
0.01465454268783857
 40
0.02687272454147844
 40
0.02687272454147844
 40
0.02687272454147844
 40
0.02687272454147844
 40
0.02687272454147844
 40
0.02687272454147844
 40
0.02687272454147844
 40
0.04163636094645967
 40
0.04163636094645967
 40
0.04163636094645967
 40
0.04163636094645967
 40
0.04163636094645967
 40
0.04163636094645967
 40
0.04163636094645967
 40
0.05639999735143864
 40
0.05639999735143864
 40
0.05639999735143864
 40
0.05639999735143864
 40
0.05639999735143864
 40
0.05639999735143864
 40
0.05639999735143864
 40
0.07065454284625346
 40
0.07065454284625346
 40
0.07065454284625346
 40
0.07065454284625346
 40
0.07065454284625346
 40
0.07065454284625346
 40
0.07065454284625346
 40
0.08541817925122225
 40
0.08541817925122225
 40
0.08541817925122225
 40
0.08541817925122225
 40
0.08541817925122225
 40
0.08541817925122225
 40
0.08541817925122225
 40
0.09967272474602712
 40
0.09967272474602712
 40
0.09967272474602712
 40
0.09967272474602712
 40
0.09967272474602712
 40
0.09967272474602712
 40
0.09967272474602712
 40
0.11392727024083199
 40
0.11392727024083199
 40
0.11392727024083199
 40
0.11392727024083199
 40
0.11392727024083199
 40
0.11392727024083199
 40
0.11392727024083199
 40
0.12869090664579044
 40
0.12869090664579044
 40
0.12869090664579044
 40
0.12869090664579044
 40
0.12869090664579044
 40
0.12869090664579044
 40
0.12869090664579044
 40
0.14345454305074212
 40
0.14345454305074212
 40
0.14345454305074212
 40
0.14345454305074212
 40
0.14345454305074212
 40
0.14345454305074212
 40
0.14345454305074212
 40
0.1582181794556938
 40
0.1582181794556938
 40
0.1582181794556938
 40
0.1582181794556938
 40
0.1582181794556938
 40
0.1582181794556938
 40
0.1582181794556938
 40
0.1724727249504922
 40
0.1724727249504922
 40
0.1724727249504922
 40
0.1724727249504922
 40
0.1724727249504922
 40
0.1724727249504922
 40
0.1724727249504922
 40
0.18570908862480578
 40
0.18570908862480578
 40
0.18570908862480578
 40
0.18570908862480578
 40
0.18570908862480578
 40
0.18570908862480578
 40
0.18570908862480578
 40
0.20047272502975025
 40
0.20047272502975025
 40
0.20047272502975025
 40
0.20047272502975025
 40
0.20047272502975025
 40
0.20047272502975025
 40
0.20047272502975025
 40
0.21523636143468342
 40
0.21523636143468342
 40
0.21523636143468342
 40
0.21523636143468342
 40
0.21523636143468342
 40
0.21523636143468342
 40
0.21523636143468342
 40
0.22898181601924064
 40
0.22898181601924064
 40
0.22898181601924064
 40
0.22898181601924064
 40
0.22898181601924064
 40
0.22898181601924064
 40
0.22898181601924064
 40
0.2344466203412425
 40
0.2344466203412425
 40
0.2344466203412425
 40
0.2344466203412425
 40
0.2344466203412425
 40
0.2344466203412425
 40
0.2344466203412425
 40
0.2344466203412425
 40
0.2344466203412425
 10
-9.499999999998137
 20
1527.9999999021195
 30
0.0
 10
-9.506890088027358
 20
1527.9999999021195
 30
0.0
 10
-9.51378015766575
 20
1527.9999898720707
 30
0.0
 10
-9.520670248969825
 20
1527.9999660659093
 30
0.0
 10
-9.527560233844714
 20
1527.9999362887195
 30
0.0
 10
-9.534450237351725
 20
1527.9998907087886
 30
0.0
 10
-9.541340096110194
 20
1527.999837435988
 30
0.0
 10
-9.548229892174922
 20
1527.9997721298794
 30
0.0
 10
-9.562616081540309
 20
1527.9996135281717
 30
0.0
 10
-9.570112466832027
 20
1527.9995180360866
 30
0.0
 10
-9.577608684819953
 20
1527.9994096982657
 30
0.0
 10
-9.585104709823032
 20
1527.999288515054
 30
0.0
 10
-9.592600516161257
 20
1527.9991544868587
 30
0.0
 10
-9.600096078155678
 20
1527.9990076141469
 30
0.0
 10
-9.607591370128395
 20
1527.9988478974478
 30
0.0
 10
-9.627078360440315
 20
1527.9983992412028
 30
0.0
 10
-9.639069597493307
 20
1527.998090265959
 30
0.0
 10
-9.651059972386609
 20
1527.9977484140447
 30
0.0
 10
-9.663049379958439
 20
1527.9973736882837
 30
0.0
 10
-9.67503771506018
 20
1527.9969660919048
 30
0.0
 10
-9.687024872556389
 20
1527.9965256285413
 30
0.0
 10
-9.699010747324785
 20
1527.9960523022285
 30
0.0
 10
-9.725476489296975
 20
1527.9949344774107
 30
0.0
 10
-9.739955718010961
 20
1527.9942748617098
 30
0.0
 10
-9.754432734956035
 20
1527.9935672781337
 30
0.0
 10
-9.768907354736292
 20
1527.9928117353757
 30
0.0
 10
-9.783379392002137
 20
1527.9920082429871
 30
0.0
 10
-9.797848661450258
 20
1527.9911568113798
 30
0.0
 10
-9.812314977823632
 20
1527.9902574518235
 30
0.0
 10
-9.841241333999434
 20
1527.9883629010756
 30
0.0
 10
-9.855701373816633
 20
1527.9873677098826
 30
0.0
 10
-9.870158090152408
 20
1527.9863246150007
 30
0.0
 10
-9.884611297862266
 20
1527.9852336294196
 30
0.0
 10
-9.899060811867923
 20
1527.9840947669857
 30
0.0
 10
-9.913506447157319
 20
1527.9829080424054
 30
0.0
 10
-9.927948018784624
 20
1527.9816734712415
 30
0.0
 10
-9.956324826229071
 20
1527.9791528893259
 30
0.0
 10
-9.970260350010353
 20
1527.9778701203325
 30
0.0
 10
-9.984191746808644
 20
1527.976542777716
 30
0.0
 10
-9.998118850293068
 20
1527.9751708770025
 30
0.0
 10
-10.012041494207278
 20
1527.9737544344612
 30
0.0
 10
-10.025959512369448
 20
1527.972293467107
 30
0.0
 10
-10.03987273867229
 20
1527.9707879926984
 30
0.0
 10
-10.068185999365255
 20
1527.9676327109578
 30
0.0
 10
-10.082585673310344
 20
1527.9659796691246
 30
0.0
 10
-10.096979844452703
 20
1527.9642789247969
 30
0.0
 10
-10.111368328431986
 20
1527.962530499385
 30
0.0
 10
-10.125750940993106
 20
1527.9607344151555
 30
0.0
 10
-10.140127497986231
 20
1527.958890695229
 30
0.0
 10
-10.154497815366792
 20
1527.9569993635798
 30
0.0
 10
-10.182730296340777
 20
1527.9531883857542
 30
0.0
 10
-10.196592895312744
 20
1527.9512719648474
 30
0.0
 10
-10.210449340552332
 20
1527.9493112046648
 30
0.0
 10
-10.224299466608862
 20
1527.9473061282943
 30
0.0
 10
-10.238143108140017
 20
1527.9452567595642
 30
0.0
 10
-10.251980099911849
 20
1527.9431631230443
 30
0.0
 10
-10.265810276798776
 20
1527.9410252440425
 30
0.0
 10
-10.29345667076839
 20
1527.9366610531742
 30
0.0
 10
-10.307272887863338
 20
1527.9344347413062
 30
0.0
 10
-10.321081960051222
 20
1527.9321642390532
 30
0.0
 10
-10.334883722439766
 20
1527.9298495732016
 30
0.0
 10
-10.348678010261596
 20
1527.927490771276
 30
0.0
 10
-10.362464658874252
 20
1527.9250878615392
 30
0.0
 10
-10.376243503760195
 20
1527.9226408729903
 30
0.0
 10
-10.40427707432042
 20
1527.9175698321128
 30
0.0
 10
-10.418531220693719
 20
1527.9149425772348
 30
0.0
 10
-10.43277663700333
 20
1527.912268103771
 30
0.0
 10
-10.447013140768917
 20
1527.9095464456045
 30
0.0
 10
-10.461240549673198
 20
1527.9067776374648
 30
0.0
 10
-10.475458681561935
 20
1527.903961714927
 30
0.0
 10
-10.489667354443933
 20
1527.9010987144106
 30
0.0
 10
-10.518065418538155
 20
1527.89527863195
 30
0.0
 10
-10.532254809764858
 20
1527.8923215500029
 30
0.0
 10
-10.546434378343013
 20
1527.8893174646041
 30
0.0
 10
-10.56060394262707
 20
1527.8862664138608
 30
0.0
 10
-10.574763321154093
 20
1527.883168436719
 30
0.0
 10
-10.58891233264374
 20
1527.880023572968
 30
0.0
 10
-10.60305079599828
 20
1527.8768318632383
 30
0.0
 10
-10.631306264606883
 20
1527.8703548347644
 30
0.0
 10
-10.64542326987536
 20
1527.8670695160167
 30
0.0
 10
-10.659529365192878
 20
1527.8637374342293
 30
0.0
 10
-10.673624369846367
 20
1527.8603586317101
 30
0.0
 10
-10.687708103324816
 20
1527.8569331516053
 30
0.0
 10
-10.701780385319278
 20
1527.8534610378958
 30
0.0
 10
-10.715841035722875
 20
1527.8499423354
 30
0.0
 10
-10.743454270818086
 20
1527.8429347836518
 30
0.0
 10
-10.757007656063697
 20
1527.8394490889243
 30
0.0
 10
-10.770549868439915
 20
1527.8359200466841
 30
0.0
 10
-10.784080746211151
 20
1527.8323476987484
 30
0.0
 10
-10.79760012783394
 20
1527.8287320876557
 30
0.0
 10
-10.811107851956944
 20
1527.825073256669
 30
0.0
 10
-10.824603757420947
 20
1527.8213712497732
 30
0.0
 10
-10.850608471537436
 20
1527.8141484834443
 30
0.0
 10
-10.86311893045383
 20
1527.8106336655508
 30
0.0
 10
-10.87561893112973
 20
1527.8070816937934
 30
0.0
 10
-10.888108344841243
 20
1527.8034926045011
 30
0.0
 10
-10.900587043018888
 20
1527.7998664345387
 30
0.0
 10
-10.913054897247603
 20
1527.7962032213054
 30
0.0
 10
-10.925511779266737
 20
1527.7925030027336
 30
0.0
 10
-10.951839394407381
 20
1527.7845974181428
 30
0.0
 10
-10.965707418144472
 20
1527.7803830291414
 30
0.0
 10
-10.979561454415096
 20
1527.776122703666
 30
0.0
 10
-10.99340132571016
 20
1527.771816495917
 30
0.0
 10
-11.007226854777693
 20
1527.7674644609165
 30
0.0
 10
-11.021037864622848
 20
1527.7630666545085
 30
0.0
 10
-11.034834178507893
 20
1527.7586231333585
 30
0.0
 10
-11.062397061396528
 20
1527.7496447765477
 30
0.0
 10
-11.076163630414158
 20
1527.7451099408831
 30
0.0
 10
-11.089915150524487
 20
1527.7405295054452
 30
0.0
 10
-11.103651445523012
 20
1527.7359035285372
 30
0.0
 10
-11.117372339481305
 20
1527.731232069276
 30
0.0
 10
-11.13107765674705
 20
1527.7265151875952
 30
0.0
 10
-11.144767221944015
 20
1527.7217529442432
 30
0.0
 10
-11.171171488481544
 20
1527.7124694120453
 30
0.0
 10
-11.183888310930442
 20
1527.7079541560279
 30
0.0
 10
-11.196591186006325
 20
1527.7033996824161
 30
0.0
 10
-11.209279972617887
 20
1527.698806041502
 30
0.0
 10
-11.22195452989493
 20
1527.6941732841854
 30
0.0
 10
-11.234614717188377
 20
1527.689501461975
 30
0.0
 10
-11.247260394070265
 20
1527.6847906269857
 30
0.0
 10
-11.264913159446952
 20
1527.6781524476517
 30
0.0
 10
-11.269932582836741
 20
1527.6762579052074
 30
0.0
 10
-11.274949681692313
 20
1527.6743572079213
 30
0.0
 10
-11.279964447208707
 20
1527.6724503591215
 30
0.0
 10
-11.28497687058682
 20
1527.6705373621517
 30
0.0
 10
-11.289986943033398
 20
1527.66861822037
 30
0.0
 10
-11.294994655761034
 20
1527.6666929371504
 30
0.0
 10
-11.299999999988177
 20
1527.6647615158809
 30
0.0
  0
LINE
  5
290
330
17
100
AcDbEntity
  8
0
100
AcDbLine
 10
-11.299999999986923
 20
1527.6647615158774
 30
5.98873784689175e-14
 11
-11.299999999999955
 21
1524.253890009791
 31
2.6569822507240678e-14
  0
ARC
  5
291
330
17
100
AcDbEntity
  8
0
100
AcDbCircle
 10
-7.000000000000002
 20
1531.0
 30
0.0
 40
8.0
100
AcDbArc
 50
-122.51361463322132
 51
-90.0
  0
LINE
  5
292
330
17
100
AcDbEntity
  8
0
100
AcDbLine
 10
-7.000000000000003
 20
1523.0
 30
0.0
 11
7.000000000000003
 21
1523.0
 31
0.0
  0
LINE
  5
293
330
17
100
AcDbEntity
  8
0
100
AcDbLine
 10
-12.5
 20
1308.0
 30
3.1522499320840773e-14
 11
-11.299999999999942
 21
1308.0
 31
7.830124033019781e-14
  0
LINE
  5
294
330
17
100
AcDbEntity
  8
0
100
AcDbLine
 10
-11.299999999999942
 20
1308.0
 30
7.830124033019781e-14
 11
-11.299999999999955
 21
1524.253890009791
 31
2.6569822507240678e-14
  0
ARC
  5
295
330
17
100
AcDbEntity
  8
0
100
AcDbCircle
 10
-7.000000000000002
 20
1531.0
 30
0.0
 40
8.0
100
AcDbArc
 50
-133.43253655778977
 51
-122.51361463322132
  0
LINE
  5
296
330
17
100
AcDbEntity
  8
0
100
AcDbLine
 10
-12.499999999999973
 20
1525.190524980689
 30
-4.855283725961941e-14
 11
-12.5
 21
1308.0
 31
3.1522499320840773e-14
  0
LINE
  5
297
330
17
100
AcDbEntity
  8
0
100
AcDbLine
 10
-12.5
 20
329.0
 30
-2.3359525529796133e-14
 11
-12.5
 21
358.0
 31
-2.1213094348854162e-14
  0
LINE
  5
298
330
17
100
AcDbEntity
  8
0
100
AcDbLine
 10
-12.5
 20
358.0
 30
-2.1213094348854162e-14
 11
-14.0
 21
358.0
 31
7.279851353690523e-16
  0
LINE
  5
299
330
17
100
AcDbEntity
  8
0
100
AcDbLine
 10
-14.0
 20
358.0
 30
7.279851353690523e-16
 11
-14.0
 21
329.0
 31
-2.4916616360439017e-15
  0
LINE
  5
29A
330
17
100
AcDbEntity
  8
0
100
AcDbLine
 10
-14.0
 20
329.0
 30
-2.4916616360439017e-15
 11
-12.5
 21
329.0
 31
-2.3359525529796133e-14
  0
LINE
  5
29B
330
17
100
AcDbEntity
  8
0
100
AcDbLine
 10
-11.299999999999963
 20
328.8280430818293
 30
4.8163983885370365e-14
 11
-11.299999999999942
 21
329.0
 31
3.261696328080103e-13
  0
LINE
  5
29C
330
17
100
AcDbEntity
  8
0
100
AcDbLine
 10
-11.299999999999942
 20
329.0
 30
3.261696328080103e-13
 11
-12.5
 21
329.0
 31
-2.3359525529796133e-14
  0
LINE
  5
29D
330
17
100
AcDbEntity
  8
0
100
AcDbLine
 10
-12.5
 20
329.0
 30
-2.3359525529796133e-14
 11
-12.499999999999966
 21
328.33012701892227
 31
2.0893746952062685e-13
  0
ARC
  5
29E
330
17
100
AcDbEntity
  8
0
100
AcDbCircle
 10
-10.0
 20
324.0
 30
0.0
 40
5.0
100
AcDbArc
 50
105.07006214488844
 51
119.99999999999923
  0
ARC
  5
29F
330
17
100
AcDbEntity
  8
0
100
AcDbCircle
 10
-7.000000000000002
 20
1531.0
 30
0.0
 40
8.0
100
AcDbArc
 50
-133.43253655778977
 51
-122.51361463322132
  0
LINE
  5
2A0
330
17
100
AcDbEntity
  8
0
100
AcDbLine
 10
-11.299999999999955
 20
1524.253890009791
 30
2.6569822507240678e-14
 11
-11.299999999986923
 21
1527.6647615158774
 31
5.98873784689175e-14
  0
SPLINE
  5
2A1
330
17
100
AcDbEntity
  8
0
100
AcDbSpline
 70
0
 71
8
 72
102
 73
93
 74
0
 40
0.0
 40
0.0
 40
0.0
 40
0.0
 40
0.0
 40
0.0
 40
0.0
 40
0.0
 40
0.0
 40
0.04725888538690643
 40
0.04725888538690643
 40
0.04725888538690643
 40
0.04725888538690643
 40
0.04725888538690643
 40
0.04725888538690643
 40
0.04725888538690643
 40
0.1286116669220839
 40
0.1286116669220839
 40
0.1286116669220839
 40
0.1286116669220839
 40
0.1286116669220839
 40
0.1286116669220839
 40
0.1286116669220839
 40
0.2128699049385325
 40
0.2128699049385325
 40
0.2128699049385325
 40
0.2128699049385325
 40
0.2128699049385325
 40
0.2128699049385325
 40
0.2128699049385325
 40
0.2971281429550261
 40
0.2971281429550261
 40
0.2971281429550261
 40
0.2971281429550261
 40
0.2971281429550261
 40
0.2971281429550261
 40
0.2971281429550261
 40
0.38138638097164895
 40
0.38138638097164895
 40
0.38138638097164895
 40
0.38138638097164895
 40
0.38138638097164895
 40
0.38138638097164895
 40
0.38138638097164895
 40
0.4656446189882911
 40
0.4656446189882911
 40
0.4656446189882911
 40
0.4656446189882911
 40
0.4656446189882911
 40
0.4656446189882911
 40
0.4656446189882911
 40
0.5411864875601475
 40
0.5411864875601475
 40
0.5411864875601475
 40
0.5411864875601475
 40
0.5411864875601475
 40
0.5411864875601475
 40
0.5411864875601475
 40
0.6254447255768623
 40
0.6254447255768623
 40
0.6254447255768623
 40
0.6254447255768623
 40
0.6254447255768623
 40
0.6254447255768623
 40
0.6254447255768623
 40
0.7067975071123084
 40
0.7067975071123084
 40
0.7067975071123084
 40
0.7067975071123084
 40
0.7067975071123084
 40
0.7067975071123084
 40
0.7067975071123084
 40
0.7910557451290631
 40
0.7910557451290631
 40
0.7910557451290631
 40
0.7910557451290631
 40
0.7910557451290631
 40
0.7910557451290631
 40
0.7910557451290631
 40
0.8753139831457626
 40
0.8753139831457626
 40
0.8753139831457626
 40
0.8753139831457626
 40
0.8753139831457626
 40
0.8753139831457626
 40
0.8753139831457626
 40
0.9566667646812058
 40
0.9566667646812058
 40
0.9566667646812058
 40
0.9566667646812058
 40
0.9566667646812058
 40
0.9566667646812058
 40
0.9566667646812058
 40
1.0
 40
1.0
 40
1.0
 40
1.0
 40
1.0
 40
1.0
 40
1.0
 40
1.0
 40
1.0
 10
-11.299999999988177
 20
1527.6647615158809
 30
0.0
 10
-11.307584444470798
 20
1527.6618348925103
 30
0.0
 10
-11.315163450779004
 20
1527.658894175926
 30
0.0
 10
-11.322736988360713
 20
1527.6559393779166
 30
0.0
 10
-11.330305026694695
 20
1527.652970510351
 30
0.0
 10
-11.337867535290563
 20
1527.6499875851766
 30
0.0
 10
-11.345424483688781
 20
1527.6469906144216
 30
0.0
 10
-11.352975841460655
 20
1527.6439796101924
 30
0.0
 10
-11.373511022799143
 20
1527.6357472202185
 30
0.0
 10
-11.38648381053384
 20
1527.6304983062603
 30
0.0
 10
-11.399439786348292
 20
1527.625207904965
 30
0.0
 10
-11.412378795464521
 20
1527.6198760791874
 30
0.0
 10
-11.425300683390665
 20
1527.6145028924739
 30
0.0
 10
-11.43820529592101
 20
1527.609088409062
 30
0.0
 10
-11.451092479135982
 20
1527.6036326938813
 30
0.0
 10
-11.477291308248889
 20
1527.5924426140314
 30
0.0
 10
-11.490601675807573
 20
1527.5867052564097
 30
0.0
 10
-11.503893011388469
 20
1527.580923812592
 30
0.0
 10
-11.517165144649143
 20
1527.5750983562702
 30
0.0
 10
-11.530417905594446
 20
1527.569228961926
 30
0.0
 10
-11.543651124576524
 20
1527.5633157048271
 30
0.0
 10
-11.556864632294818
 20
1527.5573586610296
 30
0.0
 10
-11.58325188729729
 20
1527.5453571537257
 30
0.0
 10
-11.596425634594903
 20
1527.5393126902118
 30
0.0
 10
-11.60957933273566
 20
1527.5332245936818
 30
0.0
 10
-11.622712813131777
 20
1527.527092941757
 30
0.0
 10
-11.635825907560914
 20
1527.5209178128405
 30
0.0
 10
-11.648918448166201
 20
1527.5146992861141
 30
0.0
 10
-11.66199026745621
 20
1527.5084374415396
 30
0.0
 10
-11.688092129153752
 20
1527.4958272781755
 30
0.0
 10
-11.701122171574598
 20
1527.489478959379
 30
0.0
 10
-11.714131158441605
 20
1527.48308748421
 30
0.0
 10
-11.727118923012291
 20
1527.4766529341798
 30
0.0
 10
-11.740085298927609
 20
1527.4701753915697
 30
0.0
 10
-11.753030120211937
 20
1527.463654939433
 30
0.0
 10
-11.765953221273083
 20
1527.457091661594
 30
0.0
 10
-11.791755652531462
 20
1527.443879623701
 30
0.0
 10
-11.804634982741858
 20
1527.437230863639
 30
0.0
 10
-11.817492262324752
 20
1527.4305394470568
 30
0.0
 10
-11.830327326472633
 20
1527.423805459311
 30
0.0
 10
-11.843140010779205
 20
1527.4170289865192
 30
0.0
 10
-11.855930151239352
 20
1527.4102101155604
 30
0.0
 10
-11.868697584249157
 20
1527.403348934076
 30
0.0
 10
-11.892868305961018
 20
1527.3902562720602
 30
0.0
 10
-11.904276081779992
 20
1527.3840330752946
 30
0.0
 10
-11.915665356451706
 20
1527.3777760038777
 30
0.0
 10
-11.927036012635018
 20
1527.371485122003
 30
0.0
 10
-11.938387933258763
 20
1527.3651604943489
 30
0.0
 10
-11.94972100152176
 20
1527.3588021860824
 30
0.0
 10
-11.961035100892802
 20
1527.352410262855
 30
0.0
 10
-11.984928400198939
 20
1527.338817918136
 30
0.0
 10
-11.997502941786685
 20
1527.331609307945
 30
0.0
 10
-12.0100535785444
 20
1527.3243590520094
 30
0.0
 10
-12.022580149576891
 20
1527.3170672428507
 30
0.0
 10
-12.035082494423278
 20
1527.309733973731
 30
0.0
 10
-12.047560453056983
 20
1527.3023593386567
 30
0.0
 10
-12.06001386588573
 20
1527.2949434323775
 30
0.0
 10
-12.084442705484383
 20
1527.280286409153
 30
0.0
 10
-12.096419806680357
 20
1527.2730480829453
 30
0.0
 10
-12.108373734085491
 20
1527.2657714577135
 30
0.0
 10
-12.120304344837871
 20
1527.2584566200458
 30
0.0
 10
-12.1322114964676
 20
1527.2511036571666
 30
0.0
 10
-12.144095046896842
 20
1527.2437126569387
 30
0.0
 10
-12.155954854439809
 20
1527.2362837078613
 30
0.0
 10
-12.180049412714064
 20
1527.2210834185385
 30
0.0
 10
-12.192282426979864
 20
1527.2133093257298
 30
0.0
 10
-12.204489663620116
 20
1527.2054947196773
 30
0.0
 10
-12.216670966122498
 20
1527.1976397001367
 30
0.0
 10
-12.228826178442416
 20
1527.1897443675853
 30
0.0
 10
-12.24095514500299
 20
1527.181808823223
 30
0.0
 10
-12.253057710695055
 20
1527.1738331689744
 30
0.0
 10
-12.277209731059253
 20
1527.157801845995
 30
0.0
 10
-12.289259185743685
 20
1527.149746177256
 30
0.0
 10
-12.301281930289075
 20
1527.1416506039134
 30
0.0
 10
-12.313277810538379
 20
1527.1335152293261
 30
0.0
 10
-12.325246672818896
 20
1527.1253401575618
 30
0.0
 10
-12.337188363942275
 20
1527.1171254934018
 30
0.0
 10
-12.349102731204498
 20
1527.1088713423392
 30
0.0
 10
-12.372466620768218
 20
1527.0925702626694
 30
0.0
 10
-12.383918005311838
 20
1527.0845260031394
 30
0.0
 10
-12.395343639007818
 20
1527.0764451275795
 30
0.0
 10
-12.406743385282123
 20
1527.0683277321898
 30
0.0
 10
-12.418117107995604
 20
1527.0601739137794
 30
0.0
 10
-12.42946467144399
 20
1527.0519837697664
 30
0.0
 10
-12.440785940357909
 20
1527.043757398177
 30
0.0
 10
-12.458097070073336
 20
1527.031093808058
 30
0.0
 10
-12.464105861577313
 20
1527.0266824677876
 30
0.0
 10
-12.470107134037427
 20
1527.0222608917425
 30
0.0
 10
-12.476100867112415
 20
1527.0178290948772
 30
0.0
 10
-12.48208704049712
 20
1527.013387092195
 30
0.0
 10
-12.48806563392251
 20
1527.0089348987472
 30
0.0
 10
-12.494036627155662
 20
1527.004472529633
 30
0.0
 10
-12.499999999999773
 20
1526.9999999999998
 30
0.0
  0
LINE
  5
2A2
330
17
100
AcDbEntity
  8
0
100
AcDbLine
 10
-12.499999999999943
 20
1527.0
 30
2.1854065054815548e-13
 11
-12.499999999999973
 21
1525.190524980689
 31
-4.855283725961941e-14
  0
LINE
  5
2A3
330
17
100
AcDbEntity
  8
0
100
AcDbLine
 10
-14.5
 20
1308.0
 30
-4.662317722789079e-15
 11
-12.5
 21
1308.0
 31
3.1522499320840773e-14
  0
LINE
  5
2A4
330
17
100
AcDbEntity
  8
0
100
AcDbLine
 10
-12.5
 20
1308.0
 30
3.1522499320840773e-14
 11
-12.499999999999973
 21
1525.190524980689
 31
-4.855283725961941e-14
  0
ARC
  5
2A5
330
17
100
AcDbEntity
  8
0
100
AcDbCircle
 10
-7.000000000000002
 20
1531.0
 30
0.0
 40
8.0
100
AcDbArc
 50
-142.79991411822272
 51
-133.43253655778977
  0
SPLINE
  5
2A6
330
17
100
AcDbEntity
  8
0
100
AcDbSpline
 70
0
 71
8
 72
221
 73
212
 74
0
 40
0.0
 40
0.0
 40
0.0
 40
0.0
 40
0.0
 40
0.0
 40
0.0
 40
0.0
 40
0.0
 40
0.023397068474676225
 40
0.023397068474676225
 40
0.023397068474676225
 40
0.023397068474676225
 40
0.023397068474676225
 40
0.023397068474676225
 40
0.023397068474676225
 40
0.05725419341683329
 40
0.05725419341683329
 40
0.05725419341683329
 40
0.05725419341683329
 40
0.05725419341683329
 40
0.05725419341683329
 40
0.05725419341683329
 40
0.09111131835900461
 40
0.09111131835900461
 40
0.09111131835900461
 40
0.09111131835900461
 40
0.09111131835900461
 40
0.09111131835900461
 40
0.09111131835900461
 40
0.12496844330113724
 40
0.12496844330113724
 40
0.12496844330113724
 40
0.12496844330113724
 40
0.12496844330113724
 40
0.12496844330113724
 40
0.12496844330113724
 40
0.1576580811771226
 40
0.1576580811771226
 40
0.1576580811771226
 40
0.1576580811771226
 40
0.1576580811771226
 40
0.1576580811771226
 40
0.1576580811771226
 40
0.19034771905313672
 40
0.19034771905313672
 40
0.19034771905313672
 40
0.19034771905313672
 40
0.19034771905313672
 40
0.19034771905313672
 40
0.19034771905313672
 40
0.22420484399530854
 40
0.22420484399530854
 40
0.22420484399530854
 40
0.22420484399530854
 40
0.22420484399530854
 40
0.22420484399530854
 40
0.22420484399530854
 40
0.25572699480506417
 40
0.25572699480506417
 40
0.25572699480506417
 40
0.25572699480506417
 40
0.25572699480506417
 40
0.25572699480506417
 40
0.25572699480506417
 40
0.28958411974722353
 40
0.28958411974722353
 40
0.28958411974722353
 40
0.28958411974722353
 40
0.28958411974722353
 40
0.28958411974722353
 40
0.28958411974722353
 40
0.32344124468937907
 40
0.32344124468937907
 40
0.32344124468937907
 40
0.32344124468937907
 40
0.32344124468937907
 40
0.32344124468937907
 40
0.32344124468937907
 40
0.3572983696315547
 40
0.3572983696315547
 40
0.3572983696315547
 40
0.3572983696315547
 40
0.3572983696315547
 40
0.3572983696315547
 40
0.3572983696315547
 40
0.3899880075076098
 40
0.3899880075076098
 40
0.3899880075076098
 40
0.3899880075076098
 40
0.3899880075076098
 40
0.3899880075076098
 40
0.3899880075076098
 40
0.4238451324497424
 40
0.4238451324497424
 40
0.4238451324497424
 40
0.4238451324497424
 40
0.4238451324497424
 40
0.4238451324497424
 40
0.4238451324497424
 40
0.457702257391927
 40
0.457702257391927
 40
0.457702257391927
 40
0.457702257391927
 40
0.457702257391927
 40
0.457702257391927
 40
0.457702257391927
 40
0.4915593823341159
 40
0.4915593823341159
 40
0.4915593823341159
 40
0.4915593823341159
 40
0.4915593823341159
 40
0.4915593823341159
 40
0.4915593823341159
 40
0.5230815331438664
 40
0.5230815331438664
 40
0.5230815331438664
 40
0.5230815331438664
 40
0.5230815331438664
 40
0.5230815331438664
 40
0.5230815331438664
 40
0.5569386580859987
 40
0.5569386580859987
 40
0.5569386580859987
 40
0.5569386580859987
 40
0.5569386580859987
 40
0.5569386580859987
 40
0.5569386580859987
 40
0.5907957830281899
 40
0.5907957830281899
 40
0.5907957830281899
 40
0.5907957830281899
 40
0.5907957830281899
 40
0.5907957830281899
 40
0.5907957830281899
 40
0.6234854209042425
 40
0.6234854209042425
 40
0.6234854209042425
 40
0.6234854209042425
 40
0.6234854209042425
 40
0.6234854209042425
 40
0.6234854209042425
 40
0.6561750587802964
 40
0.6561750587802964
 40
0.6561750587802964
 40
0.6561750587802964
 40
0.6561750587802964
 40
0.6561750587802964
 40
0.6561750587802964
 40
0.6853622354571461
 40
0.6853622354571461
 40
0.6853622354571461
 40
0.6853622354571461
 40
0.6853622354571461
 40
0.6853622354571461
 40
0.6853622354571461
 40
0.7192193603993478
 40
0.7192193603993478
 40
0.7192193603993478
 40
0.7192193603993478
 40
0.7192193603993478
 40
0.7192193603993478
 40
0.7192193603993478
 40
0.7530764853415308
 40
0.7530764853415308
 40
0.7530764853415308
 40
0.7530764853415308
 40
0.7530764853415308
 40
0.7530764853415308
 40
0.7530764853415308
 40
0.7869336102837795
 40
0.7869336102837795
 40
0.7869336102837795
 40
0.7869336102837795
 40
0.7869336102837795
 40
0.7869336102837795
 40
0.7869336102837795
 40
0.8207907352259305
 40
0.8207907352259305
 40
0.8207907352259305
 40
0.8207907352259305
 40
0.8207907352259305
 40
0.8207907352259305
 40
0.8207907352259305
 40
0.8546478601681697
 40
0.8546478601681697
 40
0.8546478601681697
 40
0.8546478601681697
 40
0.8546478601681697
 40
0.8546478601681697
 40
0.8546478601681697
 40
0.8885049851104065
 40
0.8885049851104065
 40
0.8885049851104065
 40
0.8885049851104065
 40
0.8885049851104065
 40
0.8885049851104065
 40
0.8885049851104065
 40
0.9258645712500333
 40
0.9258645712500333
 40
0.9258645712500333
 40
0.9258645712500333
 40
0.9258645712500333
 40
0.9258645712500333
 40
0.9258645712500333
 40
0.948046825526024
 40
0.948046825526024
 40
0.948046825526024
 40
0.948046825526024
 40
0.948046825526024
 40
0.948046825526024
 40
0.948046825526024
 40
1.0
 40
1.0
 40
1.0
 40
1.0
 40
1.0
 40
1.0
 40
1.0
 40
1.0
 40
1.0
 10
-13.372232093594441
 20
1526.1631975299274
 30
0.0
 10
-13.378568760996131
 20
1526.1554404908402
 30
0.0
 10
-13.384887669233091
 20
1526.147668944425
 30
0.0
 10
-13.391188779556261
 20
1526.139882938116
 30
0.0
 10
-13.397472053369171
 20
1526.1320825194712
 30
0.0
 10
-13.403737452227945
 20
1526.1242677361724
 30
0.0
 10
-13.40998493784129
 20
1526.1164386360251
 30
0.0
 10
-13.416214472070509
 20
1526.108595266958
 30
0.0
 10
-13.431414538316341
 20
1526.0893672181805
 30
0.0
 10
-13.44036538992051
 20
1526.077966980788
 30
0.0
 10
-13.449278456637979
 20
1526.0665371104549
 30
0.0
 10
-13.458153624046192
 20
1526.0550777533128
 30
0.0
 10
-13.466990778404035
 20
1526.0435890560198
 30
0.0
 10
-13.475789806651864
 20
1526.0320711657596
 30
0.0
 10
-13.484550596411482
 20
1526.0205242302436
 30
0.0
 10
-13.50199547556082
 20
1525.997372565171
 30
0.0
 10
-13.510679564959451
 20
1525.9857678356038
 30
0.0
 10
-13.51932519248536
 20
1525.9741343572405
 30
0.0
 10
-13.527932247135356
 20
1525.9624722788283
 30
0.0
 10
-13.536500618599705
 20
1525.9507817496235
 30
0.0
 10
-13.545030197262166
 20
1525.939062919392
 30
0.0
 10
-13.553520874199966
 20
1525.9273159384109
 30
0.0
 10
-13.570424208167644
 20
1525.9037659765233
 30
0.0
 10
-13.578836865206139
 20
1525.8919629956042
 30
0.0
 10
-13.58721040407004
 20
1525.8801321654962
 30
0.0
 10
-13.59554471723521
 20
1525.8682736374803
 30
0.0
 10
-13.603839697882636
 20
1525.8563875633304
 30
0.0
 10
-13.612095239898407
 20
1525.8444740953141
 30
0.0
 10
-13.620311237873738
 20
1525.8325333861937
 30
0.0
 10
-13.636381993259445
 20
1525.8090104749097
 30
0.0
 10
-13.644239437928565
 20
1525.7974301086542
 30
0.0
 10
-13.652059826871309
 20
1525.7858246283986
 30
0.0
 10
-13.659843066469032
 20
1525.774194172501
 30
0.0
 10
-13.66758906372548
 20
1525.7625388797314
 30
0.0
 10
-13.675297726266779
 20
1525.7508588892777
 30
0.0
 10
-13.682968962341446
 20
1525.7391543407418
 30
0.0
 10
-13.698236399299313
 20
1525.7156964075377
 30
0.0
 10
-13.705832600189254
 20
1525.7039430228604
 30
0.0
 10
-13.713391192361227
 20
1525.692165360123
 30
0.0
 10
-13.72091208531775
 20
1525.6803635597441
 30
0.0
 10
-13.728395189192856
 20
1525.6685377625436
 30
0.0
 10
-13.735840414752102
 20
1525.6566881097408
 30
0.0
 10
-13.743247673392547
 20
1525.644814742957
 30
0.0
 10
-13.758249266741018
 20
1525.6205959748024
 30
0.0
 10
-13.765840834710598
 20
1525.6082488596417
 30
0.0
 10
-13.773391483313707
 20
1525.5958766165215
 30
0.0
 10
-13.780901115549531
 20
1525.5834794036768
 30
0.0
 10
-13.788369635154288
 20
1525.5710573797855
 30
0.0
 10
-13.7957969466012
 20
1525.5586107039717
 30
0.0
 10
-13.80318295510051
 20
1525.5461395358036
 30
0.0
 10
-13.817365653167794
 20
1525.5220102934413
 30
0.0
 10
-13.82416785577855
 20
1525.5103554596913
 30
0.0
 10
-13.830934098527688
 20
1525.4986796631815
 30
0.0
 10
-13.837664306072298
 20
1525.486983033371
 30
0.0
 10
-13.844358403630592
 20
1525.4752657000395
 30
0.0
 10
-13.851016316981893
 20
1525.4635277932891
 30
0.0
 10
-13.857637972466664
 20
1525.4517694435433
 30
0.0
 10
-13.871296423322269
 20
1525.4273396260728
 30
0.0
 10
-13.87832763698757
 20
1525.4146650376601
 30
0.0
 10
-13.885316847406333
 20
1525.4019671783183
 30
0.0
 10
-13.892263964758653
 20
1525.3892462104643
 30
0.0
 10
-13.899168899980838
 20
1525.3765022969283
 30
0.0
 10
-13.906031564765366
 20
1525.3637356009501
 30
0.0
 10
-13.912851871560923
 20
1525.3509462861816
 30
0.0
 10
-13.926407595583825
 20
1525.3253227471914
 30
0.0
 10
-13.933143012818064
 20
1525.3124885229577
 30
0.0
 10
-13.9398358984801
 20
1525.299632008046
 30
0.0
 10
-13.94648616654043
 20
1525.2867533669162
 30
0.0
 10
-13.953093731735088
 20
1525.2738527644167
 30
0.0
 10
-13.959658509565628
 20
1525.260930365793
 30
0.0
 10
-13.966180416299109
 20
1525.2479863366837
 30
0.0
 10
-13.979138321637123
 20
1525.2220553495567
 30
0.0
 10
-13.985574320248267
 20
1525.2090683915258
 30
0.0
 10
-13.991967281834283
 20
1525.196060135059
 30
0.0
 10
-13.998317124202337
 20
1525.183030746564
 30
0.0
 10
-14.004623765934044
 20
1525.1699803928254
 30
0.0
 10
-14.01088712638546
 20
1525.1569092410016
 30
0.0
 10
-14.017107125687081
 20
1525.1438174586283
 30
0.0
 10
-14.029247259005711
 20
1525.118045114983
 30
0.0
 10
-14.035170337254169
 20
1525.1053659405857
 30
0.0
 10
-14.041052848297912
 20
1525.0926678415549
 30
0.0
 10
-14.046894721625913
 20
1525.079950969335
 30
0.0
 10
-14.05269588740743
 20
1525.067215475681
 30
0.0
 10
-14.058456276492032
 20
1525.054461512659
 30
0.0
 10
-14.064175820409572
 20
1525.041689232646
 30
0.0
 10
-14.075735890579264
 20
1525.015651542434
 30
0.0
 10
-14.08157344229815
 20
1525.0023848116025
 30
0.0
 10
-14.087367031211144
 20
1524.9890987654765
 30
0.0
 10
-14.093116582793272
 20
1524.9757935740367
 30
0.0
 10
-14.098822023310358
 20
1524.9624694076033
 30
0.0
 10
-14.104483279818977
 20
1524.9491264368367
 30
0.0
 10
-14.110100280166485
 20
1524.935764832737
 30
0.0
 10
-14.121245625815549
 20
1524.909004700553
 30
0.0
 10
-14.126773971122777
 20
1524.8956061724546
 30
0.0
 10
-14.132257917550941
 20
1524.8821893536922
 30
0.0
 10
-14.13769739453672
 20
1524.8687544159263
 30
0.0
 10
-14.14309233231525
 20
1524.8553015311425
 30
0.0
 10
-14.148442661920097
 20
1524.8418308716462
 30
0.0
 10
-14.153748315183277
 20
1524.8283426100652
 30
0.0
 10
-14.164270134287237
 20
1524.8013312286328
 30
0.0
 10
-14.169486300133386
 20
1524.7878081087676
 30
0.0
 10
-14.174657654904275
 20
1524.7742677327024
 30
0.0
 10
-14.179784132036145
 20
1524.7607102736906
 30
0.0
 10
-14.184865665770966
 20
1524.7471359052872
 30
0.0
 10
-14.189902191156376
 20
1524.7335448013516
 30
0.0
 10
-14.19489364404573
 20
1524.7199371360455
 30
0.0
 10
-14.204445152836692
 20
1524.6936286214304
 30
0.0
 10
-14.209011219697969
 20
1524.680929954433
 30
0.0
 10
-14.213538110563398
 20
1524.6682172236415
 30
0.0
 10
-14.21802577492481
 20
1524.655490570071
 30
0.0
 10
-14.222474162884389
 20
1524.6427501349492
 30
0.0
 10
-14.226883225154646
 20
1524.6299960597194
 30
0.0
 10
-14.231252913058453
 20
1524.617228486038
 30
0.0
 10
-14.240234204404574
 20
1524.5907198899379
 30
0.0
 10
-14.244839751181015
 20
1524.5769768154667
 30
0.0
 10
-14.249399759298866
 20
1524.5632185081543
 30
0.0
 10
-14.253914170017142
 20
1524.5494451440588
 30
0.0
 10
-14.258382925413281
 20
1524.5356568995057
 30
0.0
 10
-14.262805968383189
 20
1524.5218539510877
 30
0.0
 10
-14.267183242641229
 20
1524.5080364756632
 30
0.0
 10
-14.275846142799217
 20
1524.4803728250545
 30
0.0
 10
-14.280131768703573
 20
1524.4665266498564
 30
0.0
 10
-14.284371514966217
 20
1524.4526663018894
 30
0.0
 10
-14.288565326944518
 20
1524.4387919585267
 30
0.0
 10
-14.292713150820239
 20
1524.424903797391
 30
0.0
 10
-14.29681493359956
 20
1524.4110019963507
 30
0.0
 10
-14.300870623113084
 20
1524.3970867335217
 30
0.0
 10
-14.308751452749615
 20
1524.3697099357144
 30
0.0
 10
-14.31257972039445
 20
1524.3562493010265
 30
0.0
 10
-14.316364924736163
 20
1524.3427764437474
 30
0.0
 10
-14.320107020281723
 20
1524.3292915246168
 30
0.0
 10
-14.323805962259287
 20
1524.3157947045736
 30
0.0
 10
-14.327461706618173
 20
1524.302286144756
 30
0.0
 10
-14.331074210028877
 20
1524.2887660064996
 30
0.0
 10
-14.338212649737253
 20
1524.2617028961838
 30
0.0
 10
-14.341738586038069
 20
1524.2481599241114
 30
0.0
 10
-14.345221196177302
 20
1524.2346056966603
 30
0.0
 10
-14.348660438272171
 20
1524.2210403755491
 30
0.0
 10
-14.352056271165335
 20
1524.2074641226793
 30
0.0
 10
-14.355408654424886
 20
1524.1938771001337
 30
0.0
 10
-14.358717548344368
 20
1524.180279470179
 30
0.0
 10
-14.364898418941484
 20
1524.1545213283766
 30
0.0
 10
-14.367779223431127
 20
1524.1423629348212
 30
0.0
 10
-14.370625299666138
 20
1524.1301963302271
 30
0.0
 10
-14.37343662036436
 20
1524.1180216303267
 30
0.0
 10
-14.376213158707028
 20
1524.1058389509597
 30
0.0
 10
-14.37895488833876
 20
1524.093648408071
 30
0.0
 10
-14.381661783367555
 20
1524.0814501177135
 30
0.0
 10
-14.387433378961363
 20
1524.055085326912
 30
0.0
 10
-14.39048603190205
 20
1524.0409161890748
 30
0.0
 10
-14.393491737494989
 20
1524.0267369638482
 30
0.0
 10
-14.396450456891275
 20
1524.01254783272
 30
0.0
 10
-14.399362152084997
 20
1523.9983489773529
 30
0.0
 10
-14.402226785913237
 20
1523.9841405795835
 30
0.0
 10
-14.405044322056073
 20
1523.969922821423
 30
0.0
 10
-14.410585128017063
 20
1523.9414689486907
 30
0.0
 10
-14.413308397838044
 20
1523.9272328341049
 30
0.0
 10
-14.415984499022704
 20
1523.9129877234843
 30
0.0
 10
-14.418613396941033
 20
1523.8987337991691
 30
0.0
 10
-14.421195057809845
 20
1523.8844712436548
 30
0.0
 10
-14.423729448692745
 20
1523.8702002395908
 30
0.0
 10
-14.426216537500157
 20
1523.8559209697812
 30
0.0
 10
-14.431096048478482
 20
1523.8273462645898
 30
0.0
 10
-14.433488470651888
 20
1523.8130508291933
 30
0.0
 10
-14.435833528266873
 20
1523.7987474939555
 30
0.0
 10
-14.438131190930958
 20
1523.7844364419707
 30
0.0
 10
-14.44038142910184
 20
1523.770117856467
 30
0.0
 10
-14.442584214087374
 20
1523.7557919208102
 30
0.0
 10
-14.444739518045596
 20
1523.7414588184986
 30
0.0
 10
-14.448955109923794
 20
1523.7127786478352
 30
0.0
 10
-14.451015397845937
 20
1523.698431579469
 30
0.0
 10
-14.453028150759426
 20
1523.6840777117025
 30
0.0
 10
-14.454993342525638
 20
1523.669717228286
 30
0.0
 10
-14.456910947859045
 20
1523.655350313084
 30
0.0
 10
-14.458780942327175
 20
1523.6409771500769
 30
0.0
 10
-14.460603302350641
 20
1523.6265979233601
 30
0.0
 10
-14.464152708055602
 20
1523.5978277109302
 30
0.0
 10
-14.465879753738903
 20
1523.5834367252012
 30
0.0
 10
-14.467559119526825
 20
1523.5690400441706
 30
0.0
 10
-14.469190783548685
 20
1523.5546378521442
 30
0.0
 10
-14.4707747247893
 20
1523.5402303335243
 30
0.0
 10
-14.472310923089028
 20
1523.525817672808
 30
0.0
 10
-14.473799359143733
 20
1523.5114000545882
 30
0.0
 10
-14.476680669865846
 20
1523.482555272518
 30
0.0
 10
-14.478073544534734
 20
1523.4681281086525
 30
0.0
 10
-14.479418620062946
 20
1523.4536963566468
 30
0.0
 10
-14.480715878859472
 20
1523.439260201263
 30
0.0
 10
-14.481965304190823
 20
1523.424819827342
 30
0.0
 10
-14.483166880180994
 20
1523.4103754197984
 30
0.0
 10
-14.484320591811496
 20
1523.3959271636234
 30
0.0
 10
-14.486646654559683
 20
1523.365528297965
 30
0.0
 10
-14.487808587403952
 20
1523.3495768912755
 30
0.0
 10
-14.488912204427987
 20
1523.3336212724662
 30
0.0
 10
-14.489957487879275
 20
1523.3176616902683
 30
0.0
 10
-14.49094442127895
 20
1523.3016983934947
 30
0.0
 10
-14.491872989421788
 20
1523.2857316310385
 30
0.0
 10
-14.492743178376209
 20
1523.2697616518751
 30
0.0
 10
-14.494036980017334
 20
1523.2443047678862
 30
0.0
 10
-14.49449839914389
 20
1523.2348197844944
 30
0.0
 10
-14.494939230214545
 20
1523.2253338070143
 30
0.0
 10
-14.495359470738341
 20
1523.2158468875832
 30
0.0
 10
-14.495759118382805
 20
1523.206359078344
 30
0.0
 10
-14.49613817097391
 20
1523.1968704314477
 30
0.0
 10
-14.496496626496109
 20
1523.1873809990514
 30
0.0
 10
-14.497625778804267
 20
1523.1556638662194
 30
0.0
 10
-14.498304079993696
 20
1523.1334328763946
 30
0.0
 10
-14.498869362799978
 20
1523.1111985340785
 30
0.0
 10
-14.499321608134455
 20
1523.0889615095994
 30
0.0
 10
-14.499660801680447
 20
1523.0667224733825
 30
0.0
 10
-14.499886933893215
 20
1523.0444820959488
 30
0.0
 10
-14.5
 20
1523.0222410479166
 30
0.0
 10
-14.5
 20
1523.0000000000002
 30
0.0
  0
LINE
  5
2A7
330
17
100
AcDbEntity
  8
0
100
AcDbLine
 10
-14.5
 20
1523.0
 30
-1.1040332182593746e-16
 11
-14.5
 21
1308.0
 31
-4.662317722789079e-15
  0
LINE
  5
2A8
330
17
100
AcDbEntity
  8
0
100
AcDbLine
 10
-11.299999999999942
 20
328.0
 30
-5.223178159273854e-16
 11
-11.299999999999963
 21
328.8280430818293
 31
4.8163983885370365e-14
  0
ARC
  5
2A9
330
17
100
AcDbEntity
  8
0
100
AcDbCircle
 10
-10.0
 20
324.0
 30
0.0
 40
5.0
100
AcDbArc
 50
105.07006214488844
 51
119.99999999999923
  0
LINE
  5
2AA
330
17
100
AcDbEntity
  8
0
100
AcDbLine
 10
-12.499999999999966
 20
328.33012701892227
 30
2.0893746952062685e-13
 11
-12.5
 21
328.0
 31
-3.973299153109534e-15
  0
LINE
  5
2AB
330
17
100
AcDbEntity
  8
0
100
AcDbLine
 10
-12.5
 20
328.0
 30
-3.973299153109534e-15
 11
-11.299999999999942
 21
328.0
 31
-5.223178159273854e-16
  0
SPLINE
  5
2AC
330
17
100
AcDbEntity
  8
0
100
AcDbSpline
 70
0
 71
8
 72
102
 73
93
 74
0
 40
0.0
 40
0.0
 40
0.0
 40
0.0
 40
0.0
 40
0.0
 40
0.0
 40
0.0
 40
0.0
 40
0.04725888538690643
 40
0.04725888538690643
 40
0.04725888538690643
 40
0.04725888538690643
 40
0.04725888538690643
 40
0.04725888538690643
 40
0.04725888538690643
 40
0.1286116669220839
 40
0.1286116669220839
 40
0.1286116669220839
 40
0.1286116669220839
 40
0.1286116669220839
 40
0.1286116669220839
 40
0.1286116669220839
 40
0.2128699049385325
 40
0.2128699049385325
 40
0.2128699049385325
 40
0.2128699049385325
 40
0.2128699049385325
 40
0.2128699049385325
 40
0.2128699049385325
 40
0.2971281429550261
 40
0.2971281429550261
 40
0.2971281429550261
 40
0.2971281429550261
 40
0.2971281429550261
 40
0.2971281429550261
 40
0.2971281429550261
 40
0.38138638097164895
 40
0.38138638097164895
 40
0.38138638097164895
 40
0.38138638097164895
 40
0.38138638097164895
 40
0.38138638097164895
 40
0.38138638097164895
 40
0.4656446189882911
 40
0.4656446189882911
 40
0.4656446189882911
 40
0.4656446189882911
 40
0.4656446189882911
 40
0.4656446189882911
 40
0.4656446189882911
 40
0.5411864875601475
 40
0.5411864875601475
 40
0.5411864875601475
 40
0.5411864875601475
 40
0.5411864875601475
 40
0.5411864875601475
 40
0.5411864875601475
 40
0.6254447255768623
 40
0.6254447255768623
 40
0.6254447255768623
 40
0.6254447255768623
 40
0.6254447255768623
 40
0.6254447255768623
 40
0.6254447255768623
 40
0.7067975071123084
 40
0.7067975071123084
 40
0.7067975071123084
 40
0.7067975071123084
 40
0.7067975071123084
 40
0.7067975071123084
 40
0.7067975071123084
 40
0.7910557451290631
 40
0.7910557451290631
 40
0.7910557451290631
 40
0.7910557451290631
 40
0.7910557451290631
 40
0.7910557451290631
 40
0.7910557451290631
 40
0.8753139831457626
 40
0.8753139831457626
 40
0.8753139831457626
 40
0.8753139831457626
 40
0.8753139831457626
 40
0.8753139831457626
 40
0.8753139831457626
 40
0.9566667646812058
 40
0.9566667646812058
 40
0.9566667646812058
 40
0.9566667646812058
 40
0.9566667646812058
 40
0.9566667646812058
 40
0.9566667646812058
 40
1.0
 40
1.0
 40
1.0
 40
1.0
 40
1.0
 40
1.0
 40
1.0
 40
1.0
 40
1.0
 10
-11.299999999988177
 20
1527.6647615158809
 30
0.0
 10
-11.307584444470798
 20
1527.6618348925103
 30
0.0
 10
-11.315163450779004
 20
1527.658894175926
 30
0.0
 10
-11.322736988360713
 20
1527.6559393779166
 30
0.0
 10
-11.330305026694695
 20
1527.652970510351
 30
0.0
 10
-11.337867535290563
 20
1527.6499875851766
 30
0.0
 10
-11.345424483688781
 20
1527.6469906144216
 30
0.0
 10
-11.352975841460655
 20
1527.6439796101924
 30
0.0
 10
-11.373511022799143
 20
1527.6357472202185
 30
0.0
 10
-11.38648381053384
 20
1527.6304983062603
 30
0.0
 10
-11.399439786348292
 20
1527.625207904965
 30
0.0
 10
-11.412378795464521
 20
1527.6198760791874
 30
0.0
 10
-11.425300683390665
 20
1527.6145028924739
 30
0.0
 10
-11.43820529592101
 20
1527.609088409062
 30
0.0
 10
-11.451092479135982
 20
1527.6036326938813
 30
0.0
 10
-11.477291308248889
 20
1527.5924426140314
 30
0.0
 10
-11.490601675807573
 20
1527.5867052564097
 30
0.0
 10
-11.503893011388469
 20
1527.580923812592
 30
0.0
 10
-11.517165144649143
 20
1527.5750983562702
 30
0.0
 10
-11.530417905594446
 20
1527.569228961926
 30
0.0
 10
-11.543651124576524
 20
1527.5633157048271
 30
0.0
 10
-11.556864632294818
 20
1527.5573586610296
 30
0.0
 10
-11.58325188729729
 20
1527.5453571537257
 30
0.0
 10
-11.596425634594903
 20
1527.5393126902118
 30
0.0
 10
-11.60957933273566
 20
1527.5332245936818
 30
0.0
 10
-11.622712813131777
 20
1527.527092941757
 30
0.0
 10
-11.635825907560914
 20
1527.5209178128405
 30
0.0
 10
-11.648918448166201
 20
1527.5146992861141
 30
0.0
 10
-11.66199026745621
 20
1527.5084374415396
 30
0.0
 10
-11.688092129153752
 20
1527.4958272781755
 30
0.0
 10
-11.701122171574598
 20
1527.489478959379
 30
0.0
 10
-11.714131158441605
 20
1527.48308748421
 30
0.0
 10
-11.727118923012291
 20
1527.4766529341798
 30
0.0
 10
-11.740085298927609
 20
1527.4701753915697
 30
0.0
 10
-11.753030120211937
 20
1527.463654939433
 30
0.0
 10
-11.765953221273083
 20
1527.457091661594
 30
0.0
 10
-11.791755652531462
 20
1527.443879623701
 30
0.0
 10
-11.804634982741858
 20
1527.437230863639
 30
0.0
 10
-11.817492262324752
 20
1527.4305394470568
 30
0.0
 10
-11.830327326472633
 20
1527.423805459311
 30
0.0
 10
-11.843140010779205
 20
1527.4170289865192
 30
0.0
 10
-11.855930151239352
 20
1527.4102101155604
 30
0.0
 10
-11.868697584249157
 20
1527.403348934076
 30
0.0
 10
-11.892868305961018
 20
1527.3902562720602
 30
0.0
 10
-11.904276081779992
 20
1527.3840330752946
 30
0.0
 10
-11.915665356451706
 20
1527.3777760038777
 30
0.0
 10
-11.927036012635018
 20
1527.371485122003
 30
0.0
 10
-11.938387933258763
 20
1527.3651604943489
 30
0.0
 10
-11.94972100152176
 20
1527.3588021860824
 30
0.0
 10
-11.961035100892802
 20
1527.352410262855
 30
0.0
 10
-11.984928400198939
 20
1527.338817918136
 30
0.0
 10
-11.997502941786685
 20
1527.331609307945
 30
0.0
 10
-12.0100535785444
 20
1527.3243590520094
 30
0.0
 10
-12.022580149576891
 20
1527.3170672428507
 30
0.0
 10
-12.035082494423278
 20
1527.309733973731
 30
0.0
 10
-12.047560453056983
 20
1527.3023593386567
 30
0.0
 10
-12.06001386588573
 20
1527.2949434323775
 30
0.0
 10
-12.084442705484383
 20
1527.280286409153
 30
0.0
 10
-12.096419806680357
 20
1527.2730480829453
 30
0.0
 10
-12.108373734085491
 20
1527.2657714577135
 30
0.0
 10
-12.120304344837871
 20
1527.2584566200458
 30
0.0
 10
-12.1322114964676
 20
1527.2511036571666
 30
0.0
 10
-12.144095046896842
 20
1527.2437126569387
 30
0.0
 10
-12.155954854439809
 20
1527.2362837078613
 30
0.0
 10
-12.180049412714064
 20
1527.2210834185385
 30
0.0
 10
-12.192282426979864
 20
1527.2133093257298
 30
0.0
 10
-12.204489663620116
 20
1527.2054947196773
 30
0.0
 10
-12.216670966122498
 20
1527.1976397001367
 30
0.0
 10
-12.228826178442416
 20
1527.1897443675853
 30
0.0
 10
-12.24095514500299
 20
1527.181808823223
 30
0.0
 10
-12.253057710695055
 20
1527.1738331689744
 30
0.0
 10
-12.277209731059253
 20
1527.157801845995
 30
0.0
 10
-12.289259185743685
 20
1527.149746177256
 30
0.0
 10
-12.301281930289075
 20
1527.1416506039134
 30
0.0
 10
-12.313277810538379
 20
1527.1335152293261
 30
0.0
 10
-12.325246672818896
 20
1527.1253401575618
 30
0.0
 10
-12.337188363942275
 20
1527.1171254934018
 30
0.0
 10
-12.349102731204498
 20
1527.1088713423392
 30
0.0
 10
-12.372466620768218
 20
1527.0925702626694
 30
0.0
 10
-12.383918005311838
 20
1527.0845260031394
 30
0.0
 10
-12.395343639007818
 20
1527.0764451275795
 30
0.0
 10
-12.406743385282123
 20
1527.0683277321898
 30
0.0
 10
-12.418117107995604
 20
1527.0601739137794
 30
0.0
 10
-12.42946467144399
 20
1527.0519837697664
 30
0.0
 10
-12.440785940357909
 20
1527.043757398177
 30
0.0
 10
-12.458097070073336
 20
1527.031093808058
 30
0.0
 10
-12.464105861577313
 20
1527.0266824677876
 30
0.0
 10
-12.470107134037427
 20
1527.0222608917425
 30
0.0
 10
-12.476100867112415
 20
1527.0178290948772
 30
0.0
 10
-12.48208704049712
 20
1527.013387092195
 30
0.0
 10
-12.48806563392251
 20
1527.0089348987472
 30
0.0
 10
-12.494036627155662
 20
1527.004472529633
 30
0.0
 10
-12.499999999999773
 20
1526.9999999999998
 30
0.0
  0
LINE
  5
2AD
330
17
100
AcDbEntity
  8
0
100
AcDbLine
 10
-11.299999999986923
 20
1527.6647615158774
 30
5.98873784689175e-14
 11
-11.299999999999942
 21
1528.0
 31
-2.7871727861627086e-15
  0
LINE
  5
2AE
330
17
100
AcDbEntity
  8
0
100
AcDbLine
 10
-11.299999999999942
 20
1528.0
 30
-2.7871727861627086e-15
 11
-12.5
 21
1528.0
 31
-3.973299153109546e-15
  0
LINE
  5
2AF
330
17
100
AcDbEntity
  8
0
100
AcDbLine
 10
-12.5
 20
1528.0
 30
-3.973299153109546e-15
 11
-12.499999999999943
 21
1527.0
 31
2.1854065054815548e-13
  0
ARC
  5
2B0
330
17
100
AcDbEntity
  8
0
100
AcDbCircle
 10
-7.000000000000002
 20
1531.0
 30
0.0
 40
8.0
100
AcDbArc
 50
-142.79991411822272
 51
-133.43253655778977
  0
LINE
  5
2B1
330
17
100
AcDbEntity
  8
0
100
AcDbLine
 10
-12.499999999999973
 20
1525.190524980689
 30
-4.855283725961941e-14
 11
-12.499999999999943
 21
1527.0
 31
2.1854065054815548e-13
  0
SPLINE
  5
2B2
330
17
100
AcDbEntity
  8
0
100
AcDbSpline
 70
0
 71
8
 72
95
 73
86
 74
0
 40
0.0
 40
0.0
 40
0.0
 40
0.0
 40
0.0
 40
0.0
 40
0.0
 40
0.0
 40
0.0
 40
0.046480113103131555
 40
0.046480113103131555
 40
0.046480113103131555
 40
0.046480113103131555
 40
0.046480113103131555
 40
0.046480113103131555
 40
0.046480113103131555
 40
0.14217546251568064
 40
0.14217546251568064
 40
0.14217546251568064
 40
0.14217546251568064
 40
0.14217546251568064
 40
0.14217546251568064
 40
0.14217546251568064
 40
0.23787081192821533
 40
0.23787081192821533
 40
0.23787081192821533
 40
0.23787081192821533
 40
0.23787081192821533
 40
0.23787081192821533
 40
0.23787081192821533
 40
0.33356616134064715
 40
0.33356616134064715
 40
0.33356616134064715
 40
0.33356616134064715
 40
0.33356616134064715
 40
0.33356616134064715
 40
0.33356616134064715
 40
0.42926151075315233
 40
0.42926151075315233
 40
0.42926151075315233
 40
0.42926151075315233
 40
0.42926151075315233
 40
0.42926151075315233
 40
0.42926151075315233
 40
0.5249568601655805
 40
0.5249568601655805
 40
0.5249568601655805
 40
0.5249568601655805
 40
0.5249568601655805
 40
0.5249568601655805
 40
0.5249568601655805
 40
0.6041530114116969
 40
0.6041530114116969
 40
0.6041530114116969
 40
0.6041530114116969
 40
0.6041530114116969
 40
0.6041530114116969
 40
0.6041530114116969
 40
0.6899488419253091
 40
0.6899488419253091
 40
0.6899488419253091
 40
0.6899488419253091
 40
0.6899488419253091
 40
0.6899488419253091
 40
0.6899488419253091
 40
0.7823443517052568
 40
0.7823443517052568
 40
0.7823443517052568
 40
0.7823443517052568
 40
0.7823443517052568
 40
0.7823443517052568
 40
0.7823443517052568
 40
0.8780397011177371
 40
0.8780397011177371
 40
0.8780397011177371
 40
0.8780397011177371
 40
0.8780397011177371
 40
0.8780397011177371
 40
0.8780397011177371
 40
0.9704352108976093
 40
0.9704352108976093
 40
0.9704352108976093
 40
0.9704352108976093
 40
0.9704352108976093
 40
0.9704352108976093
 40
0.9704352108976093
 40
1.0
 40
1.0
 40
1.0
 40
1.0
 40
1.0
 40
1.0
 40
1.0
 40
1.0
 40
1.0
 10
-12.499999999999773
 20
1526.9999999999998
 30
0.0
 10
-12.505631960040109
 20
1526.9957760299694
 30
0.0
 10
-12.511257123157495
 20
1526.9915429973753
 30
0.0
 10
-12.516875472338754
 20
1526.987300914977
 30
0.0
 10
-12.522486990599443
 20
1526.9830497955727
 30
0.0
 10
-12.528091660983845
 20
1526.9787896519993
 30
0.0
 10
-12.533689466564981
 20
1526.9745204971314
 30
0.0
 10
-12.5392803904446
 20
1526.9702423438823
 30
0.0
 10
-12.55636105845387
 20
1526.9571286510827
 30
0.0
 10
-12.567828459208002
 20
1526.9482640091287
 30
0.0
 10
-12.579266470793415
 20
1526.9393613923723
 30
0.0
 10
-12.590674946520023
 20
1526.9304209145191
 30
0.0
 10
-12.602053740229845
 20
1526.921442689954
 30
0.0
 10
-12.613402706296988
 20
1526.912426833735
 30
0.0
 10
-12.624721699627656
 20
1526.9033734616005
 30
0.0
 10
-12.647299451692648
 20
1526.8851919183257
 30
0.0
 10
-12.658558210438498
 20
1526.8760637471764
 30
0.0
 10
-12.669786707336092
 20
1526.8668982929296
 30
0.0
 10
-12.680984798371476
 20
1526.8576956726608
 30
0.0
 10
-12.692152340078355
 20
1526.8484560041134
 30
0.0
 10
-12.703289189538076
 20
1526.839179405693
 30
0.0
 10
-12.714395204379649
 20
1526.8298659964694
 30
0.0
 10
-12.736545281179811
 20
1526.8111657958848
 30
0.0
 10
-12.747589343149698
 20
1526.8017790045142
 30
0.0
 10
-12.758602286866111
 20
1526.7923556418002
 30
0.0
 10
-12.769583971068679
 20
1526.7828958281282
 30
0.0
 10
-12.780534255059928
 20
1526.7733996845345
 30
0.0
 10
-12.791452998705312
 20
1526.7638673327076
 30
0.0
 10
-12.802340062433196
 20
1526.7542988949872
 30
0.0
 10
-12.82405055203652
 20
1526.7350900937402
 30
0.0
 10
-12.834873977923026
 20
1526.725449730204
 30
0.0
 10
-12.845665445885693
 20
1526.7157735267465
 30
0.0
 10
-12.856424817493702
 20
1526.7060616069957
 30
0.0
 10
-12.867151954894092
 20
1526.6963140952193
 30
0.0
 10
-12.877846720811782
 20
1526.686531116322
 30
0.0
 10
-12.888508978549543
 20
1526.6767127958465
 30
0.0
 10
-12.909768205426483
 20
1526.657005724102
 30
0.0
 10
-12.920365174576482
 20
1526.647116972823
 30
0.0
 10
-12.930929363318713
 20
1526.6371931323176
 30
0.0
 10
-12.941460636126363
 20
1526.6272343293933
 30
0.0
 10
-12.951958858065119
 20
1526.617240691479
 30
0.0
 10
-12.962423894793163
 20
1526.6072123466292
 30
0.0
 10
-12.972855612561181
 20
1526.5971494235232
 30
0.0
 10
-12.991859339441815
 20
1526.578695605623
 30
0.0
 10
-13.000441889357912
 20
1526.5703155657243
 30
0.0
 10
-13.009001452487102
 20
1526.561912005059
 30
0.0
 10
-13.017537953639888
 20
1526.553484997204
 30
0.0
 10
-13.026051317910833
 20
1526.5450346160228
 30
0.0
 10
-13.034541470678581
 20
1526.5365609356659
 30
0.0
 10
-13.043008337605839
 20
1526.5280640305705
 30
0.0
 10
-13.060598977258715
 20
1526.5103139157607
 30
0.0
 10
-13.06971869445263
 20
1526.5010566869405
 30
0.0
 10
-13.078810902068378
 20
1526.4917723840085
 30
0.0
 10
-13.087875506352326
 20
1526.4824611023575
 30
0.0
 10
-13.096912413949925
 20
1526.4731229377696
 30
0.0
 10
-13.105921531905723
 20
1526.4637579864127
 30
0.0
 10
-13.114902767663372
 20
1526.4543663448421
 30
0.0
 10
-13.133498002882986
 20
1526.4348053955594
 30
0.0
 10
-13.143107533076924
 20
1526.4246318392095
 30
0.0
 10
-13.152684504544458
 20
1526.4144275620336
 30
0.0
 10
-13.162228802730558
 20
1526.4041926856214
 30
0.0
 10
-13.171740313628122
 20
1526.3939273320725
 30
0.0
 10
-13.18121892377798
 20
1526.3836316239956
 30
0.0
 10
-13.190664520268891
 20
1526.3733056845092
 30
0.0
 10
-13.209825620865544
 20
1526.35222373114
 30
0.0
 10
-13.219538716583731
 20
1526.3414655282886
 30
0.0
 10
-13.229216153054361
 20
1526.3306751660382
 30
0.0
 10
-13.23885780608341
 20
1526.3198527823124
 30
0.0
 10
-13.24846355212055
 20
1526.3089985156066
 30
0.0
 10
-13.25803326825916
 20
1526.2981125049885
 30
0.0
 10
-13.26756683223634
 20
1526.2871948900972
 30
0.0
 10
-13.286233919864264
 20
1526.265674286634
 30
0.0
 10
-13.295369902031897
 20
1526.255073430575
 30
0.0
 10
-13.304471959469497
 20
1526.244443369165
 30
0.0
 10
-13.313539983281355
 20
1526.2337842290883
 30
0.0
 10
-13.322573865142338
 20
1526.223096137512
 30
0.0
 10
-13.331573497297907
 20
1526.2123792220868
 30
0.0
 10
-13.340538772564088
 20
1526.2016336109477
 30
0.0
 10
-13.352327272616979
 20
1526.1874119025474
 30
0.0
 10
-13.355181432268113
 20
1526.1839614474602
 30
0.0
 10
-13.358032059788009
 20
1526.1805080716665
 30
0.0
 10
-13.360879151689874
 20
1526.1770517793848
 30
0.0
 10
-13.363722704493005
 20
1526.173592574839
 30
0.0
 10
-13.366562714722802
 20
1526.1701304622575
 30
0.0
 10
-13.36939917891075
 20
1526.166665445874
 30
0.0
 10
-13.372232093594441
 20
1526.1631975299274
 30
0.0
  0
ARC
  5
2B3
330
17
100
AcDbEntity
  8
0
100
AcDbCircle
 10
0.0
 20
323.0
 30
3.5860203695392556e-14
 40
4.0
100
AcDbArc
 50
311.40962210927086
 51
360.0
  0
ARC
  5
2B4
330
17
100
AcDbEntity
  8
0
100
AcDbCircle
 10
0.0
 20
323.0
 30
3.5860203695392556e-14
 40
4.0
100
AcDbArc
 50
-6.3611093629270335e-15
 51
228.59037789072912
  0
LINE
  5
2B5
330
17
100
AcDbEntity
  8
0
100
AcDbLine
 10
-2.645751311064591
 20
320.0
 30
3.552713678800501e-14
 11
2.6457513110645885
 21
320.0
 31
3.552713678800501e-14
  0
LINE
  5
2B6
330
17
100
AcDbEntity
  8
0
100
AcDbLine
 10
2.6457513110645885
 20
320.0
 30
3.552713678800501e-14
 11
-2.645751311064591
 21
320.0
 31
3.552713678800501e-14
  0
ARC
  5
2B7
330
17
100
AcDbEntity
  8
0
100
AcDbCircle
 10
0.0
 20
323.0
 30
3.5860203695392556e-14
 40
4.0
100
AcDbArc
 50
228.59037789072912
 51
311.40962210927086
  0
DIMENSION
  5
2BC
330
17
100
AcDbEntity
  8
0
100
AcDbDimension
280
0
  2
*D1
  3
Standard
 10
-160.0
 20
0.0
 30
0.0
 11
-170.625
 21
781.5
 31
0.0
 70
32
 71
5
  1
<>
100
AcDbAlignedDimension
 13
0.0
 23
0.0
 33
0.0
 14
0.0
 24
1563.0
 34
0.0
 50
90.0
100
AcDbRotatedDimension
  0
DIMENSION
  5
2CF
330
17
100
AcDbEntity
  8
0
100
AcDbDimension
280
0
  2
*D2
  3
Standard
 10
-120.0
 20
0.0
 30
0.0
 11
-130.625
 21
140.0
 31
0.0
 70
32
 71
5
  1
<>
100
AcDbAlignedDimension
 13
0.0
 23
0.0
 33
0.0
 14
0.0
 24
280.0
 34
0.0
 50
90.0
100
AcDbRotatedDimension
  0
DIMENSION
  5
2DE
330
17
100
AcDbEntity
  8
0
100
AcDbDimension
280
0
  2
*D3
  3
Standard
 10
-105.0
 20
340.0
 30
0.0
 11
-160.0
 21
352.0
 31
0.0
 70
160
 71
5
  1
<>
100
AcDbAlignedDimension
 13
-105.0
 23
297.0
 33
0.0
 14
105.0
 24
297.0
 34
0.0
 50
0.0
100
AcDbRotatedDimension
1001
ACAD
1000
DSTYLE
1002
{
1070
279
1070
2
1002
}
  0
DIMENSION
  5
2ED
330
17
100
AcDbEntity
  8
0
100
AcDbDimension
280
0
  2
*D4
  3
Standard
 10
-95.0
 20
-40.0
 30
0.0
 11
0.0
 21
-29.375
 31
0.0
 70
32
 71
5
  1
<>
100
AcDbAlignedDimension
 13
-95.0
 23
0.0
 33
0.0
 14
95.0
 24
0.0
 34
0.0
 50
0.0
100
AcDbRotatedDimension
  0
ENDSEC
  0
SECTION
  2
OBJECTS
  0
DICTIONARY
  5
A
330
0
100
AcDbDictionary
281
1
  3
ACAD_COLOR
350
B
  3
ACAD_GROUP
350
C
  3
ACAD_LAYOUT
350
D
  3
ACAD_MATERIAL
350
E
  3
ACAD_MLEADERSTYLE
350
F
  3
ACAD_MLINESTYLE
350
10
  3
ACAD_PLOTSETTINGS
350
11
  3
ACAD_PLOTSTYLENAME
350
12
  3
ACAD_SCALELIST
350
14
  3
ACAD_TABLESTYLE
350
15
  3
ACAD_VISUALSTYLE
350
16
  3
EZDXF_META
350
2D
  0
DICTIONARY
  5
B
330
A
100
AcDbDictionary
281
1
  0
DICTIONARY
  5
C
330
A
100
AcDbDictionary
281
1
  0
DICTIONARY
  5
D
330
A
100
AcDbDictionary
281
1
  3
Model
350
1A
  3
Layout1
350
1E
  0
DICTIONARY
  5
E
330
A
100
AcDbDictionary
281
1
  3
ByBlock
350
1F
  3
ByLayer
350
20
  3
Global
350
21
  0
DICTIONARY
  5
F
330
A
100
AcDbDictionary
281
1
  3
Standard
350
2C
  0
DICTIONARY
  5
10
330
A
100
AcDbDictionary
281
1
  3
Standard
350
22
  0
DICTIONARY
  5
11
330
A
100
AcDbDictionary
281
1
  0
ACDBDICTIONARYWDFLT
  5
12
330
A
100
AcDbDictionary
281
1
  3
Normal
350
13
100
AcDbDictionaryWithDefault
340
13
  0
ACDBPLACEHOLDER
  5
13
330
12
  0
DICTIONARY
  5
14
330
A
100
AcDbDictionary
281
1
  0
DICTIONARY
  5
15
330
A
100
AcDbDictionary
281
1
  0
DICTIONARY
  5
16
330
A
100
AcDbDictionary
281
1
  0
LAYOUT
  5
1A
330
D
100
AcDbPlotSettings
  1

  4
A3
  6

 40
7.5
 41
20.0
 42
7.5
 43
20.0
 44
420.0
 45
297.0
 46
0.0
 47
0.0
 48
0.0
 49
0.0
140
0.0
141
0.0
142
1.0
143
1.0
 70
1024
 72
1
 73
0
 74
5
  7

 75
16
 76
0
 77
2
 78
300
147
1.0
148
0.0
149
0.0
100
AcDbLayout
  1
Model
 70
1
 71
0
 10
0.0
 20
0.0
 11
420.0
 21
297.0
 12
0.0
 22
0.0
 32
0.0
 14
1e+20
 24
1e+20
 34
1e+20
 15
-1e+20
 25
-1e+20
 35
-1e+20
146
0.0
 13
0.0
 23
0.0
 33
0.0
 16
1.0
 26
0.0
 36
0.0
 17
0.0
 27
1.0
 37
0.0
 76
1
330
17
  0
LAYOUT
  5
1E
330
D
100
AcDbPlotSettings
  1

  4
A3
  6

 40
7.5
 41
20.0
 42
7.5
 43
20.0
 44
420.0
 45
297.0
 46
0.0
 47
0.0
 48
0.0
 49
0.0
140
0.0
141
0.0
142
1.0
143
1.0
 70
0
 72
1
 73
0
 74
5
  7

 75
16
 76
0
 77
2
 78
300
147
1.0
148
0.0
149
0.0
100
AcDbLayout
  1
Layout1
 70
1
 71
1
 10
0.0
 20
0.0
 11
420.0
 21
297.0
 12
0.0
 22
0.0
 32
0.0
 14
1e+20
 24
1e+20
 34
1e+20
 15
-1e+20
 25
-1e+20
 35
-1e+20
146
0.0
 13
0.0
 23
0.0
 33
0.0
 16
1.0
 26
0.0
 36
0.0
 17
0.0
 27
1.0
 37
0.0
 76
1
330
1B
  0
MATERIAL
  5
1F
102
{ACAD_REACTORS
330
E
102
}
330
E
100
AcDbMaterial
  1
ByBlock
  2

 70
0
 40
1.0
 71
1
 41
1.0
 91
-1023410177
 42
1.0
 72
1
  3

 73
1
 74
1
 75
1
 44
0.5
 73
0
 45
1.0
 46
1.0
 77
1
  4

 78
1
 79
1
170
1
 48
1.0
171
1
  6

172
1
173
1
174
1
140
1.0
141
1.0
175
1
  7

176
1
177
1
178
1
143
1.0
179
1
  8

270
1
271
1
272
1
145
1.0
146
1.0
273
1
  9

274
1
275
1
276
1
 42
1.0
 72
1
  3

 73
1
 74
1
 75
1
 94
63
  0
MATERIAL
  5
20
102
{ACAD_REACTORS
330
E
102
}
330
E
100
AcDbMaterial
  1
ByLayer
  2

 70
0
 40
1.0
 71
1
 41
1.0
 91
-1023410177
 42
1.0
 72
1
  3

 73
1
 74
1
 75
1
 44
0.5
 73
0
 45
1.0
 46
1.0
 77
1
  4

 78
1
 79
1
170
1
 48
1.0
171
1
  6

172
1
173
1
174
1
140
1.0
141
1.0
175
1
  7

176
1
177
1
178
1
143
1.0
179
1
  8

270
1
271
1
272
1
145
1.0
146
1.0
273
1
  9

274
1
275
1
276
1
 42
1.0
 72
1
  3

 73
1
 74
1
 75
1
 94
63
  0
MATERIAL
  5
21
102
{ACAD_REACTORS
330
E
102
}
330
E
100
AcDbMaterial
  1
Global
  2

 70
0
 40
1.0
 71
1
 41
1.0
 91
-1023410177
 42
1.0
 72
1
  3

 73
1
 74
1
 75
1
 44
0.5
 73
0
 45
1.0
 46
1.0
 77
1
  4

 78
1
 79
1
170
1
 48
1.0
171
1
  6

172
1
173
1
174
1
140
1.0
141
1.0
175
1
  7

176
1
177
1
178
1
143
1.0
179
1
  8

270
1
271
1
272
1
145
1.0
146
1.0
273
1
  9

274
1
275
1
276
1
 42
1.0
 72
1
  3

 73
1
 74
1
 75
1
 94
63
  0
MLINESTYLE
  5
22
102
{ACAD_REACTORS
330
10
102
}
330
10
100
AcDbMlineStyle
  2
Standard
 70
0
  3

 62
256
 51
90.0
 52
90.0
 71
2
 49
0.5
 62
256
  6
BYLAYER
 49
-0.5
 62
256
  6
BYLAYER
  0
MLEADERSTYLE
  5
2C
102
{ACAD_REACTORS
330
F
102
}
330
F
100
AcDbMLeaderStyle
179
2
170
2
171
1
172
0
 90
2
 40
0.0
 41
0.0
173
1
 91
-1056964608
 92
-2
290
1
 42
2.0
291
1
 43
8.0
  3
Standard
 44
4.0
300

342
29
174
1
175
1
176
0
178
1
 93
-1056964608
 45
4.0
292
0
297
0
 46
4.0
 94
-1056964608
 47
1.0
 49
1.0
140
1.0
294
1
141
0.0
177
0
142
1.0
295
0
296
0
143
3.75
271
0
272
9
273
9
  0
DICTIONARY
  5
2D
330
A
100
AcDbDictionary
280
1
281
1
  3
CREATED_BY_EZDXF
350
2E
  3
WRITTEN_BY_EZDXF
350
2BB
  0
DICTIONARYVAR
  5
2E
330
2D
100
DictionaryVariables
280
0
  1
1.4.4 @ 2026-10-11T00:36:35.407045+00:00
  0
DICTIONARYVAR
  5
2BB
330
2D
100
DictionaryVariables
280
0
  1
1.4.4 @ 2026-10-11T00:36:35.586473+00:00
  0
ENDSEC
  0
EOF
